<svg width="45" height="33" viewBox="0 0 45 33" fill="none" xmlns="http://www.w3.org/2000/svg">
<rect x="0.5" y="1.18506" width="44" height="30.7647" rx="4.79412" fill="#1A1A1A" stroke="#333333"/>
<path d="M18.5293 31.3613L43.6764 23.751V27.3907C43.6764 29.5836 41.8987 31.3613 39.7058 31.3613H18.5293Z" fill="#FD6020"/>
<path d="M29.6348 17.0098L31.2949 12.7432H32.54L29.9805 19.2148H29.3574L26.7979 12.7432H28.043L29.6348 17.0098ZM18.7734 12.7432C19.2577 12.7432 19.8115 12.8142 20.2266 13.0986V14.5215C19.8807 14.0948 19.3268 13.8096 18.7734 13.8096C17.6667 13.8807 16.7677 14.8769 16.8369 16.0146V16.1562C16.8369 17.294 17.736 18.1475 18.8428 18.1475C19.3961 18.1474 19.8807 17.8632 20.2266 17.4365V18.8584C19.7423 19.0717 19.2575 19.2139 18.7041 19.2139C16.9749 19.2137 15.5919 17.7209 15.5918 15.9434C15.5918 14.0946 16.975 12.601 18.7734 12.7432ZM13.2402 12.6016C13.8627 12.6017 14.4856 12.8859 14.9697 13.3125L14.3467 14.166C14.07 13.8816 13.7238 13.668 13.3779 13.668C12.9631 13.5971 12.6171 13.9525 12.5479 14.3789C12.5479 14.7344 12.7557 14.8768 13.4473 15.1611C14.8305 15.7299 15.1768 16.1567 15.2461 17.0098V17.2236C15.1769 18.3613 14.2776 19.2146 13.1709 19.1436C12.3408 19.1436 11.5108 18.7167 11.0957 17.9346L11.8564 17.1523C12.064 17.6501 12.5482 18.0058 13.1016 18.0059H13.1709C13.5859 18.0058 14.001 17.5788 14.001 17.0811C14.0009 16.7968 13.8626 16.5836 13.6553 16.4414C13.3787 16.2992 13.1018 16.1571 12.8252 16.0859C11.7184 15.7304 11.3721 15.2322 11.3721 14.3789V14.3076C11.4414 13.3123 12.2719 12.5305 13.2402 12.6016ZM6.0459 12.7432C7.70588 12.8143 9.02009 14.237 8.95117 15.9434C8.95109 16.8674 8.536 17.7205 7.84473 18.3604C7.22223 18.8581 6.46102 19.1433 5.7002 19.0723H3.9707V12.7432H6.0459ZM10.6113 19.0723H9.43555V12.7432H10.6113V19.0723ZM36.4131 13.8105H34.2686V15.2324H36.3438V16.2988H34.2686V18.0059H36.4131V19.0723H33.0928V12.7432H36.4131V13.8105ZM38.9033 12.7432C40.2865 12.7432 41.0476 13.3834 41.0479 14.5918C41.117 15.5162 40.4941 16.2982 39.6641 16.4404L41.5322 19.0723H40.0791L38.4883 16.5117H38.3496V19.0723H37.1738V12.7432H38.9033ZM5.49219 13.8096H5.14648V18.0049H5.49219C6.04556 18.076 6.66895 17.8624 7.08398 17.5068C7.49864 17.0802 7.70605 16.5108 7.70605 15.8711C7.70583 15.3027 7.49854 14.734 7.08398 14.3076C6.66898 13.9522 6.04547 13.7385 5.49219 13.8096ZM38.3496 15.6582H38.6963C39.4568 15.6581 39.8026 15.3027 39.8027 14.6631C39.8026 14.0946 39.4567 13.7384 38.6963 13.7383H38.3496V15.6582Z" fill="white"/>
<path fill-rule="evenodd" clip-rule="evenodd" d="M23.7543 12.5967C22.0249 12.5967 20.5723 14.0189 20.5723 15.8677C20.5723 17.6454 21.9557 19.1387 23.7543 19.2098C25.5528 19.2809 26.9363 17.7877 27.0054 15.9388C26.9363 14.09 25.5528 12.5967 23.7543 12.5967V12.5967Z" fill="#FD6020"/>
</svg>
