<svg width="45" height="33" viewBox="0 0 45 33" fill="none" xmlns="http://www.w3.org/2000/svg">
<rect x="0.5" y="1.18506" width="44" height="30.7647" rx="4.79412" fill="#1A1A1A" stroke="#333333"/>
<path fill-rule="evenodd" clip-rule="evenodd" d="M12.5064 11.7275C12.1287 12.1932 11.5244 12.5606 10.92 12.5081C10.8445 11.8783 11.1403 11.2092 11.4866 10.796C11.8643 10.3171 12.5253 9.976 13.0604 9.94976C13.1233 10.6057 12.8778 11.2486 12.5064 11.7275ZM13.0539 12.6325C12.5215 12.6006 12.0357 12.7994 11.6433 12.96C11.3908 13.0633 11.177 13.1508 11.0143 13.1508C10.8317 13.1508 10.6091 13.0586 10.3591 12.9551C10.0315 12.8195 9.65697 12.6645 9.26423 12.6719C8.36402 12.685 7.52676 13.2164 7.06721 14.0626C6.12293 15.755 6.8217 18.2609 7.7345 19.6384C8.18146 20.3206 8.71655 21.0685 9.42161 21.0422C9.73179 21.03 9.95492 20.9314 10.1858 20.8293C10.4517 20.7117 10.7279 20.5896 11.1591 20.5896C11.5754 20.5896 11.8394 20.7085 12.093 20.8227C12.334 20.9312 12.5655 21.0355 12.9091 21.0291C13.6394 21.016 14.0989 20.3469 14.5459 19.6647C15.0282 18.9325 15.2402 18.2179 15.2724 18.1094L15.2761 18.0969C15.2754 18.0961 15.2694 18.0932 15.2589 18.0882C15.0977 18.0113 13.8652 17.4234 13.8534 15.8469C13.8416 14.5236 14.8309 13.8531 14.9867 13.7476C14.9962 13.7412 15.0026 13.7369 15.0054 13.7346C14.3759 12.7637 13.3939 12.6588 13.0539 12.6325ZM18.1093 20.9572V10.7304H21.792C23.6932 10.7304 25.0215 12.0949 25.0215 14.0891C25.0215 16.0832 23.668 17.4608 21.7417 17.4608H19.6328V20.9572H18.1093ZM19.6326 12.0688H21.3889C22.7109 12.0688 23.4663 12.8035 23.4663 14.0958C23.4663 15.3881 22.7109 16.1294 21.3826 16.1294H19.6326V12.0688ZM30.0512 19.7304C29.6484 20.5307 28.7607 21.0358 27.8039 21.0358C26.3874 21.0358 25.3991 20.1568 25.3991 18.8317C25.3991 17.5197 26.356 16.7654 28.1249 16.6538L30.0261 16.5358V15.9716C30.0261 15.1385 29.5036 14.6859 28.5719 14.6859C27.8039 14.6859 27.2436 15.0992 27.1303 15.7289H25.7579C25.802 14.4038 26.9981 13.4395 28.6159 13.4395C30.3597 13.4395 31.4928 14.3907 31.4928 15.8667V20.9571H30.0827V19.7304H30.0512ZM28.2125 19.8225C27.4004 19.8225 26.8842 19.4158 26.8842 18.7926C26.8842 18.1498 27.3815 17.7759 28.3321 17.7168L30.0255 17.6053V18.1826C30.0255 19.1403 29.2449 19.8225 28.2125 19.8225ZM36.1702 21.3571C35.5595 23.1479 34.8608 23.7383 33.3751 23.7383C33.2618 23.7383 32.8841 23.7251 32.796 23.6989V22.4722C32.8904 22.4853 33.1233 22.4985 33.2429 22.4985C33.9165 22.4985 34.2942 22.2033 34.5271 21.4358L34.6656 20.9831L32.0846 13.5378H33.6773L35.4714 19.5794H35.5029L37.297 13.5378H38.8456L36.1702 21.3571Z" fill="white"/>
</svg>
