<svg width="22" height="20" viewBox="0 0 22 20" fill="none" xmlns="http://www.w3.org/2000/svg">
<path d="M3.95117 6.62266C3.95117 5.8459 4.17565 5.18272 4.64672 4.70605L5.46597 5.53504C4.55414 6.45438 5.35045 9.3127 7.94666 11.9422C10.5429 14.5718 13.3693 15.3767 14.2803 14.4557L15.0995 15.2847C13.5626 16.8399 10.062 15.7365 7.13151 12.7704C5.09894 10.7129 3.95117 8.37844 3.95117 6.62266Z" fill="#009A46"/>
<path d="M9.11758 15.9996C8.34995 15.9996 7.69455 15.7724 7.22266 15.2958L8.04191 14.4668C8.9521 15.3878 11.7769 14.582 14.3755 11.9533C16.9742 9.32462 17.7689 6.46629 16.8587 5.54529L17.6779 4.71631C19.2157 6.27148 18.1244 9.81371 15.1932 12.779C13.1598 14.839 10.8528 15.9996 9.11758 15.9996Z" fill="#FF5805"/>
<path d="M15.464 11.5924C14.9667 10.1434 13.9509 8.59483 12.6032 7.23198C9.67273 4.26589 6.17207 3.16168 4.63515 4.71768C4.52619 4.82877 4.6204 5.10316 4.84652 5.33196C5.07263 5.56076 5.3438 5.65526 5.45276 5.54501C6.36377 4.62401 9.18855 5.42978 11.7864 8.0593C13.0153 9.30278 13.9312 10.6913 14.3728 11.9762C14.7595 13.1028 14.7218 14.0114 14.2712 14.4673C14.1614 14.5776 14.2564 14.8528 14.4817 15.0808C14.707 15.3087 14.979 15.4049 15.0888 15.2938C15.8761 14.4972 16.0096 13.1807 15.464 11.5924Z" fill="#F5AFCB"/>
<path d="M17.6762 4.71783C16.8873 3.91952 15.5879 3.7844 14.0166 4.33733C12.5854 4.83969 11.0542 5.86846 9.70736 7.2313C6.7769 10.1966 5.68565 13.7388 7.22257 15.2948C7.33235 15.4051 7.60352 15.3097 7.82963 15.0818C8.05575 14.8538 8.14996 14.5786 8.04018 14.4675C7.12754 13.5465 7.92631 10.6882 10.525 8.05863C11.7538 6.81515 13.1261 5.88835 14.3959 5.44153C15.5093 5.05108 16.4072 5.08839 16.8586 5.54433C16.9676 5.65458 17.2396 5.55925 17.4648 5.33045C17.6901 5.10165 17.7852 4.82809 17.6762 4.71783Z" fill="#FF9B00"/>
</svg>
