<svg width="45" height="33" viewBox="0 0 45 33" fill="none" xmlns="http://www.w3.org/2000/svg">
<rect x="0.5" y="1.18506" width="44" height="30.7647" rx="4.79412" fill="#1A1A1A" stroke="#333333"/>
<path d="M28.5586 7.34229C33.5149 7.34231 37.533 11.3122 37.5332 16.2095C37.5332 21.1069 33.515 25.0776 28.5586 25.0776C26.3362 25.0776 24.3038 24.2777 22.7363 22.9556C21.1691 24.2771 19.1379 25.0776 16.916 25.0776C11.9596 25.0776 7.94141 21.1069 7.94141 16.2095C7.94166 11.3122 11.9597 7.34229 16.916 7.34229C19.1377 7.34233 21.1691 8.14202 22.7363 9.46338C24.3037 8.14144 26.3363 7.34229 28.5586 7.34229Z" fill="#ED0006"/>
<path d="M28.5576 7.34229C33.5138 7.34248 37.5311 11.3123 37.5312 16.2095C37.5312 21.1068 33.5139 25.0774 28.5576 25.0776C26.3356 25.0776 24.3037 24.2773 22.7363 22.9556C24.6651 21.3291 25.8896 18.9114 25.8896 16.2095C25.8896 13.5073 24.6655 11.0888 22.7363 9.4624C24.3036 8.14109 26.336 7.34229 28.5576 7.34229Z" fill="#F9A000"/>
<path d="M22.7363 9.46289C24.6655 11.0894 25.8896 13.5078 25.8896 16.21C25.8896 18.9117 24.665 21.3286 22.7363 22.9551C20.8082 21.3286 19.584 18.9113 19.584 16.21C19.584 13.5082 20.8077 11.0894 22.7363 9.46289Z" fill="#FF5E00"/>
</svg>
