<svg width="20" height="24" viewBox="0 0 20 24" fill="none" xmlns="http://www.w3.org/2000/svg">
<g clip-path="url(#clip0_406_1021)">
<path d="M16.9664 1.8682C15.8778 0.606055 13.91 0.0649414 11.3926 0.0649414H4.08636C3.83728 0.0649023 3.59635 0.155276 3.40692 0.319807C3.21749 0.484337 3.092 0.712225 3.05301 0.962479L0.0108242 20.589C-0.0496445 20.976 0.244964 21.3265 0.630589 21.3265H5.14121L6.27402 14.0175L6.23886 14.2464C6.31956 13.7298 6.75394 13.3487 7.26831 13.3487H9.41175C13.6225 13.3487 16.9196 11.609 17.8828 6.57618C17.9113 6.42733 17.9361 6.28246 17.9575 6.14092C17.836 6.07544 17.836 6.07544 17.9575 6.14092C18.2443 4.28076 17.9556 3.01456 16.9664 1.8682Z" fill="#27346A"/>
<path d="M7.99996 5.47083C8.12324 5.41101 8.25813 5.38005 8.39472 5.38024H14.1227C14.801 5.38024 15.4336 5.42514 16.0117 5.51979C16.1735 5.54605 16.3345 5.57737 16.4943 5.61372C16.7209 5.66459 16.9449 5.72684 17.1654 5.80024C17.4496 5.89679 17.7143 6.00925 17.9576 6.14093C18.2443 4.28005 17.9556 3.01456 16.9664 1.8682C15.8772 0.606055 13.91 0.0649414 11.3926 0.0649414H4.08574C3.57129 0.0649414 3.13363 0.445922 3.05301 0.96248L0.0108246 20.5883C-0.0496441 20.976 0.244965 21.326 0.629965 21.326H5.14121L7.49144 6.1654C7.51457 6.0164 7.57293 5.87533 7.66151 5.75434C7.75009 5.63335 7.86624 5.53606 7.99996 5.47083Z" fill="#27346A"/>
<path d="M17.8822 6.57588C16.9191 11.6079 13.6221 13.3484 9.41123 13.3484H7.26717C6.75279 13.3484 6.31834 13.7295 6.23842 14.2461L4.82912 23.3339C4.77646 23.6726 5.03396 23.9796 5.37084 23.9796H9.17318C9.39099 23.9795 9.60164 23.9004 9.76723 23.7565C9.93282 23.6125 10.0425 23.4132 10.0765 23.1944L10.1136 22.9973L10.8302 18.3772L10.8764 18.1219C10.9104 17.9031 11.0201 17.7038 11.1857 17.5598C11.3512 17.4159 11.5619 17.3368 11.7797 17.3367H12.3487C16.0321 17.3367 18.9162 15.8145 19.759 11.4122C20.1108 9.57247 19.9288 8.03647 18.9982 6.95758C18.7159 6.6308 18.3654 6.36092 17.957 6.14062C17.9349 6.28288 17.9109 6.42704 17.8822 6.57588Z" fill="#2790C3"/>
<path d="M16.9493 5.73186C16.7992 5.68726 16.6476 5.64776 16.4948 5.61345C16.3349 5.57768 16.1739 5.54656 16.0122 5.52015C15.4335 5.42486 14.8013 5.37988 14.1224 5.37988H8.39512C8.25844 5.37965 8.12349 5.41087 8.00035 5.4712C7.86646 5.53619 7.75016 5.63341 7.66154 5.75444C7.57291 5.87547 7.51464 6.01666 7.49176 6.16577L6.27441 14.0173L6.23926 14.2461C6.31934 13.7295 6.75371 13.3484 7.26816 13.3484H9.41223C13.623 13.3484 16.92 11.6087 17.8832 6.57591C17.9118 6.42706 17.9359 6.28283 17.958 6.14065C17.7142 6.00979 17.4501 5.89644 17.1658 5.8006C17.0941 5.7764 17.0219 5.75349 16.9494 5.73186" fill="#1F264F"/>
</g>
<defs>
<clipPath id="clip0_406_1021">
<rect width="20" height="24" fill="white"/>
</clipPath>
</defs>
</svg>
