<svg width="22" height="22" viewBox="0 0 22 22" fill="none" xmlns="http://www.w3.org/2000/svg">
<g clip-path="url(#clip0_406_1030)">
<mask id="mask0_406_1030" style="mask-type:luminance" maskUnits="userSpaceOnUse" x="0" y="0" width="22" height="22">
<path d="M0 0H22V22H0V0Z" fill="white"/>
</mask>
<g mask="url(#mask0_406_1030)">
<path d="M19.7143 0H1.14285C0.514268 0 0 0.523797 0 1.16403V3.25925C0 3.89948 0.514268 4.42328 1.14285 4.42328H19.6571C20.2857 4.42328 20.8 3.89948 20.8 3.25925V1.16403C20.8572 0.523797 20.3428 0 19.7143 0ZM19.7143 11.6984H1.14285C0.514268 11.6984 0 12.2222 0 12.8624V14.9577C0 15.5979 0.514268 16.1217 1.14285 16.1217H19.6571C20.2857 16.1217 20.8 15.5979 20.8 14.9577V12.8624C20.8572 12.2222 20.3428 11.6984 19.7143 11.6984ZM11.6 17.5767H1.14285C0.514268 17.5767 0 18.1005 0 18.7407V20.836C0 21.4762 0.514268 22 1.14285 22H11.6C12.2286 22 12.7429 21.4762 12.7429 20.836V18.7407C12.7429 18.1005 12.2286 17.5767 11.6 17.5767ZM20.8572 5.87831H1.14285C0.514268 5.87831 0 6.40211 0 7.0423V9.13757C0 9.77776 0.514268 10.3016 1.14285 10.3016H20.8572C21.4857 10.3016 22 9.77776 22 9.13757V7.0423C22 6.40211 21.4857 5.87831 20.8572 5.87831Z" fill="#0BA4DB"/>
</g>
</g>
<defs>
<clipPath id="clip0_406_1030">
<rect width="22" height="22" fill="white"/>
</clipPath>
</defs>
</svg>
