<svg width="65" height="33" viewBox="0 0 65 33" fill="none" xmlns="http://www.w3.org/2000/svg">
<rect x="0.5" y="1.18506" width="64" height="31" rx="4.79412" fill="#1A1A1A" stroke="#333333"/>
<g clip-path="url(#clip0_385_890)">
<rect width="11" height="11" transform="translate(5 4.68506)" fill="#1A1A1A"/>
<path d="M13.7083 9.72705H7.29167C6.78541 9.72705 6.375 10.1375 6.375 10.6437V13.8521C6.375 14.3583 6.78541 14.7687 7.29167 14.7687H13.7083C14.2146 14.7687 14.625 14.3583 14.625 13.8521V10.6437C14.625 10.1375 14.2146 9.72705 13.7083 9.72705Z" stroke="white" stroke-width="0.916667" stroke-linecap="round" stroke-linejoin="round"/>
<path d="M8.20801 9.72705V7.89372C8.20801 7.28593 8.44945 6.70304 8.87922 6.27326C9.30899 5.84349 9.89189 5.60205 10.4997 5.60205C11.1075 5.60205 11.6904 5.84349 12.1201 6.27326C12.5499 6.70304 12.7913 7.28593 12.7913 7.89372V9.72705" stroke="white" stroke-width="0.916667" stroke-linecap="round" stroke-linejoin="round"/>
</g>
<path d="M21.278 13.7621C20.772 13.7621 20.3173 13.6741 19.914 13.4981C19.518 13.3147 19.2063 13.0654 18.979 12.7501C18.7517 12.4274 18.6343 12.0571 18.627 11.6391H19.694C19.7307 11.9984 19.8773 12.3027 20.134 12.5521C20.398 12.7941 20.7793 12.9151 21.278 12.9151C21.7547 12.9151 22.1287 12.7977 22.4 12.5631C22.6787 12.3211 22.818 12.0131 22.818 11.6391C22.818 11.3457 22.7373 11.1074 22.576 10.9241C22.4147 10.7407 22.213 10.6014 21.971 10.5061C21.729 10.4107 21.4027 10.3081 20.992 10.1981C20.486 10.0661 20.079 9.93406 19.771 9.80206C19.4703 9.67006 19.21 9.46473 18.99 9.18606C18.7773 8.90006 18.671 8.51873 18.671 8.04206C18.671 7.62406 18.7773 7.25372 18.99 6.93106C19.2027 6.60839 19.4997 6.35906 19.881 6.18306C20.2697 6.00706 20.7133 5.91906 21.212 5.91906C21.9307 5.91906 22.5173 6.09873 22.972 6.45806C23.434 6.81739 23.6943 7.29406 23.753 7.88806H22.653C22.6163 7.59472 22.4623 7.33806 22.191 7.11806C21.9197 6.89073 21.5603 6.77706 21.113 6.77706C20.695 6.77706 20.354 6.88706 20.09 7.10706C19.826 7.31973 19.694 7.62039 19.694 8.00906C19.694 8.28773 19.771 8.51506 19.925 8.69106C20.0863 8.86706 20.2807 9.00273 20.508 9.09806C20.7427 9.18606 21.069 9.28872 21.487 9.40606C21.993 9.54539 22.4 9.68473 22.708 9.82406C23.016 9.95606 23.28 10.1651 23.5 10.4511C23.72 10.7297 23.83 11.1111 23.83 11.5951C23.83 11.9691 23.731 12.3211 23.533 12.6511C23.335 12.9811 23.0417 13.2487 22.653 13.4541C22.2643 13.6594 21.806 13.7621 21.278 13.7621ZM30.8031 10.4401C30.8031 10.6307 30.7921 10.8324 30.7701 11.0451H25.9521C25.9887 11.6391 26.1904 12.1047 26.5571 12.4421C26.9311 12.7721 27.3821 12.9371 27.9101 12.9371C28.3427 12.9371 28.7021 12.8381 28.9881 12.6401C29.2814 12.4347 29.4867 12.1634 29.6041 11.8261H30.6821C30.5207 12.4054 30.1981 12.8784 29.7141 13.2451C29.2301 13.6044 28.6287 13.7841 27.9101 13.7841C27.3381 13.7841 26.8247 13.6557 26.3701 13.3991C25.9227 13.1424 25.5707 12.7794 25.3141 12.3101C25.0574 11.8334 24.9291 11.2834 24.9291 10.6601C24.9291 10.0367 25.0537 9.49039 25.3031 9.02106C25.5524 8.55172 25.9007 8.19239 26.3481 7.94306C26.8027 7.68639 27.3234 7.55806 27.9101 7.55806C28.4821 7.55806 28.9881 7.68272 29.4281 7.93206C29.8681 8.18139 30.2054 8.52606 30.4401 8.96606C30.6821 9.39873 30.8031 9.89006 30.8031 10.4401ZM29.7691 10.2311C29.7691 9.84973 29.6847 9.52339 29.5161 9.25206C29.3474 8.97339 29.1164 8.76439 28.8231 8.62506C28.5371 8.47839 28.2181 8.40506 27.8661 8.40506C27.3601 8.40506 26.9274 8.56639 26.5681 8.88906C26.2161 9.21173 26.0144 9.65906 25.9631 10.2311H29.7691ZM31.7503 10.6601C31.7503 10.0367 31.875 9.49406 32.1243 9.03206C32.3737 8.56273 32.7183 8.19973 33.1583 7.94306C33.6057 7.68639 34.1153 7.55806 34.6873 7.55806C35.428 7.55806 36.0367 7.73772 36.5133 8.09706C36.9973 8.45639 37.3163 8.95506 37.4703 9.59306H36.3923C36.2897 9.22639 36.088 8.93672 35.7873 8.72406C35.494 8.51139 35.1273 8.40506 34.6873 8.40506C34.1153 8.40506 33.6533 8.60306 33.3013 8.99906C32.9493 9.38772 32.7733 9.94139 32.7733 10.6601C32.7733 11.3861 32.9493 11.9471 33.3013 12.3431C33.6533 12.7391 34.1153 12.9371 34.6873 12.9371C35.1273 12.9371 35.494 12.8344 35.7873 12.6291C36.0807 12.4237 36.2823 12.1304 36.3923 11.7491H37.4703C37.309 12.3651 36.9863 12.8601 36.5023 13.2341C36.0183 13.6007 35.4133 13.7841 34.6873 13.7841C34.1153 13.7841 33.6057 13.6557 33.1583 13.3991C32.7183 13.1424 32.3737 12.7794 32.1243 12.3101C31.875 11.8407 31.7503 11.2907 31.7503 10.6601ZM44.152 7.65706V13.6851H43.151V12.7941C42.9603 13.1021 42.6927 13.3441 42.348 13.5201C42.0107 13.6887 41.6367 13.7731 41.226 13.7731C40.7567 13.7731 40.335 13.6777 39.961 13.4871C39.587 13.2891 39.29 12.9957 39.07 12.6071C38.8573 12.2184 38.751 11.7454 38.751 11.1881V7.65706H39.741V11.0561C39.741 11.6501 39.8913 12.1084 40.192 12.4311C40.4927 12.7464 40.9033 12.9041 41.424 12.9041C41.9593 12.9041 42.381 12.7391 42.689 12.4091C42.997 12.0791 43.151 11.5987 43.151 10.9681V7.65706H44.152ZM46.8431 8.63606C47.0191 8.29139 47.2685 8.02372 47.5911 7.83306C47.9211 7.64239 48.3208 7.54706 48.7901 7.54706V8.58106H48.5261C47.4041 8.58106 46.8431 9.18973 46.8431 10.4071V13.6851H45.8421V7.65706H46.8431V8.63606ZM55.4456 10.4401C55.4456 10.6307 55.4346 10.8324 55.4126 11.0451H50.5946C50.6313 11.6391 50.833 12.1047 51.1996 12.4421C51.5736 12.7721 52.0246 12.9371 52.5526 12.9371C52.9853 12.9371 53.3446 12.8381 53.6306 12.6401C53.924 12.4347 54.1293 12.1634 54.2466 11.8261H55.3246C55.1633 12.4054 54.8406 12.8784 54.3566 13.2451C53.8726 13.6044 53.2713 13.7841 52.5526 13.7841C51.9806 13.7841 51.4673 13.6557 51.0126 13.3991C50.5653 13.1424 50.2133 12.7794 49.9566 12.3101C49.7 11.8334 49.5716 11.2834 49.5716 10.6601C49.5716 10.0367 49.6963 9.49039 49.9456 9.02106C50.195 8.55172 50.5433 8.19239 50.9906 7.94306C51.4453 7.68639 51.966 7.55806 52.5526 7.55806C53.1246 7.55806 53.6306 7.68272 54.0706 7.93206C54.5106 8.18139 54.848 8.52606 55.0826 8.96606C55.3246 9.39873 55.4456 9.89006 55.4456 10.4401ZM54.4116 10.2311C54.4116 9.84973 54.3273 9.52339 54.1586 9.25206C53.99 8.97339 53.759 8.76439 53.4656 8.62506C53.1796 8.47839 52.8606 8.40506 52.5086 8.40506C52.0026 8.40506 51.57 8.56639 51.2106 8.88906C50.8586 9.21173 50.657 9.65906 50.6056 10.2311H54.4116Z" fill="white"/>
<path d="M11.8032 20.9011C11.8032 21.3491 11.6952 21.7691 11.4792 22.1611C11.2712 22.5531 10.9392 22.8691 10.4832 23.1091C10.0352 23.3491 9.46719 23.4691 8.77919 23.4691H7.37519V26.6851H5.69519V18.3091H8.77919C9.42719 18.3091 9.97919 18.4211 10.4352 18.6451C10.8912 18.8691 11.2312 19.1771 11.4552 19.5691C11.6872 19.9611 11.8032 20.4051 11.8032 20.9011ZM8.70719 22.1131C9.17119 22.1131 9.51519 22.0091 9.73919 21.8011C9.96319 21.5851 10.0752 21.2851 10.0752 20.9011C10.0752 20.0851 9.61919 19.6771 8.70719 19.6771H7.37519V22.1131H8.70719ZM12.564 23.3371C12.564 22.6651 12.696 22.0691 12.96 21.5491C13.232 21.0291 13.596 20.6291 14.052 20.3491C14.516 20.0691 15.032 19.9291 15.6 19.9291C16.096 19.9291 16.528 20.0291 16.896 20.2291C17.272 20.4291 17.572 20.6811 17.796 20.9851V20.0371H19.488V26.6851H17.796V25.7131C17.58 26.0251 17.28 26.2851 16.896 26.4931C16.52 26.6931 16.084 26.7931 15.588 26.7931C15.028 26.7931 14.516 26.6491 14.052 26.3611C13.596 26.0731 13.232 25.6691 12.96 25.1491C12.696 24.6211 12.564 24.0171 12.564 23.3371ZM17.796 23.3611C17.796 22.9531 17.716 22.6051 17.556 22.3171C17.396 22.0211 17.18 21.7971 16.908 21.6451C16.636 21.4851 16.344 21.4051 16.032 21.4051C15.72 21.4051 15.432 21.4811 15.168 21.6331C14.904 21.7851 14.688 22.0091 14.52 22.3051C14.36 22.5931 14.28 22.9371 14.28 23.3371C14.28 23.7371 14.36 24.0891 14.52 24.3931C14.688 24.6891 14.904 24.9171 15.168 25.0771C15.44 25.2371 15.728 25.3171 16.032 25.3171C16.344 25.3171 16.636 25.2411 16.908 25.0891C17.18 24.9291 17.396 24.7051 17.556 24.4171C17.716 24.1211 17.796 23.7691 17.796 23.3611ZM27.4888 20.0371L23.3728 29.8291H21.5848L23.0248 26.5171L20.3608 20.0371H22.2448L23.9608 24.6811L25.7008 20.0371H27.4888ZM36.6504 19.9411C37.4664 19.9411 38.1224 20.1931 38.6184 20.6971C39.1224 21.1931 39.3744 21.8891 39.3744 22.7851V26.6851H37.6944V23.0131C37.6944 22.4931 37.5624 22.0971 37.2984 21.8251C37.0344 21.5451 36.6744 21.4051 36.2184 21.4051C35.7624 21.4051 35.3984 21.5451 35.1264 21.8251C34.8624 22.0971 34.7304 22.4931 34.7304 23.0131V26.6851H33.0504V23.0131C33.0504 22.4931 32.9184 22.0971 32.6544 21.8251C32.3904 21.5451 32.0304 21.4051 31.5744 21.4051C31.1104 21.4051 30.7424 21.5451 30.4704 21.8251C30.2064 22.0971 30.0744 22.4931 30.0744 23.0131V26.6851H28.3944V20.0371H30.0744V20.8411C30.2904 20.5611 30.5664 20.3411 30.9024 20.1811C31.2464 20.0211 31.6224 19.9411 32.0304 19.9411C32.5504 19.9411 33.0144 20.0531 33.4224 20.2771C33.8304 20.4931 34.1464 20.8051 34.3704 21.2131C34.5864 20.8291 34.8984 20.5211 35.3064 20.2891C35.7224 20.0571 36.1704 19.9411 36.6504 19.9411ZM47.1486 23.2171C47.1486 23.4571 47.1326 23.6731 47.1006 23.8651H42.2406C42.2806 24.3451 42.4486 24.7211 42.7446 24.9931C43.0406 25.2651 43.4046 25.4011 43.8366 25.4011C44.4606 25.4011 44.9046 25.1331 45.1686 24.5971H46.9806C46.7886 25.2371 46.4206 25.7651 45.8766 26.1811C45.3326 26.5891 44.6646 26.7931 43.8726 26.7931C43.2326 26.7931 42.6566 26.6531 42.1446 26.3731C41.6406 26.0851 41.2446 25.6811 40.9566 25.1611C40.6766 24.6411 40.5366 24.0411 40.5366 23.3611C40.5366 22.6731 40.6766 22.0691 40.9566 21.5491C41.2366 21.0291 41.6286 20.6291 42.1326 20.3491C42.6366 20.0691 43.2166 19.9291 43.8726 19.9291C44.5046 19.9291 45.0686 20.0651 45.5646 20.3371C46.0686 20.6091 46.4566 20.9971 46.7286 21.5011C47.0086 21.9971 47.1486 22.5691 47.1486 23.2171ZM45.4086 22.7371C45.4006 22.3051 45.2446 21.9611 44.9406 21.7051C44.6366 21.4411 44.2646 21.3091 43.8246 21.3091C43.4086 21.3091 43.0566 21.4371 42.7686 21.6931C42.4886 21.9411 42.3166 22.2891 42.2526 22.7371H45.4086ZM52.0589 19.9411C52.8509 19.9411 53.4909 20.1931 53.9789 20.6971C54.4669 21.1931 54.7109 21.8891 54.7109 22.7851V26.6851H53.0309V23.0131C53.0309 22.4851 52.8989 22.0811 52.6349 21.8011C52.3709 21.5131 52.0109 21.3691 51.5549 21.3691C51.0909 21.3691 50.7229 21.5131 50.4509 21.8011C50.1869 22.0811 50.0549 22.4851 50.0549 23.0131V26.6851H48.3749V20.0371H50.0549V20.8651C50.2789 20.5771 50.5629 20.3531 50.9069 20.1931C51.2589 20.0251 51.6429 19.9411 52.0589 19.9411ZM58.2645 21.4171V24.6331C58.2645 24.8571 58.3165 25.0211 58.4205 25.1251C58.5325 25.2211 58.7165 25.2691 58.9725 25.2691H59.7525V26.6851H58.6965C57.2805 26.6851 56.5725 25.9971 56.5725 24.6211V21.4171H55.7805V20.0371H56.5725V18.3931H58.2645V20.0371H59.7525V21.4171H58.2645Z" fill="white"/>
<defs>
<clipPath id="clip0_385_890">
<rect width="11" height="11" fill="white" transform="translate(5 4.68506)"/>
</clipPath>
</defs>
</svg>
