<svg width="45" height="33" viewBox="0 0 45 33" fill="none" xmlns="http://www.w3.org/2000/svg">
<rect x="0.5" y="1.18506" width="44" height="30.7647" rx="4.79412" fill="#1A1A1A" stroke="#333333"/>
<path fill-rule="evenodd" clip-rule="evenodd" d="M14.228 21.6739H11.5019L9.45762 13.6456C9.36059 13.2763 9.15457 12.9498 8.85152 12.7959C8.09522 12.4092 7.26183 12.1014 6.35268 11.9462V11.6371H10.7443C11.3504 11.6371 11.8049 12.1014 11.8807 12.6407L12.9414 18.4318L15.6662 11.6371H18.3165L14.228 21.6739ZM19.8315 21.6739H17.2569L19.377 11.6371H21.9516L19.8315 21.6739ZM25.2825 14.4177C25.3583 13.8772 25.8128 13.5681 26.3432 13.5681C27.1766 13.4905 28.0844 13.6457 28.842 14.0311L29.2966 11.8701C28.539 11.561 27.7056 11.4058 26.9493 11.4058C24.4504 11.4058 22.6321 12.796 22.6321 14.7255C22.6321 16.1934 23.9201 16.9641 24.8292 17.4284C25.8128 17.8914 26.1916 18.2004 26.1159 18.6634C26.1159 19.3579 25.3583 19.667 24.602 19.667C23.6928 19.667 22.7836 19.4355 21.9516 19.0488L21.497 21.2111C22.4062 21.5964 23.3898 21.7517 24.2989 21.7517C27.1008 21.8279 28.842 20.439 28.842 18.3543C28.842 15.729 25.2825 15.5752 25.2825 14.4177V14.4177ZM37.8529 21.6739L35.8087 11.6371H33.6129C33.1583 11.6371 32.7037 11.9462 32.5522 12.4092L28.7667 21.6739H31.4171L31.9461 20.2074H35.2026L35.5056 21.6739H37.8529ZM33.9912 14.3404L34.7475 18.1231H32.6275L33.9912 14.3404Z" fill="white"/>
</svg>
