<svg width="413" height="46" viewBox="0 0 413 46" fill="none" xmlns="http://www.w3.org/2000/svg">
<path d="M778 382.5C778 593.749 606.749 765 395.5 765C184.251 765 13 593.749 13 382.5C13 171.251 184.251 0 395.5 0C606.749 0 778 171.251 778 382.5ZM213.068 382.5C213.068 483.254 294.746 564.932 395.5 564.932C496.254 564.932 577.932 483.254 577.932 382.5C577.932 281.746 496.254 200.068 395.5 200.068C294.746 200.068 213.068 281.746 213.068 382.5Z" fill="#EFDD76"/>
<path d="M765 405.5C765 616.749 593.749 788 382.5 788C171.251 788 0 616.749 0 405.5C0 194.251 171.251 23 382.5 23C593.749 23 765 194.251 765 405.5ZM200.068 405.5C200.068 506.254 281.746 587.932 382.5 587.932C483.254 587.932 564.932 506.254 564.932 405.5C564.932 304.746 483.254 223.068 382.5 223.068C281.746 223.068 200.068 304.746 200.068 405.5Z" fill="#16A249"/>
</svg>
