<?xml version="1.0" encoding="UTF-8"?>
<!DOCTYPE svg PUBLIC "-//W3C//DTD SVG 1.1//EN" "http://www.w3.org/Graphics/SVG/1.1/DTD/svg11.dtd">
<svg xmlns="http://www.w3.org/2000/svg" version="1.1" width="99px" height="128px" style="shape-rendering:geometricPrecision; text-rendering:geometricPrecision; image-rendering:optimizeQuality; fill-rule:evenodd; clip-rule:evenodd" xmlns:xlink="http://www.w3.org/1999/xlink">
<g><path style="opacity:0.98" fill="#bee5c0" d="M 84.5,8.5 C 82.4352,8.51715 80.4352,8.85048 78.5,9.5C 79.1342,8.05322 80.3009,7.38655 82,7.5C 83.0698,7.52804 83.9032,7.86137 84.5,8.5 Z"/></g>
<g><path style="opacity:1" fill="#60bf62" d="M 84.5,8.5 C 85.2216,8.91753 85.7216,9.5842 86,10.5C 86.1667,14.6667 86.3333,18.8333 86.5,23C 86.6119,27.9435 86.1119,32.7768 85,37.5C 73.586,47.1156 61.7527,56.1156 49.5,64.5C 48.8826,64.6107 48.3826,64.944 48,65.5C 47.1689,72.5237 47.3356,79.5237 48.5,86.5C 49.5223,86.1445 50.189,85.4778 50.5,84.5C 58.7656,78.3543 67.0989,72.1876 75.5,66C 77.8175,64.0073 80.4842,62.8406 83.5,62.5C 83.8333,63.5 84.5,64.1667 85.5,64.5C 86.6357,73.0884 86.8023,81.7551 86,90.5C 85.7508,91.624 85.2508,92.624 84.5,93.5C 72.1273,102.376 59.6273,111.043 47,119.5C 46.1268,119.265 45.2935,118.931 44.5,118.5C 43.6681,109.852 43.1681,101.186 43,92.5C 33.6022,84.2596 24.1022,76.2596 14.5,68.5C 14.0269,67.0937 13.0269,66.427 11.5,66.5C 10.2058,65.7101 9.0391,64.7101 8,63.5C 7.33333,54.1667 7.33333,44.8333 8,35.5C 10.4076,33.3763 12.9076,33.543 15.5,36C 24.5,43.1667 33.5,50.3333 42.5,57.5C 43.3316,49.5207 43.8316,41.5207 44,33.5C 55.38,25.2798 66.88,17.2798 78.5,9.5C 80.4352,8.85048 82.4352,8.51715 84.5,8.5 Z M 79.5,15.5 C 80.8086,22.0678 80.8086,28.7344 79.5,35.5C 69.6153,42.602 59.9486,49.9354 50.5,57.5C 49.5088,50.6866 49.1755,43.6866 49.5,36.5C 59.5,29.5 69.5,22.5 79.5,15.5 Z M 14.5,42.5 C 16.0905,44.6326 18.0905,46.2993 20.5,47.5C 20.9731,48.9063 21.9731,49.573 23.5,49.5C 29.8108,54.9691 36.3108,60.3024 43,65.5C 43.82,72.0137 43.6533,78.3471 42.5,84.5C 42.0269,83.0937 41.0269,82.427 39.5,82.5C 38.8333,81.1667 37.8333,80.1667 36.5,79.5C 36.0269,78.0937 35.0269,77.427 33.5,77.5C 33.1667,76.5 32.5,75.8333 31.5,75.5C 31.0269,74.0937 30.0269,73.427 28.5,73.5C 24.153,69.1549 19.4863,65.1549 14.5,61.5C 13.1927,55.0676 13.1927,48.7343 14.5,42.5 Z M 78.5,70.5 C 79.8182,73.2575 80.4848,76.4242 80.5,80C 80.4629,83.5829 80.1295,87.0829 79.5,90.5C 77.9731,90.427 76.9731,91.0937 76.5,92.5C 74.9731,92.427 73.9731,93.0937 73.5,94.5C 65.8333,99.8333 58.1667,105.167 50.5,110.5C 49.8333,110.167 49.1667,109.833 48.5,109.5C 48.2114,103.409 48.5447,97.4093 49.5,91.5C 59.4699,84.8552 69.1365,77.8552 78.5,70.5 Z"/></g>
<g><path style="opacity:0.993" fill="#9dd9a2" d="M 79.5,35.5 C 80.8086,28.7344 80.8086,22.0678 79.5,15.5C 79.7828,14.7109 80.2828,14.0442 81,13.5C 81.1667,17.1667 81.3333,20.8333 81.5,24.5C 81.4888,28.5652 80.8222,32.2319 79.5,35.5 Z"/></g>
<g><path style="opacity:0.05" fill="#fbfdfb" d="M 49.5,36.5 C 49.1755,43.6866 49.5088,50.6866 50.5,57.5C 50.44,58.0431 50.1067,58.3764 49.5,58.5C 48.1806,51.0102 48.1806,43.6769 49.5,36.5 Z"/></g>
<g><path style="opacity:0.992" fill="#bee5c0" d="M 20.5,47.5 C 22.0269,47.427 23.0269,48.0937 23.5,49.5C 21.9731,49.573 20.9731,48.9063 20.5,47.5 Z"/></g>
<g><path style="opacity:0.025" fill="#fbfbfb" d="M 14.5,42.5 C 13.1927,48.7343 13.1927,55.0676 14.5,61.5C 13.1803,58.572 12.5136,55.2386 12.5,51.5C 12.8333,48.1667 13.1667,44.8333 13.5,41.5C 14.1067,41.6236 14.44,41.9569 14.5,42.5 Z"/></g>
<g><path style="opacity:0.004" fill="#d7f0d8" d="M 83.5,62.5 C 84.8333,62.5 85.5,63.1667 85.5,64.5C 84.5,64.1667 83.8333,63.5 83.5,62.5 Z"/></g>
<g><path style="opacity:1" fill="#aadeac" d="M 49.5,64.5 C 49.7198,70.3693 49.3864,76.2026 48.5,82C 48.6842,83.3756 49.3509,84.2089 50.5,84.5C 50.189,85.4778 49.5223,86.1445 48.5,86.5C 47.3356,79.5237 47.1689,72.5237 48,65.5C 48.3826,64.944 48.8826,64.6107 49.5,64.5 Z"/></g>
<g><path style="opacity:0.988" fill="#c0e6c2" d="M 11.5,66.5 C 13.0269,66.427 14.0269,67.0937 14.5,68.5C 12.9731,68.573 11.9731,67.9063 11.5,66.5 Z"/></g>
<g><path style="opacity:0.994" fill="#a0daa4" d="M 79.5,90.5 C 80.1295,87.0829 80.4629,83.5829 80.5,80C 80.4848,76.4242 79.8182,73.2575 78.5,70.5C 78.811,69.5222 79.4777,68.8555 80.5,68.5C 80.8333,72.1667 81.1667,75.8333 81.5,79.5C 81.4888,83.5652 80.8222,87.2319 79.5,90.5 Z"/></g>
<g><path style="opacity:0.008" fill="#dff3e0" d="M 28.5,73.5 C 30.0269,73.427 31.0269,74.0937 31.5,75.5C 29.9731,75.573 28.9731,74.9063 28.5,73.5 Z"/></g>
<g><path style="opacity:0.004" fill="#e6f5e7" d="M 33.5,77.5 C 35.0269,77.427 36.0269,78.0937 36.5,79.5C 34.9731,79.573 33.9731,78.9063 33.5,77.5 Z"/></g>
<g><path style="opacity:0.008" fill="#dbf1db" d="M 39.5,82.5 C 41.0269,82.427 42.0269,83.0937 42.5,84.5C 40.9731,84.573 39.9731,83.9063 39.5,82.5 Z"/></g>
<g><path style="opacity:0.999" fill="#89d18e" d="M 49.5,91.5 C 48.5447,97.4093 48.2114,103.409 48.5,109.5C 48.5,110.5 48.5,111.5 48.5,112.5C 47.8348,109.183 47.5014,105.683 47.5,102C 47.5123,98.0982 48.179,94.5982 49.5,91.5 Z"/></g>
<g><path style="opacity:0.996" fill="#bfe6c0" d="M 76.5,92.5 C 76.0269,93.9063 75.0269,94.573 73.5,94.5C 73.9731,93.0937 74.9731,92.427 76.5,92.5 Z"/></g>
<g><path style="opacity:0.014" fill="#f3fbf3" d="M 48.5,109.5 C 49.1667,109.833 49.8333,110.167 50.5,110.5C 50.1667,111.5 49.5,112.167 48.5,112.5C 48.5,111.5 48.5,110.5 48.5,109.5 Z"/></g>
</svg>
