<svg width="116" height="44" viewBox="0 0 116 44" fill="none" xmlns="http://www.w3.org/2000/svg">
<path d="M14.79 22.2618L28.9651 11.544C29.0524 11.478 29.1037 11.3749 29.1037 11.2655V1.98949C29.1037 1.70627 28.7842 1.54092 28.553 1.70447L14.9375 11.3349C14.845 11.4003 14.79 11.5066 14.79 11.6199V22.2618ZM14.79 22.2618V32.5606M14.79 22.2618L1.56465 11.8824C1.33556 11.7026 1 11.8658 1 12.157L1 21.2225C1 21.3278 1.04753 21.4275 1.12935 21.4938L14.79 32.5606M14.79 32.5606L28.5507 22.6597C28.7816 22.4935 29.1037 22.6586 29.1037 22.9431V32.38C29.1037 32.4933 29.0487 32.5995 28.9562 32.665L15.3407 42.2954C15.1095 42.459 14.79 42.2936 14.79 42.0104V32.5606Z" stroke="#3CB446" stroke-width="1.74557"/>
<path d="M36.8441 17.7959L34.9487 12.1259H35.783L37.5245 17.3585H37.1033L38.9096 12.1259H39.6548L41.4206 17.3585H41.0156L42.7814 12.1259H43.5509L41.6555 17.7959H40.805L39.1526 12.944H39.3713L37.7108 17.7959H36.8441ZM44.4283 17.7959V13.5029H45.2059V17.7959H44.4283ZM44.8171 12.6767C44.6659 12.6767 44.539 12.6281 44.4364 12.5309C44.3392 12.4337 44.2906 12.3149 44.2906 12.1745C44.2906 12.0287 44.3392 11.9072 44.4364 11.81C44.539 11.7128 44.6659 11.6642 44.8171 11.6642C44.9683 11.6642 45.0925 11.7128 45.1897 11.81C45.2923 11.9018 45.3436 12.0179 45.3436 12.1583C45.3436 12.3041 45.295 12.4283 45.1978 12.5309C45.1006 12.6281 44.9737 12.6767 44.8171 12.6767ZM48.4645 17.8445C48.0487 17.8445 47.6761 17.7527 47.3467 17.5691C47.0227 17.3855 46.7662 17.129 46.5772 16.7996C46.3882 16.4702 46.2937 16.0868 46.2937 15.6494C46.2937 15.212 46.3882 14.8313 46.5772 14.5073C46.7662 14.1779 47.0227 13.9214 47.3467 13.7378C47.6761 13.5542 48.0487 13.4624 48.4645 13.4624C48.8263 13.4624 49.153 13.5434 49.4446 13.7054C49.7362 13.8674 49.9684 14.1104 50.1412 14.4344C50.3194 14.7584 50.4085 15.1634 50.4085 15.6494C50.4085 16.1354 50.3221 16.5404 50.1493 16.8644C49.9819 17.1884 49.7524 17.4341 49.4608 17.6015C49.1692 17.7635 48.8371 17.8445 48.4645 17.8445ZM48.5293 17.1641C48.7993 17.1641 49.0423 17.102 49.2583 16.9778C49.4797 16.8536 49.6525 16.6781 49.7767 16.4513C49.9063 16.2191 49.9711 15.9518 49.9711 15.6494C49.9711 15.3416 49.9063 15.077 49.7767 14.8556C49.6525 14.6288 49.4797 14.4533 49.2583 14.3291C49.0423 14.2049 48.7993 14.1428 48.5293 14.1428C48.2539 14.1428 48.0082 14.2049 47.7922 14.3291C47.5762 14.4533 47.4034 14.6288 47.2738 14.8556C47.1442 15.077 47.0794 15.3416 47.0794 15.6494C47.0794 15.9518 47.1442 16.2191 47.2738 16.4513C47.4034 16.6781 47.5762 16.8536 47.7922 16.9778C48.0082 17.102 48.2539 17.1641 48.5293 17.1641ZM49.9954 17.7959V16.6376L50.044 15.6413L49.963 14.645V11.7857H50.7406V17.7959H49.9954ZM54.1235 17.8445C53.6645 17.8445 53.2595 17.75 52.9085 17.561C52.5629 17.372 52.2929 17.1128 52.0985 16.7834C51.9095 16.454 51.815 16.076 51.815 15.6494C51.815 15.2228 51.9068 14.8448 52.0904 14.5154C52.2794 14.186 52.5359 13.9295 52.8599 13.7459C53.1893 13.5569 53.5592 13.4624 53.9696 13.4624C54.3854 13.4624 54.7526 13.5542 55.0712 13.7378C55.3898 13.9214 55.6382 14.1806 55.8164 14.5154C56 14.8448 56.0918 15.2309 56.0918 15.6737C56.0918 15.7061 56.0891 15.7439 56.0837 15.7871C56.0837 15.8303 56.081 15.8708 56.0756 15.9086H52.4225V15.3497H55.6706L55.3547 15.5441C55.3601 15.2687 55.3034 15.023 55.1846 14.807C55.0658 14.591 54.9011 14.4236 54.6905 14.3048C54.4853 14.1806 54.245 14.1185 53.9696 14.1185C53.6996 14.1185 53.4593 14.1806 53.2487 14.3048C53.0381 14.4236 52.8734 14.5937 52.7546 14.8151C52.6358 15.0311 52.5764 15.2795 52.5764 15.5603V15.6899C52.5764 15.9761 52.6412 16.2326 52.7708 16.4594C52.9058 16.6808 53.0921 16.8536 53.3297 16.9778C53.5673 17.102 53.84 17.1641 54.1478 17.1641C54.4016 17.1641 54.6311 17.1209 54.8363 17.0345C55.0469 16.9481 55.2305 16.8185 55.3871 16.6457L55.8164 17.1479C55.622 17.3747 55.379 17.5475 55.0874 17.6663C54.8012 17.7851 54.4799 17.8445 54.1235 17.8445ZM57.1716 17.7959V13.5029H57.9168V14.6693L57.8439 14.3777C57.9627 14.0807 58.1625 13.8539 58.4433 13.6973C58.7241 13.5407 59.0697 13.4624 59.4801 13.4624V14.2157C59.4477 14.2103 59.4153 14.2076 59.3829 14.2076C59.3559 14.2076 59.3289 14.2076 59.3019 14.2076C58.8861 14.2076 58.5567 14.3318 58.3137 14.5802C58.0707 14.8286 57.9492 15.1877 57.9492 15.6575V17.7959H57.1716ZM62.7825 17.7959V12.1259H63.4467L67.197 16.7834H66.8487V12.1259H67.6587V17.7959H66.9945L63.2442 13.1384H63.5925V17.7959H62.7825ZM71.1541 17.8445C70.6951 17.8445 70.2901 17.75 69.9391 17.561C69.5935 17.372 69.3235 17.1128 69.1291 16.7834C68.9401 16.454 68.8456 16.076 68.8456 15.6494C68.8456 15.2228 68.9374 14.8448 69.121 14.5154C69.31 14.186 69.5665 13.9295 69.8905 13.7459C70.2199 13.5569 70.5898 13.4624 71.0002 13.4624C71.416 13.4624 71.7832 13.5542 72.1018 13.7378C72.4204 13.9214 72.6688 14.1806 72.847 14.5154C73.0306 14.8448 73.1224 15.2309 73.1224 15.6737C73.1224 15.7061 73.1197 15.7439 73.1143 15.7871C73.1143 15.8303 73.1116 15.8708 73.1062 15.9086H69.4531V15.3497H72.7012L72.3853 15.5441C72.3907 15.2687 72.334 15.023 72.2152 14.807C72.0964 14.591 71.9317 14.4236 71.7211 14.3048C71.5159 14.1806 71.2756 14.1185 71.0002 14.1185C70.7302 14.1185 70.4899 14.1806 70.2793 14.3048C70.0687 14.4236 69.904 14.5937 69.7852 14.8151C69.6664 15.0311 69.607 15.2795 69.607 15.5603V15.6899C69.607 15.9761 69.6718 16.2326 69.8014 16.4594C69.9364 16.6808 70.1227 16.8536 70.3603 16.9778C70.5979 17.102 70.8706 17.1641 71.1784 17.1641C71.4322 17.1641 71.6617 17.1209 71.8669 17.0345C72.0775 16.9481 72.2611 16.8185 72.4177 16.6457L72.847 17.1479C72.6526 17.3747 72.4096 17.5475 72.118 17.6663C71.8318 17.7851 71.5105 17.8445 71.1541 17.8445ZM75.6763 17.8445C75.2443 17.8445 74.9095 17.7284 74.6719 17.4962C74.4343 17.264 74.3155 16.9319 74.3155 16.4999V12.5633H75.0931V16.4675C75.0931 16.6997 75.1498 16.8779 75.2632 17.0021C75.382 17.1263 75.5494 17.1884 75.7654 17.1884C76.0084 17.1884 76.2109 17.1209 76.3729 16.9859L76.6159 17.5448C76.4971 17.6474 76.354 17.723 76.1866 17.7716C76.0246 17.8202 75.8545 17.8445 75.6763 17.8445ZM73.5865 14.1428V13.5029H76.3243V14.1428H73.5865ZM78.3984 14.807H81.3225V15.5036H78.3984V14.807ZM78.4794 17.7959H77.6694V12.1259H81.6708V12.8306H78.4794V17.7959ZM85.2043 17.7959V16.8887L85.1638 16.7186V15.1715C85.1638 14.8421 85.0666 14.5883 84.8722 14.4101C84.6832 14.2265 84.397 14.1347 84.0136 14.1347C83.7598 14.1347 83.5114 14.1779 83.2684 14.2643C83.0254 14.3453 82.8202 14.456 82.6528 14.5964L82.3288 14.0132C82.5502 13.835 82.8148 13.7 83.1226 13.6082C83.4358 13.511 83.7625 13.4624 84.1027 13.4624C84.6913 13.4624 85.1449 13.6055 85.4635 13.8917C85.7821 14.1779 85.9414 14.6153 85.9414 15.2039V17.7959H85.2043ZM83.7949 17.8445C83.4763 17.8445 83.1955 17.7905 82.9525 17.6825C82.7149 17.5745 82.5313 17.426 82.4017 17.237C82.2721 17.0426 82.2073 16.8239 82.2073 16.5809C82.2073 16.3487 82.2613 16.1381 82.3693 15.9491C82.4827 15.7601 82.6636 15.6089 82.912 15.4955C83.1658 15.3821 83.506 15.3254 83.9326 15.3254H85.2934V15.8843H83.965C83.5762 15.8843 83.3143 15.9491 83.1793 16.0787C83.0443 16.2083 82.9768 16.3649 82.9768 16.5485C82.9768 16.7591 83.0605 16.9292 83.2279 17.0588C83.3953 17.183 83.6275 17.2451 83.9245 17.2451C84.2161 17.2451 84.4699 17.1803 84.6859 17.0507C84.9073 16.9211 85.0666 16.7321 85.1638 16.4837L85.3177 17.0183C85.2151 17.2721 85.0342 17.4746 84.775 17.6258C84.5158 17.7716 84.1891 17.8445 83.7949 17.8445ZM87.3805 17.7959V13.5029H88.1257V14.6693L88.0528 14.3777C88.1716 14.0807 88.3714 13.8539 88.6522 13.6973C88.933 13.5407 89.2786 13.4624 89.689 13.4624V14.2157C89.6566 14.2103 89.6242 14.2076 89.5918 14.2076C89.5648 14.2076 89.5378 14.2076 89.5108 14.2076C89.095 14.2076 88.7656 14.3318 88.5226 14.5802C88.2796 14.8286 88.1581 15.1877 88.1581 15.6575V17.7959H87.3805ZM96.0177 13.4624C96.3633 13.4624 96.6684 13.5299 96.933 13.6649C97.1976 13.7999 97.4028 14.0051 97.5486 14.2805C97.6998 14.5559 97.7754 14.9042 97.7754 15.3254V17.7959H96.9978V15.4145C96.9978 14.9987 96.9006 14.6855 96.7062 14.4749C96.5118 14.2643 96.2391 14.159 95.8881 14.159C95.6289 14.159 95.4021 14.213 95.2077 14.321C95.0133 14.429 94.8621 14.5883 94.7541 14.7989C94.6515 15.0095 94.6002 15.2714 94.6002 15.5846V17.7959H93.8226V15.4145C93.8226 14.9987 93.7254 14.6855 93.531 14.4749C93.342 14.2643 93.0693 14.159 92.7129 14.159C92.4591 14.159 92.235 14.213 92.0406 14.321C91.8462 14.429 91.695 14.5883 91.587 14.7989C91.479 15.0095 91.425 15.2714 91.425 15.5846V17.7959H90.6474V13.5029H91.3926V14.645L91.2711 14.3534C91.4061 14.0726 91.614 13.8539 91.8948 13.6973C92.1756 13.5407 92.5023 13.4624 92.8749 13.4624C93.2853 13.4624 93.639 13.565 93.936 13.7702C94.233 13.97 94.4274 14.2751 94.5192 14.6855L94.2033 14.5559C94.3329 14.2265 94.5597 13.9619 94.8837 13.7621C95.2077 13.5623 95.5857 13.4624 96.0177 13.4624ZM100.437 17.8445C100.081 17.8445 99.7407 17.7959 99.4167 17.6987C99.0981 17.6015 98.847 17.4827 98.6634 17.3423L98.9874 16.7267C99.171 16.8509 99.3978 16.9562 99.6678 17.0426C99.9378 17.129 100.213 17.1722 100.494 17.1722C100.856 17.1722 101.115 17.1209 101.272 17.0183C101.434 16.9157 101.515 16.7726 101.515 16.589C101.515 16.454 101.466 16.3487 101.369 16.2731C101.272 16.1975 101.142 16.1408 100.98 16.103C100.823 16.0652 100.648 16.0328 100.454 16.0058C100.259 15.9734 100.065 15.9356 99.8703 15.8924C99.6759 15.8438 99.4977 15.779 99.3357 15.698C99.1737 15.6116 99.0441 15.4955 98.9469 15.3497C98.8497 15.1985 98.8011 14.9987 98.8011 14.7503C98.8011 14.4911 98.874 14.2643 99.0198 14.0699C99.1656 13.8755 99.3708 13.727 99.6354 13.6244C99.9054 13.5164 100.224 13.4624 100.591 13.4624C100.872 13.4624 101.156 13.4975 101.442 13.5677C101.733 13.6325 101.971 13.727 102.155 13.8512L101.822 14.4668C101.628 14.3372 101.426 14.2481 101.215 14.1995C101.004 14.1509 100.794 14.1266 100.583 14.1266C100.243 14.1266 99.9891 14.1833 99.8217 14.2967C99.6543 14.4047 99.5706 14.5451 99.5706 14.7179C99.5706 14.8637 99.6192 14.9771 99.7164 15.0581C99.819 15.1337 99.9486 15.1931 100.105 15.2363C100.267 15.2795 100.445 15.3173 100.64 15.3497C100.834 15.3767 101.029 15.4145 101.223 15.4631C101.417 15.5063 101.593 15.5684 101.75 15.6494C101.912 15.7304 102.041 15.8438 102.138 15.9896C102.241 16.1354 102.292 16.3298 102.292 16.5728C102.292 16.832 102.217 17.0561 102.065 17.2451C101.914 17.4341 101.701 17.5826 101.426 17.6906C101.15 17.7932 100.821 17.8445 100.437 17.8445Z" fill="white"/>
<path d="M35.4187 25.3491V20.4873H37.4676C37.9862 20.4873 38.4423 20.5892 38.8359 20.7929C39.2341 20.9966 39.542 21.2814 39.7596 21.6472C39.9819 22.013 40.093 22.4367 40.093 22.9182C40.093 23.3998 39.9819 23.8234 39.7596 24.1892C39.542 24.555 39.2341 24.8398 38.8359 25.0435C38.4423 25.2473 37.9862 25.3491 37.4676 25.3491H35.4187ZM36.1133 24.7449H37.426C37.8288 24.7449 38.1761 24.6685 38.4678 24.5157C38.7641 24.3629 38.9933 24.1499 39.1554 23.8767C39.3174 23.5989 39.3985 23.2794 39.3985 22.9182C39.3985 22.5524 39.3174 22.2329 39.1554 21.9597C38.9933 21.6865 38.7641 21.4736 38.4678 21.3208C38.1761 21.168 37.8288 21.0916 37.426 21.0916H36.1133V24.7449ZM41.0596 25.3491V21.668H41.7264V25.3491H41.0596ZM41.393 20.9596C41.2634 20.9596 41.1546 20.9179 41.0666 20.8346C40.9832 20.7512 40.9416 20.6494 40.9416 20.529C40.9416 20.404 40.9832 20.2998 41.0666 20.2164C41.1546 20.1331 41.2634 20.0914 41.393 20.0914C41.5227 20.0914 41.6292 20.1331 41.7125 20.2164C41.8005 20.2951 41.8445 20.3947 41.8445 20.5151C41.8445 20.6401 41.8028 20.7466 41.7195 20.8346C41.6361 20.9179 41.5273 20.9596 41.393 20.9596ZM44.6108 26.7382C44.2728 26.7382 43.9441 26.6896 43.6246 26.5924C43.3097 26.4998 43.0527 26.3655 42.8536 26.1895L43.1731 25.6756C43.3444 25.8237 43.5551 25.9395 43.8052 26.0228C44.0552 26.1108 44.3168 26.1548 44.59 26.1548C45.0252 26.1548 45.3447 26.0529 45.5485 25.8492C45.7522 25.6455 45.8541 25.3352 45.8541 24.9185V24.1406L45.9235 23.4113L45.8888 22.6751V21.668H46.5208V24.849C46.5208 25.4973 46.3588 25.9742 46.0346 26.2798C45.7105 26.5854 45.2359 26.7382 44.6108 26.7382ZM44.5275 25.1963C44.1709 25.1963 43.8515 25.1222 43.569 24.9741C43.2912 24.8213 43.0689 24.6106 42.9022 24.342C42.7402 24.0735 42.6592 23.7632 42.6592 23.4113C42.6592 23.0548 42.7402 22.7446 42.9022 22.4806C43.0689 22.2121 43.2912 22.0037 43.569 21.8556C43.8515 21.7074 44.1709 21.6333 44.5275 21.6333C44.8423 21.6333 45.1294 21.6981 45.3887 21.8278C45.648 21.9528 45.8541 22.1473 46.0069 22.4112C46.1643 22.6751 46.243 23.0085 46.243 23.4113C46.243 23.8095 46.1643 24.1406 46.0069 24.4045C45.8541 24.6685 45.648 24.8676 45.3887 25.0018C45.1294 25.1315 44.8423 25.1963 44.5275 25.1963ZM44.6039 24.6129C44.8493 24.6129 45.0669 24.562 45.2568 24.4601C45.4466 24.3582 45.5948 24.217 45.7013 24.0364C45.8124 23.8558 45.868 23.6475 45.868 23.4113C45.868 23.1752 45.8124 22.9668 45.7013 22.7862C45.5948 22.6057 45.4466 22.4668 45.2568 22.3695C45.0669 22.2677 44.8493 22.2167 44.6039 22.2167C44.3585 22.2167 44.1385 22.2677 43.9441 22.3695C43.7542 22.4668 43.6037 22.6057 43.4926 22.7862C43.3861 22.9668 43.3329 23.1752 43.3329 23.4113C43.3329 23.6475 43.3861 23.8558 43.4926 24.0364C43.6037 24.217 43.7542 24.3582 43.9441 24.4601C44.1385 24.562 44.3585 24.6129 44.6039 24.6129ZM47.7948 25.3491V21.668H48.4616V25.3491H47.7948ZM48.1282 20.9596C47.9986 20.9596 47.8898 20.9179 47.8018 20.8346C47.7184 20.7512 47.6768 20.6494 47.6768 20.529C47.6768 20.404 47.7184 20.2998 47.8018 20.2164C47.8898 20.1331 47.9986 20.0914 48.1282 20.0914C48.2579 20.0914 48.3644 20.1331 48.4477 20.2164C48.5357 20.2951 48.5797 20.3947 48.5797 20.5151C48.5797 20.6401 48.538 20.7466 48.4547 20.8346C48.3713 20.9179 48.2625 20.9596 48.1282 20.9596ZM50.9988 25.3908C50.6283 25.3908 50.3412 25.2912 50.1375 25.0921C49.9338 24.893 49.8319 24.6083 49.8319 24.2378V20.8624H50.4987V24.2101C50.4987 24.4092 50.5473 24.562 50.6445 24.6685C50.7464 24.775 50.8899 24.8282 51.0752 24.8282C51.2835 24.8282 51.4572 24.7703 51.5961 24.6546L51.8044 25.1338C51.7026 25.2218 51.5799 25.2866 51.4363 25.3283C51.2974 25.37 51.1516 25.3908 50.9988 25.3908ZM49.2068 22.2167V21.668H51.5544V22.2167H49.2068ZM54.8956 25.3491V24.5712L54.8609 24.4254V23.0988C54.8609 22.8163 54.7775 22.5987 54.6108 22.4459C54.4488 22.2885 54.2034 22.2098 53.8746 22.2098C53.657 22.2098 53.444 22.2468 53.2356 22.3209C53.0273 22.3904 52.8513 22.4853 52.7078 22.6057L52.43 22.1056C52.6198 21.9528 52.8467 21.837 53.1106 21.7583C53.3792 21.675 53.6593 21.6333 53.951 21.6333C54.4557 21.6333 54.8447 21.756 55.1178 22.0014C55.391 22.2468 55.5276 22.6219 55.5276 23.1266V25.3491H54.8956ZM53.6871 25.3908C53.4139 25.3908 53.1731 25.3445 52.9648 25.2519C52.761 25.1593 52.6036 25.0319 52.4925 24.8699C52.3813 24.7032 52.3258 24.5157 52.3258 24.3073C52.3258 24.1082 52.3721 23.9276 52.4647 23.7656C52.5619 23.6035 52.717 23.4738 52.93 23.3766C53.1476 23.2794 53.4394 23.2308 53.8052 23.2308H54.972V23.71H53.8329C53.4996 23.71 53.275 23.7656 53.1592 23.8767C53.0435 23.9878 52.9856 24.1221 52.9856 24.2795C52.9856 24.4601 53.0574 24.606 53.2009 24.7171C53.3444 24.8236 53.5435 24.8768 53.7982 24.8768C54.0482 24.8768 54.2659 24.8213 54.4511 24.7101C54.6409 24.599 54.7775 24.437 54.8609 24.224L54.9928 24.6824C54.9049 24.9 54.7497 25.0736 54.5275 25.2033C54.3052 25.3283 54.0251 25.3908 53.6871 25.3908ZM56.7615 25.3491V20.1956H57.4283V25.3491H56.7615ZM60.6638 25.3491V20.4873H61.3584V25.3491H60.6638ZM64.6823 21.6333C64.9833 21.6333 65.2472 21.6912 65.4741 21.8069C65.7056 21.9227 65.8862 22.0986 66.0158 22.3348C66.1455 22.5709 66.2103 22.8696 66.2103 23.2308V25.3491H65.5435V23.3072C65.5435 22.9506 65.4556 22.6821 65.2796 22.5015C65.1083 22.3209 64.8652 22.2306 64.5503 22.2306C64.3142 22.2306 64.1081 22.2769 63.9322 22.3695C63.7562 22.4621 63.6196 22.5987 63.5224 22.7793C63.4298 22.9599 63.3835 23.1845 63.3835 23.453V25.3491H62.7167V21.668H63.3557V22.6612L63.2515 22.3973C63.3719 22.1565 63.5571 21.969 63.8072 21.8347C64.0572 21.7004 64.3489 21.6333 64.6823 21.6333ZM69.4098 21.6333C69.7108 21.6333 69.9747 21.6912 70.2016 21.8069C70.4331 21.9227 70.6137 22.0986 70.7433 22.3348C70.873 22.5709 70.9378 22.8696 70.9378 23.2308V25.3491H70.271V23.3072C70.271 22.9506 70.1831 22.6821 70.0071 22.5015C69.8358 22.3209 69.5927 22.2306 69.2778 22.2306C69.0417 22.2306 68.8357 22.2769 68.6597 22.3695C68.4838 22.4621 68.3472 22.5987 68.2499 22.7793C68.1573 22.9599 68.111 23.1845 68.111 23.453V25.3491H67.4442V21.668H68.0832V22.6612L67.979 22.3973C68.0994 22.1565 68.2846 21.969 68.5347 21.8347C68.7847 21.7004 69.0764 21.6333 69.4098 21.6333ZM73.7484 25.3908C73.378 25.3908 73.0492 25.3098 72.7621 25.1477C72.4751 24.9856 72.2482 24.7634 72.0815 24.4809C71.9148 24.1939 71.8314 23.8697 71.8314 23.5086C71.8314 23.1428 71.9148 22.8187 72.0815 22.5362C72.2482 22.2538 72.4751 22.0338 72.7621 21.8764C73.0492 21.7143 73.378 21.6333 73.7484 21.6333C74.1142 21.6333 74.4406 21.7143 74.7277 21.8764C75.0194 22.0338 75.2463 22.2538 75.4084 22.5362C75.5751 22.814 75.6584 23.1381 75.6584 23.5086C75.6584 23.8744 75.5751 24.1985 75.4084 24.4809C75.2463 24.7634 75.0194 24.9856 74.7277 25.1477C74.4406 25.3098 74.1142 25.3908 73.7484 25.3908ZM73.7484 24.8074C73.9845 24.8074 74.1952 24.7541 74.3804 24.6476C74.5703 24.5411 74.7184 24.3906 74.8249 24.1962C74.9314 23.9971 74.9847 23.7679 74.9847 23.5086C74.9847 23.2446 74.9314 23.0178 74.8249 22.8279C74.7184 22.6334 74.5703 22.483 74.3804 22.3765C74.1952 22.27 73.9845 22.2167 73.7484 22.2167C73.5122 22.2167 73.3016 22.27 73.1164 22.3765C72.9311 22.483 72.783 22.6334 72.6718 22.8279C72.5607 23.0178 72.5052 23.2446 72.5052 23.5086C72.5052 23.7679 72.5607 23.9971 72.6718 24.1962C72.783 24.3906 72.9311 24.5411 73.1164 24.6476C73.3016 24.7541 73.5122 24.8074 73.7484 24.8074ZM77.4442 25.3491L75.8328 21.668H76.5274L77.9582 25.0018H77.6248L79.0833 21.668H79.7362L78.1248 25.3491H77.4442ZM82.5282 25.3491V24.5712L82.4935 24.4254V23.0988C82.4935 22.8163 82.4101 22.5987 82.2435 22.4459C82.0814 22.2885 81.836 22.2098 81.5072 22.2098C81.2896 22.2098 81.0766 22.2468 80.8683 22.3209C80.6599 22.3904 80.4839 22.4853 80.3404 22.6057L80.0626 22.1056C80.2524 21.9528 80.4793 21.837 80.7432 21.7583C81.0118 21.675 81.2919 21.6333 81.5836 21.6333C82.0883 21.6333 82.4773 21.756 82.7505 22.0014C83.0237 22.2468 83.1603 22.6219 83.1603 23.1266V25.3491H82.5282ZM81.3197 25.3908C81.0465 25.3908 80.8057 25.3445 80.5974 25.2519C80.3936 25.1593 80.2362 25.0319 80.1251 24.8699C80.014 24.7032 79.9584 24.5157 79.9584 24.3073C79.9584 24.1082 80.0047 23.9276 80.0973 23.7656C80.1945 23.6035 80.3497 23.4738 80.5627 23.3766C80.7803 23.2794 81.072 23.2308 81.4378 23.2308H82.6046V23.71H81.4656C81.1322 23.71 80.9076 23.7656 80.7919 23.8767C80.6761 23.9878 80.6182 24.1221 80.6182 24.2795C80.6182 24.4601 80.69 24.606 80.8335 24.7171C80.9771 24.8236 81.1762 24.8768 81.4308 24.8768C81.6809 24.8768 81.8985 24.8213 82.0837 24.7101C82.2735 24.599 82.4101 24.437 82.4935 24.224L82.6255 24.6824C82.5375 24.9 82.3824 25.0736 82.1601 25.2033C81.9379 25.3283 81.6577 25.3908 81.3197 25.3908ZM85.6582 25.3908C85.2878 25.3908 85.0007 25.2912 84.797 25.0921C84.5933 24.893 84.4914 24.6083 84.4914 24.2378V20.8624H85.1582V24.2101C85.1582 24.4092 85.2068 24.562 85.304 24.6685C85.4059 24.775 85.5494 24.8282 85.7346 24.8282C85.943 24.8282 86.1166 24.7703 86.2555 24.6546L86.4639 25.1338C86.362 25.2218 86.2393 25.2866 86.0958 25.3283C85.9569 25.37 85.811 25.3908 85.6582 25.3908ZM83.8663 22.2167V21.668H86.2139V22.2167H83.8663ZM87.27 25.3491V21.668H87.9368V25.3491H87.27ZM87.6034 20.9596C87.4737 20.9596 87.3649 20.9179 87.277 20.8346C87.1936 20.7512 87.1519 20.6494 87.1519 20.529C87.1519 20.404 87.1936 20.2998 87.277 20.2164C87.3649 20.1331 87.4737 20.0914 87.6034 20.0914C87.733 20.0914 87.8395 20.1331 87.9229 20.2164C88.0109 20.2951 88.0548 20.3947 88.0548 20.5151C88.0548 20.6401 88.0132 20.7466 87.9298 20.8346C87.8465 20.9179 87.7377 20.9596 87.6034 20.9596ZM90.7865 25.3908C90.4161 25.3908 90.0873 25.3098 89.8002 25.1477C89.5131 24.9856 89.2863 24.7634 89.1196 24.4809C88.9529 24.1939 88.8695 23.8697 88.8695 23.5086C88.8695 23.1428 88.9529 22.8187 89.1196 22.5362C89.2863 22.2538 89.5131 22.0338 89.8002 21.8764C90.0873 21.7143 90.4161 21.6333 90.7865 21.6333C91.1523 21.6333 91.4787 21.7143 91.7658 21.8764C92.0575 22.0338 92.2844 22.2538 92.4464 22.5362C92.6131 22.814 92.6965 23.1381 92.6965 23.5086C92.6965 23.8744 92.6131 24.1985 92.4464 24.4809C92.2844 24.7634 92.0575 24.9856 91.7658 25.1477C91.4787 25.3098 91.1523 25.3908 90.7865 25.3908ZM90.7865 24.8074C91.0226 24.8074 91.2333 24.7541 91.4185 24.6476C91.6084 24.5411 91.7565 24.3906 91.863 24.1962C91.9695 23.9971 92.0228 23.7679 92.0228 23.5086C92.0228 23.2446 91.9695 23.0178 91.863 22.8279C91.7565 22.6334 91.6084 22.483 91.4185 22.3765C91.2333 22.27 91.0226 22.2167 90.7865 22.2167C90.5503 22.2167 90.3397 22.27 90.1544 22.3765C89.9692 22.483 89.8211 22.6334 89.7099 22.8279C89.5988 23.0178 89.5432 23.2446 89.5432 23.5086C89.5432 23.7679 89.5988 23.9971 89.7099 24.1962C89.8211 24.3906 89.9692 24.5411 90.1544 24.6476C90.3397 24.7541 90.5503 24.8074 90.7865 24.8074ZM95.5842 21.6333C95.8851 21.6333 96.1491 21.6912 96.3759 21.8069C96.6075 21.9227 96.788 22.0986 96.9177 22.3348C97.0473 22.5709 97.1122 22.8696 97.1122 23.2308V25.3491H96.4454V23.3072C96.4454 22.9506 96.3574 22.6821 96.1815 22.5015C96.0102 22.3209 95.7671 22.2306 95.4522 22.2306C95.2161 22.2306 95.01 22.2769 94.8341 22.3695C94.6581 22.4621 94.5215 22.5987 94.4243 22.7793C94.3317 22.9599 94.2854 23.1845 94.2854 23.453V25.3491H93.6186V21.668H94.2576V22.6612L94.1534 22.3973C94.2738 22.1565 94.459 21.969 94.709 21.8347C94.9591 21.7004 95.2508 21.6333 95.5842 21.6333ZM103.795 20.4873H104.49V25.3491H103.795V20.4873ZM101.003 25.3491H100.309V20.4873H101.003V25.3491ZM103.858 23.1821H100.934V22.5779H103.858V23.1821ZM107.397 25.3908C107.082 25.3908 106.804 25.3329 106.563 25.2172C106.327 25.1014 106.142 24.9254 106.008 24.6893C105.878 24.4485 105.813 24.1476 105.813 23.7864V21.668H106.48V23.71C106.48 24.0712 106.565 24.342 106.737 24.5226C106.913 24.7032 107.158 24.7935 107.473 24.7935C107.705 24.7935 107.906 24.7472 108.077 24.6546C108.249 24.5573 108.381 24.4184 108.473 24.2378C108.566 24.0526 108.612 23.8304 108.612 23.5711V21.668H109.279V25.3491H108.647V24.3559L108.751 24.6198C108.631 24.8653 108.45 25.0551 108.209 25.1894C107.968 25.3237 107.698 25.3908 107.397 25.3908ZM112.5 25.3908C112.185 25.3908 111.9 25.3213 111.646 25.1824C111.396 25.0389 111.196 24.8282 111.048 24.5504C110.905 24.2726 110.833 23.9253 110.833 23.5086C110.833 23.0918 110.907 22.7446 111.055 22.4668C111.208 22.1889 111.409 21.9806 111.659 21.8417C111.914 21.7028 112.194 21.6333 112.5 21.6333C112.861 21.6333 113.18 21.712 113.458 21.8694C113.736 22.0269 113.956 22.2468 114.118 22.5293C114.28 22.8071 114.361 23.1335 114.361 23.5086C114.361 23.8836 114.28 24.2124 114.118 24.4948C113.956 24.7773 113.736 24.9972 113.458 25.1546C113.18 25.3121 112.861 25.3908 112.5 25.3908ZM110.548 25.3491V20.1956H111.215V22.6473L111.145 23.5016L111.187 24.3559V25.3491H110.548ZM112.444 24.8074C112.68 24.8074 112.891 24.7541 113.076 24.6476C113.266 24.5411 113.414 24.3906 113.521 24.1962C113.632 23.9971 113.688 23.7679 113.688 23.5086C113.688 23.2446 113.632 23.0178 113.521 22.8279C113.414 22.6334 113.266 22.483 113.076 22.3765C112.891 22.27 112.68 22.2167 112.444 22.2167C112.213 22.2167 112.002 22.27 111.812 22.3765C111.627 22.483 111.479 22.6334 111.368 22.8279C111.261 23.0178 111.208 23.2446 111.208 23.5086C111.208 23.7679 111.261 23.9971 111.368 24.1962C111.479 24.3906 111.627 24.5411 111.812 24.6476C112.002 24.7541 112.213 24.8074 112.444 24.8074Z" fill="white"/>
<path d="M62.3777 28.3092C62.3674 28.402 62.3537 28.5018 62.3365 28.6084C62.3193 28.7116 62.3038 28.813 62.29 28.9128C62.2763 29.0125 62.2643 29.1036 62.2539 29.1862C62.2264 29.3925 62.2006 29.5989 62.1766 29.8052C62.1559 30.0082 62.1353 30.2059 62.1146 30.3985C62.094 30.5877 62.0768 30.7665 62.0631 30.935C62.0493 31.1001 62.0373 31.248 62.0269 31.3787C62.0201 31.5094 62.0166 31.616 62.0166 31.6985C62.0166 31.7639 62.0235 31.8189 62.0373 31.8636C62.051 31.9083 62.0837 31.9307 62.1353 31.9307C62.1869 31.9307 62.2419 31.8963 62.3004 31.8275C62.3623 31.7587 62.419 31.6366 62.4706 31.4612L62.6563 31.5128C62.6426 31.5782 62.6185 31.6555 62.5841 31.745C62.5497 31.8309 62.5033 31.9135 62.4448 31.9926C62.3898 32.0683 62.321 32.1319 62.2385 32.1835C62.1559 32.2351 62.0596 32.2608 61.9496 32.2608C61.8154 32.2608 61.7105 32.2247 61.6349 32.1525C61.5592 32.0803 61.5214 31.9685 61.5214 31.8172C61.5179 31.7175 61.5214 31.5868 61.5317 31.4251C61.542 31.2635 61.5558 31.0846 61.573 30.8886C61.5902 30.6891 61.6091 30.4828 61.6297 30.2695C61.6538 30.0529 61.6779 29.8414 61.7019 29.635C61.7295 29.4252 61.7552 29.2292 61.7793 29.0469C61.7931 28.9644 61.8034 28.899 61.8103 28.8509C61.8172 28.7993 61.824 28.7494 61.8309 28.7013C61.7724 28.7047 61.7105 28.7081 61.6452 28.7116C61.5798 28.715 61.5197 28.7185 61.4646 28.7219L61.4904 28.4536C61.6452 28.4536 61.7673 28.4468 61.8567 28.433C61.9496 28.4158 62.0201 28.3969 62.0682 28.3762C62.1198 28.3556 62.1594 28.3333 62.1869 28.3092H62.3777ZM63.4458 29.5679C63.6006 29.5679 63.7141 29.6195 63.7863 29.7227C63.8585 29.8224 63.8946 29.9566 63.8946 30.1251C63.8946 30.2214 63.8843 30.3383 63.8637 30.4759C63.8465 30.61 63.8241 30.7528 63.7966 30.9041C63.7726 31.0554 63.7519 31.2033 63.7347 31.3477C63.7175 31.4922 63.7089 31.6229 63.7089 31.7398C63.7089 31.8052 63.7192 31.8533 63.7399 31.8843C63.764 31.9152 63.7966 31.9307 63.8379 31.9307C63.8929 31.9307 63.9497 31.8963 64.0081 31.8275C64.07 31.7553 64.1251 31.6332 64.1732 31.4612L64.3641 31.5077C64.3503 31.5799 64.3263 31.6607 64.2919 31.7501C64.2575 31.8361 64.2111 31.9186 64.1526 31.9977C64.0976 32.0734 64.0305 32.137 63.9514 32.1886C63.8723 32.2368 63.7811 32.2608 63.678 32.2608C63.5095 32.2608 63.3874 32.2161 63.3117 32.1267C63.2395 32.0373 63.2034 31.91 63.2034 31.745C63.2034 31.6108 63.212 31.4733 63.2292 31.3323C63.2498 31.1913 63.2721 31.0502 63.2962 30.9092C63.3203 30.7682 63.3426 30.6307 63.3633 30.4965C63.3839 30.359 63.3942 30.2265 63.3942 30.0993C63.3942 30.0511 63.3839 30.0064 63.3633 29.9652C63.3461 29.9205 63.3151 29.8981 63.2704 29.8981C63.2188 29.8981 63.1621 29.9342 63.1002 30.0064C63.0383 30.0752 62.9833 30.1956 62.9351 30.3676L62.7442 30.3211C62.758 30.2558 62.7821 30.1818 62.8164 30.0993C62.8508 30.0133 62.8956 29.9308 62.9506 29.8517C63.009 29.7691 63.0778 29.7021 63.1569 29.6505C63.2395 29.5955 63.3358 29.5679 63.4458 29.5679ZM63.7038 28.3917C63.7932 28.3917 63.8671 28.4244 63.9256 28.4897C63.9841 28.5516 64.0116 28.6325 64.0081 28.7322C64.0081 28.8285 63.9772 28.9076 63.9153 28.9695C63.8534 29.0314 63.7777 29.0624 63.6883 29.0624C63.5989 29.0624 63.5249 29.0314 63.4665 28.9695C63.408 28.9076 63.3788 28.8285 63.3788 28.7322C63.3822 28.6325 63.4149 28.5516 63.4768 28.4897C63.5421 28.4244 63.6178 28.3917 63.7038 28.3917ZM66.8303 32.2608C66.6618 32.2608 66.5466 32.2161 66.4847 32.1267C66.4228 32.0339 66.3918 31.9032 66.3918 31.7346C66.3918 31.6383 66.3987 31.5249 66.4124 31.3942C66.4296 31.2635 66.4468 31.1276 66.464 30.9866C66.4847 30.8422 66.5019 30.6994 66.5156 30.5584C66.5328 30.4174 66.5414 30.2885 66.5414 30.1715C66.5414 30.1268 66.5345 30.0838 66.5208 30.0426C66.5105 29.9978 66.4898 29.9617 66.4589 29.9342C66.4314 29.9033 66.3884 29.8878 66.3299 29.8878C66.2474 29.8878 66.1614 29.9308 66.072 30.0168C65.986 30.0993 65.9034 30.2128 65.8243 30.3572C65.7487 30.5017 65.6799 30.6616 65.618 30.837C65.5561 31.0124 65.5062 31.193 65.4684 31.3787C65.434 31.561 65.4168 31.7346 65.4168 31.8997C65.4168 31.9479 65.4168 31.9995 65.4168 32.0545C65.4202 32.1095 65.4237 32.1594 65.4271 32.2041H64.9164C64.9129 32.1628 64.9112 32.1319 64.9112 32.1112C64.9112 32.0872 64.9112 32.0614 64.9112 32.0339C64.9112 31.9685 64.9147 31.8946 64.9215 31.812C64.9284 31.726 64.9387 31.6212 64.9525 31.4973C64.9697 31.3735 64.9886 31.2205 65.0092 31.0382C65.0264 30.8731 65.0402 30.739 65.0505 30.6358C65.0643 30.5292 65.0746 30.4432 65.0815 30.3779C65.0918 30.3091 65.0987 30.2541 65.1021 30.2128C65.1055 30.1715 65.1073 30.1337 65.1073 30.0993C65.1073 30.0374 65.0987 29.9892 65.0815 29.9549C65.0643 29.917 65.0333 29.8981 64.9886 29.8981C64.9404 29.8981 64.8854 29.9342 64.8235 30.0064C64.7616 30.0752 64.7049 30.1956 64.6533 30.3676L64.4624 30.3211C64.4762 30.2558 64.4985 30.1818 64.5295 30.0993C64.5639 30.0133 64.6086 29.9308 64.6636 29.8517C64.7186 29.7691 64.7857 29.7021 64.8648 29.6505C64.9439 29.5955 65.0367 29.5679 65.1434 29.5679C65.2465 29.5679 65.3274 29.5937 65.3858 29.6453C65.4443 29.6969 65.4856 29.7674 65.5096 29.8568C65.5337 29.9463 65.544 30.0494 65.5406 30.1664C65.5372 30.2523 65.5286 30.3314 65.5148 30.4037C65.501 30.4759 65.489 30.5447 65.4787 30.61H65.489C65.5956 30.3349 65.7022 30.1217 65.8089 29.9703C65.9189 29.819 66.029 29.7141 66.139 29.6556C66.2491 29.5972 66.3574 29.5679 66.464 29.5679C66.605 29.5679 66.7168 29.6006 66.7993 29.666C66.8853 29.7279 66.9472 29.8121 66.9851 29.9187C67.0229 30.0254 67.0418 30.1457 67.0418 30.2799C67.0418 30.4484 67.0298 30.6238 67.0057 30.8061C66.9816 30.9883 66.9576 31.1603 66.9335 31.3219C66.9094 31.4836 66.8974 31.6177 66.8974 31.7243C66.8974 31.7862 66.9042 31.8361 66.918 31.8739C66.9352 31.9118 66.9679 31.9307 67.016 31.9307C67.0676 31.9307 67.1226 31.8963 67.1811 31.8275C67.243 31.7587 67.2998 31.6366 67.3513 31.4612L67.5371 31.5128C67.5267 31.5747 67.5044 31.6487 67.47 31.7346C67.4356 31.8206 67.3892 31.9032 67.3307 31.9823C67.2722 32.0614 67.2017 32.1284 67.1192 32.1835C67.0367 32.2351 66.9404 32.2608 66.8303 32.2608ZM69.5453 32.2608C69.4077 32.2608 69.2942 32.2093 69.2048 32.1061C69.1154 32.0029 69.0243 31.8309 68.9314 31.5902C68.8764 31.4423 68.8265 31.3323 68.7818 31.26C68.7405 31.1844 68.6803 31.1414 68.6012 31.1311C68.5806 31.1276 68.56 31.1259 68.5393 31.1259C68.5221 31.1259 68.5032 31.1259 68.4826 31.1259C68.4482 31.2532 68.4224 31.3873 68.4052 31.5283C68.388 31.6659 68.3794 31.7914 68.3794 31.9049C68.3794 31.9565 68.3794 32.0081 68.3794 32.0597C68.3828 32.1112 68.3863 32.1594 68.3897 32.2041H67.8842C67.8807 32.1628 67.8773 32.1319 67.8738 32.1112C67.8738 32.0872 67.8738 32.0597 67.8738 32.0287C67.8738 31.953 67.8773 31.8327 67.8842 31.6676C67.8945 31.4991 67.9065 31.3047 67.9203 31.0846C67.9375 30.8611 67.9547 30.6289 67.9719 30.3882C67.9925 30.144 68.0148 29.905 68.0389 29.6711C68.0664 29.4372 68.0922 29.2292 68.1163 29.0469C68.1301 28.9644 68.1404 28.9007 68.1473 28.856C68.1576 28.8079 68.1662 28.7563 68.173 28.7013C68.118 28.7047 68.0561 28.7081 67.9873 28.7116C67.922 28.715 67.8635 28.7185 67.8119 28.7219L67.8326 28.4536C67.9873 28.4536 68.1094 28.4468 68.1988 28.433C68.2917 28.4158 68.3622 28.3969 68.4104 28.3762C68.4585 28.3556 68.4963 28.3333 68.5238 28.3092H68.7147C68.6975 28.4089 68.6803 28.5173 68.6631 28.6342C68.6494 28.7477 68.6339 28.8612 68.6167 28.9747C68.603 29.0882 68.5892 29.1948 68.5754 29.2945C68.5514 29.5043 68.5273 29.7141 68.5032 29.9239C68.4791 30.1337 68.4585 30.34 68.4413 30.543H68.4568C68.5496 30.2885 68.6477 30.0907 68.7508 29.9497C68.854 29.8087 68.9606 29.7107 69.0707 29.6556C69.1842 29.5972 69.296 29.5679 69.406 29.5679C69.5264 29.5679 69.6244 29.5937 69.7001 29.6453C69.7757 29.6935 69.8308 29.7605 69.8651 29.8465C69.903 29.9291 69.9219 30.0202 69.9219 30.1199C69.9219 30.2369 69.8875 30.3607 69.8187 30.4914C69.7534 30.6186 69.6468 30.7356 69.4989 30.8422C69.3544 30.9453 69.1653 31.0193 68.9314 31.064V31.0692C69.0621 31.0726 69.1584 31.1036 69.2203 31.162C69.2856 31.2205 69.3407 31.3047 69.3854 31.4148C69.4232 31.4939 69.4576 31.5696 69.4886 31.6418C69.5229 31.714 69.5573 31.7742 69.5917 31.8223C69.6296 31.8671 69.6691 31.8929 69.7104 31.8997C69.762 31.8997 69.8067 31.8774 69.8445 31.8327C69.8858 31.7845 69.9219 31.6951 69.9528 31.5644L70.1437 31.6108C70.1231 31.7175 70.087 31.8206 70.0354 31.9204C69.9838 32.0201 69.9167 32.1026 69.8342 32.168C69.7551 32.2299 69.6588 32.2608 69.5453 32.2608ZM68.5187 30.9196C68.8213 30.9196 69.05 30.8508 69.2048 30.7132C69.3596 30.5756 69.437 30.383 69.437 30.1354C69.437 30.0907 69.4318 30.046 69.4215 30.0013C69.4146 29.9531 69.3957 29.9136 69.3647 29.8826C69.3338 29.8517 69.2891 29.8379 69.2306 29.8414C69.1515 29.8482 69.0672 29.8998 68.9778 29.9961C68.8884 30.089 68.8024 30.2162 68.7199 30.3779C68.6408 30.5361 68.5737 30.7166 68.5187 30.9196ZM70.9926 29.5679C71.1474 29.5679 71.2609 29.6195 71.3331 29.7227C71.4053 29.8224 71.4414 29.9566 71.4414 30.1251C71.4414 30.2214 71.4311 30.3383 71.4105 30.4759C71.3933 30.61 71.3709 30.7528 71.3434 30.9041C71.3194 31.0554 71.2987 31.2033 71.2815 31.3477C71.2643 31.4922 71.2557 31.6229 71.2557 31.7398C71.2557 31.8052 71.266 31.8533 71.2867 31.8843C71.3108 31.9152 71.3434 31.9307 71.3847 31.9307C71.4397 31.9307 71.4965 31.8963 71.5549 31.8275C71.6168 31.7553 71.6719 31.6332 71.72 31.4612L71.9109 31.5077C71.8971 31.5799 71.8731 31.6607 71.8387 31.7501C71.8043 31.8361 71.7579 31.9186 71.6994 31.9977C71.6444 32.0734 71.5773 32.137 71.4982 32.1886C71.4191 32.2368 71.328 32.2608 71.2248 32.2608C71.0563 32.2608 70.9342 32.2161 70.8585 32.1267C70.7863 32.0373 70.7502 31.91 70.7502 31.745C70.7502 31.6108 70.7588 31.4733 70.776 31.3323C70.7966 31.1913 70.819 31.0502 70.843 30.9092C70.8671 30.7682 70.8895 30.6307 70.9101 30.4965C70.9307 30.359 70.941 30.2265 70.941 30.0993C70.941 30.0511 70.9307 30.0064 70.9101 29.9652C70.8929 29.9205 70.8619 29.8981 70.8172 29.8981C70.7656 29.8981 70.7089 29.9342 70.647 30.0064C70.5851 30.0752 70.5301 30.1956 70.4819 30.3676L70.291 30.3211C70.3048 30.2558 70.3289 30.1818 70.3633 30.0993C70.3976 30.0133 70.4424 29.9308 70.4974 29.8517C70.5559 29.7691 70.6246 29.7021 70.7037 29.6505C70.7863 29.5955 70.8826 29.5679 70.9926 29.5679ZM71.2506 28.3917C71.34 28.3917 71.4139 28.4244 71.4724 28.4897C71.5309 28.5516 71.5584 28.6325 71.5549 28.7322C71.5549 28.8285 71.524 28.9076 71.4621 28.9695C71.4002 29.0314 71.3245 29.0624 71.2351 29.0624C71.1457 29.0624 71.0717 29.0314 71.0133 28.9695C70.9548 28.9076 70.9256 28.8285 70.9256 28.7322C70.929 28.6325 70.9617 28.5516 71.0236 28.4897C71.0889 28.4244 71.1646 28.3917 71.2506 28.3917ZM74.3771 32.2608C74.2086 32.2608 74.0934 32.2161 74.0315 32.1267C73.9696 32.0339 73.9386 31.9032 73.9386 31.7346C73.9386 31.6383 73.9455 31.5249 73.9592 31.3942C73.9764 31.2635 73.9936 31.1276 74.0108 30.9866C74.0315 30.8422 74.0487 30.6994 74.0624 30.5584C74.0796 30.4174 74.0882 30.2885 74.0882 30.1715C74.0882 30.1268 74.0813 30.0838 74.0676 30.0426C74.0573 29.9978 74.0366 29.9617 74.0057 29.9342C73.9782 29.9033 73.9352 29.8878 73.8767 29.8878C73.7942 29.8878 73.7082 29.9308 73.6188 30.0168C73.5328 30.0993 73.4502 30.2128 73.3711 30.3572C73.2955 30.5017 73.2267 30.6616 73.1648 30.837C73.1029 31.0124 73.053 31.193 73.0152 31.3787C72.9808 31.561 72.9636 31.7346 72.9636 31.8997C72.9636 31.9479 72.9636 31.9995 72.9636 32.0545C72.967 32.1095 72.9705 32.1594 72.9739 32.2041H72.4632C72.4597 32.1628 72.458 32.1319 72.458 32.1112C72.458 32.0872 72.458 32.0614 72.458 32.0339C72.458 31.9685 72.4615 31.8946 72.4683 31.812C72.4752 31.726 72.4855 31.6212 72.4993 31.4973C72.5165 31.3735 72.5354 31.2205 72.556 31.0382C72.5732 30.8731 72.587 30.739 72.5973 30.6358C72.6111 30.5292 72.6214 30.4432 72.6283 30.3779C72.6386 30.3091 72.6455 30.2541 72.6489 30.2128C72.6523 30.1715 72.6541 30.1337 72.6541 30.0993C72.6541 30.0374 72.6455 29.9892 72.6283 29.9549C72.6111 29.917 72.5801 29.8981 72.5354 29.8981C72.4873 29.8981 72.4322 29.9342 72.3703 30.0064C72.3084 30.0752 72.2517 30.1956 72.2001 30.3676L72.0092 30.3211C72.023 30.2558 72.0453 30.1818 72.0763 30.0993C72.1107 30.0133 72.1554 29.9308 72.2104 29.8517C72.2654 29.7691 72.3325 29.7021 72.4116 29.6505C72.4907 29.5955 72.5836 29.5679 72.6902 29.5679C72.7933 29.5679 72.8742 29.5937 72.9326 29.6453C72.9911 29.6969 73.0324 29.7674 73.0564 29.8568C73.0805 29.9463 73.0908 30.0494 73.0874 30.1664C73.084 30.2523 73.0754 30.3314 73.0616 30.4037C73.0478 30.4759 73.0358 30.5447 73.0255 30.61H73.0358C73.1424 30.3349 73.249 30.1217 73.3557 29.9703C73.4657 29.819 73.5758 29.7141 73.6858 29.6556C73.7959 29.5972 73.9042 29.5679 74.0108 29.5679C74.1518 29.5679 74.2636 29.6006 74.3462 29.666C74.4321 29.7279 74.494 29.8121 74.5319 29.9187C74.5697 30.0254 74.5886 30.1457 74.5886 30.2799C74.5886 30.4484 74.5766 30.6238 74.5525 30.8061C74.5284 30.9883 74.5044 31.1603 74.4803 31.3219C74.4562 31.4836 74.4442 31.6177 74.4442 31.7243C74.4442 31.7862 74.451 31.8361 74.4648 31.8739C74.482 31.9118 74.5147 31.9307 74.5628 31.9307C74.6144 31.9307 74.6694 31.8963 74.7279 31.8275C74.7898 31.7587 74.8466 31.6366 74.8981 31.4612L75.0839 31.5128C75.0735 31.5747 75.0512 31.6487 75.0168 31.7346C74.9824 31.8206 74.936 31.9032 74.8775 31.9823C74.819 32.0614 74.7485 32.1284 74.666 32.1835C74.5835 32.2351 74.4872 32.2608 74.3771 32.2608ZM76.0087 33.6021C75.9228 33.6021 75.8351 33.5935 75.7456 33.5764C75.6562 33.5592 75.5702 33.5316 75.4877 33.4938C75.4086 33.4594 75.3433 33.4113 75.2917 33.3494C75.2435 33.2909 75.2194 33.2204 75.2194 33.1379C75.2194 33.0863 75.2298 33.0381 75.2504 32.9934C75.271 32.9487 75.302 32.9109 75.3433 32.8799C75.388 32.849 75.4378 32.8335 75.4929 32.8335C75.5651 32.8335 75.627 32.8558 75.6786 32.9005C75.7302 32.9487 75.756 33.0158 75.756 33.1017C75.756 33.1464 75.7456 33.1929 75.725 33.241C75.756 33.2857 75.8041 33.3184 75.8695 33.339C75.9348 33.3597 75.9933 33.37 76.0449 33.37C76.2237 33.37 76.363 33.3218 76.4627 33.2256C76.5659 33.1327 76.6433 33.0072 76.6949 32.849C76.7499 32.6908 76.7895 32.5171 76.8135 32.3279C76.8445 32.1319 76.8686 31.941 76.8857 31.7553C76.9029 31.5696 76.927 31.3959 76.958 31.2342H76.9425C76.8737 31.4509 76.8015 31.6263 76.7258 31.7604C76.6502 31.8946 76.5728 31.9995 76.4937 32.0751C76.4146 32.1474 76.3338 32.1955 76.2512 32.2196C76.1721 32.2471 76.093 32.2608 76.0139 32.2608C75.8695 32.2608 75.7439 32.2213 75.6373 32.1422C75.5341 32.0597 75.4533 31.9444 75.3948 31.7966C75.3398 31.6487 75.3123 31.4767 75.3123 31.2807C75.3123 31.0537 75.3415 30.8387 75.4 30.6358C75.4619 30.4295 75.5531 30.2455 75.6734 30.0838C75.7972 29.9222 75.9537 29.7966 76.1429 29.7072C76.332 29.6144 76.5573 29.5679 76.8187 29.5679C76.9287 29.5679 77.0474 29.5765 77.1746 29.5937C77.3019 29.6109 77.4154 29.6333 77.5151 29.6608C77.5048 29.8396 77.4928 30.034 77.479 30.2437C77.4653 30.4501 77.4481 30.6616 77.4274 30.8783C77.4102 31.095 77.393 31.3065 77.3758 31.5128C77.3586 31.7157 77.3432 31.9066 77.3294 32.0854C77.3019 32.4156 77.2348 32.6925 77.1282 32.916C77.0216 33.143 76.8754 33.3133 76.6897 33.4267C76.504 33.5437 76.277 33.6021 76.0087 33.6021ZM76.1584 31.9462C76.2478 31.9462 76.3338 31.9015 76.4163 31.812C76.4988 31.7226 76.5745 31.604 76.6433 31.4561C76.7121 31.3082 76.774 31.1431 76.829 30.9608C76.884 30.7785 76.9287 30.5928 76.9631 30.4037C76.9975 30.2111 77.0182 30.0305 77.025 29.862C76.9906 29.8414 76.9442 29.8276 76.8857 29.8207C76.8307 29.8104 76.7757 29.8052 76.7207 29.8052C76.5556 29.8052 76.4163 29.8465 76.3028 29.9291C76.1893 30.0116 76.0982 30.1217 76.0294 30.2592C75.9606 30.3968 75.9107 30.5498 75.8798 30.7184C75.8523 30.8869 75.8385 31.0571 75.8385 31.2291C75.8385 31.3667 75.8488 31.4905 75.8695 31.6005C75.8901 31.7071 75.9245 31.7914 75.9726 31.8533C76.0208 31.9152 76.0827 31.9462 76.1584 31.9462ZM80.9986 28.4949L81.9736 31.389C81.9977 31.4544 82.0235 31.5438 82.051 31.6573C82.0785 31.7673 82.0906 31.8619 82.0871 31.941L82.407 31.9204L82.3967 32.2041H81.1895L81.1998 31.9771C81.3202 31.9737 81.3993 31.9479 81.4371 31.8997C81.4784 31.8481 81.4956 31.7862 81.4887 31.714C81.4853 31.6418 81.4732 31.5696 81.4526 31.4973L81.3236 31.0795L80.0649 31.1104L79.8946 31.5592C79.8671 31.628 79.8396 31.6934 79.8121 31.7553C79.788 31.8172 79.7588 31.8774 79.7244 31.9358L80.1113 31.9152L80.0958 32.2041H79.1002L79.1105 31.972C79.1999 31.9685 79.2739 31.941 79.3323 31.8894C79.3942 31.8344 79.4493 31.7604 79.4974 31.6676C79.549 31.5713 79.5989 31.4647 79.647 31.3477L80.8078 28.4949H80.9986ZM80.7665 29.279C80.7355 29.3616 80.6994 29.4544 80.6581 29.5576C80.6203 29.6608 80.579 29.7709 80.5343 29.8878L80.1681 30.8319H81.2463L80.9574 29.9291C80.923 29.819 80.8886 29.7089 80.8542 29.5989C80.8232 29.4888 80.794 29.3822 80.7665 29.279ZM83.354 33.6021C83.2681 33.6021 83.1804 33.5935 83.0909 33.5764C83.0015 33.5592 82.9155 33.5316 82.833 33.4938C82.7539 33.4594 82.6885 33.4113 82.637 33.3494C82.5888 33.2909 82.5647 33.2204 82.5647 33.1379C82.5647 33.0863 82.5751 33.0381 82.5957 32.9934C82.6163 32.9487 82.6473 32.9109 82.6885 32.8799C82.7333 32.849 82.7831 32.8335 82.8382 32.8335C82.9104 32.8335 82.9723 32.8558 83.0239 32.9005C83.0755 32.9487 83.1013 33.0158 83.1013 33.1017C83.1013 33.1464 83.0909 33.1929 83.0703 33.241C83.1013 33.2857 83.1494 33.3184 83.2147 33.339C83.2801 33.3597 83.3386 33.37 83.3901 33.37C83.569 33.37 83.7083 33.3218 83.808 33.2256C83.9112 33.1327 83.9886 33.0072 84.0402 32.849C84.0952 32.6908 84.1347 32.5171 84.1588 32.3279C84.1898 32.1319 84.2138 31.941 84.231 31.7553C84.2482 31.5696 84.2723 31.3959 84.3033 31.2342H84.2878C84.219 31.4509 84.1468 31.6263 84.0711 31.7604C83.9955 31.8946 83.9181 31.9995 83.839 32.0751C83.7599 32.1474 83.679 32.1955 83.5965 32.2196C83.5174 32.2471 83.4383 32.2608 83.3592 32.2608C83.2147 32.2608 83.0892 32.2213 82.9826 32.1422C82.8794 32.0597 82.7986 31.9444 82.7401 31.7966C82.6851 31.6487 82.6576 31.4767 82.6576 31.2807C82.6576 31.0537 82.6868 30.8387 82.7453 30.6358C82.8072 30.4295 82.8983 30.2455 83.0187 30.0838C83.1425 29.9222 83.299 29.7966 83.4882 29.7072C83.6773 29.6144 83.9026 29.5679 84.164 29.5679C84.274 29.5679 84.3927 29.5765 84.5199 29.5937C84.6472 29.6109 84.7607 29.6333 84.8604 29.6608C84.8501 29.8396 84.8381 30.034 84.8243 30.2437C84.8105 30.4501 84.7934 30.6616 84.7727 30.8783C84.7555 31.095 84.7383 31.3065 84.7211 31.5128C84.7039 31.7157 84.6885 31.9066 84.6747 32.0854C84.6472 32.4156 84.5801 32.6925 84.4735 32.916C84.3669 33.143 84.2207 33.3133 84.035 33.4267C83.8493 33.5437 83.6223 33.6021 83.354 33.6021ZM83.5036 31.9462C83.5931 31.9462 83.679 31.9015 83.7616 31.812C83.8441 31.7226 83.9198 31.604 83.9886 31.4561C84.0574 31.3082 84.1193 31.1431 84.1743 30.9608C84.2293 30.7785 84.274 30.5928 84.3084 30.4037C84.3428 30.2111 84.3634 30.0305 84.3703 29.862C84.3359 29.8414 84.2895 29.8276 84.231 29.8207C84.176 29.8104 84.121 29.8052 84.066 29.8052C83.9009 29.8052 83.7616 29.8465 83.6481 29.9291C83.5346 30.0116 83.4435 30.1217 83.3747 30.2592C83.3059 30.3968 83.256 30.5498 83.2251 30.7184C83.1976 30.8869 83.1838 31.0571 83.1838 31.2291C83.1838 31.3667 83.1941 31.4905 83.2147 31.6005C83.2354 31.7071 83.2698 31.7914 83.3179 31.8533C83.3661 31.9152 83.428 31.9462 83.5036 31.9462ZM85.6629 32.2041C85.6595 32.1628 85.656 32.1319 85.6526 32.1112C85.6526 32.0872 85.6526 32.0614 85.6526 32.0339C85.6526 31.9685 85.6543 31.8929 85.6577 31.8069C85.6646 31.7175 85.6749 31.6091 85.6887 31.4819C85.7024 31.3546 85.7196 31.1998 85.7403 31.0176C85.7609 30.825 85.7781 30.6736 85.7919 30.5636C85.8056 30.4501 85.8159 30.3607 85.8228 30.2953C85.8331 30.23 85.8383 30.1801 85.8383 30.1457C85.8383 30.0804 85.8314 30.0236 85.8177 29.9755C85.8073 29.9239 85.7747 29.8981 85.7196 29.8981C85.6715 29.8981 85.6165 29.9342 85.5546 30.0064C85.4927 30.0752 85.4359 30.1956 85.3843 30.3676L85.1934 30.3211C85.2072 30.2558 85.2296 30.1818 85.2605 30.0993C85.2949 30.0133 85.3396 29.9308 85.3946 29.8517C85.4497 29.7691 85.5167 29.7021 85.5958 29.6505C85.6749 29.5955 85.7678 29.5679 85.8744 29.5679C86.012 29.5679 86.1134 29.6144 86.1788 29.7072C86.2441 29.8001 86.2734 29.9359 86.2665 30.1148C86.2665 30.1836 86.2596 30.2609 86.2458 30.3469C86.2321 30.4329 86.2166 30.5258 86.1994 30.6255H86.2097C86.3095 30.34 86.4109 30.1217 86.5141 29.9703C86.6207 29.819 86.7273 29.7141 86.834 29.6556C86.9406 29.5972 87.0437 29.5679 87.1435 29.5679C87.257 29.5679 87.3498 29.5972 87.4221 29.6556C87.4943 29.7141 87.5304 29.7949 87.5304 29.8981C87.5304 29.9703 87.5046 30.0357 87.453 30.0941C87.4049 30.1526 87.3395 30.1818 87.257 30.1818C87.1882 30.1818 87.1297 30.1612 87.0816 30.1199C87.0334 30.0787 87.0076 30.0202 87.0042 29.9445C86.9182 29.9308 86.834 29.9634 86.7514 30.0426C86.6723 30.1217 86.5966 30.2334 86.5244 30.3779C86.4556 30.5223 86.3937 30.684 86.3387 30.8628C86.2837 31.0416 86.2407 31.2239 86.2097 31.4096C86.1788 31.5954 86.1633 31.769 86.1633 31.9307C86.1633 31.9823 86.1633 32.0304 86.1633 32.0751C86.1667 32.1164 86.1702 32.1594 86.1736 32.2041H85.6629ZM88.9298 29.5679C89.1155 29.5679 89.284 29.6126 89.4354 29.7021C89.5867 29.788 89.7054 29.917 89.7913 30.089C89.8808 30.2575 89.9255 30.4621 89.9255 30.7029C89.9255 30.978 89.8739 31.2342 89.7707 31.4715C89.671 31.7089 89.5265 31.8997 89.3374 32.0442C89.1482 32.1886 88.9195 32.2608 88.6512 32.2608C88.4242 32.2608 88.2351 32.2093 88.0838 32.1061C87.9359 32.0029 87.8258 31.8636 87.7536 31.6882C87.6814 31.5094 87.6453 31.3133 87.6453 31.1001C87.6453 30.8215 87.6968 30.567 87.8 30.3366C87.9032 30.1027 88.0511 29.917 88.2437 29.7795C88.4363 29.6384 88.665 29.5679 88.9298 29.5679ZM88.8524 29.8104C88.7149 29.807 88.5962 29.8568 88.4965 29.96C88.4002 30.0597 88.3245 30.1956 88.2695 30.3676C88.2144 30.5395 88.1852 30.7304 88.1818 30.9402C88.1818 31.0502 88.1887 31.1689 88.2024 31.2961C88.2196 31.42 88.2471 31.5369 88.285 31.6469C88.3262 31.7536 88.3813 31.8413 88.45 31.91C88.5188 31.9788 88.6065 32.0149 88.7131 32.0184C88.8335 32.0184 88.935 31.9823 89.0175 31.91C89.1035 31.8344 89.1723 31.7381 89.2239 31.6212C89.2789 31.5008 89.3184 31.3735 89.3425 31.2394C89.37 31.1053 89.3855 30.9797 89.3889 30.8628C89.3924 30.7493 89.3872 30.6324 89.3735 30.512C89.3597 30.3916 89.3322 30.2781 89.2909 30.1715C89.2531 30.0649 89.1981 29.9789 89.1258 29.9136C89.0571 29.8448 88.9659 29.8104 88.8524 29.8104ZM91.1974 28.3092C91.1836 28.4055 91.1682 28.5121 91.151 28.629C91.1372 28.746 91.1252 28.8595 91.1149 28.9695C91.1045 29.0761 91.0942 29.1673 91.0839 29.2429C91.0736 29.3564 91.0615 29.482 91.0478 29.6195C91.034 29.7537 91.0186 29.8964 91.0014 30.0477C90.9876 30.199 90.9721 30.3504 90.9549 30.5017H90.9652C91.0306 30.2988 91.1011 30.1354 91.1768 30.0116C91.2559 29.8878 91.3367 29.7949 91.4192 29.733C91.5018 29.6677 91.5826 29.6247 91.6617 29.6041C91.7408 29.58 91.8147 29.5679 91.8835 29.5679C92.0486 29.5679 92.181 29.6144 92.2808 29.7072C92.3805 29.7966 92.451 29.9136 92.4923 30.058C92.537 30.2025 92.5593 30.359 92.5593 30.5275C92.5593 30.7648 92.5335 30.9883 92.4819 31.1981C92.4304 31.4045 92.3478 31.5885 92.2343 31.7501C92.1208 31.9083 91.9729 32.0339 91.7907 32.1267C91.6118 32.2161 91.3952 32.2608 91.1406 32.2608C91.0856 32.2608 91.0151 32.2574 90.9291 32.2505C90.8466 32.2437 90.7589 32.2316 90.666 32.2144C90.5766 32.1972 90.4941 32.1731 90.4184 32.1422C90.4356 31.8258 90.4511 31.5403 90.4648 31.2858C90.482 31.0313 90.4975 30.7889 90.5113 30.5584C90.525 30.3246 90.5405 30.0873 90.5577 29.8465C90.5749 29.6023 90.5955 29.3341 90.6196 29.0417C90.623 28.9626 90.6265 28.9007 90.6299 28.856C90.6368 28.8079 90.6437 28.7563 90.6506 28.7013C90.5921 28.7047 90.5302 28.7081 90.4648 28.7116C90.3995 28.715 90.3393 28.7185 90.2843 28.7219L90.3049 28.4536C90.4597 28.4536 90.5835 28.4468 90.6764 28.433C90.7692 28.4158 90.8397 28.3969 90.8879 28.3762C90.9395 28.3556 90.979 28.3333 91.0065 28.3092H91.1974ZM91.7184 29.8878C91.6325 29.8912 91.5482 29.9359 91.4657 30.0219C91.3831 30.1045 91.3075 30.2162 91.2387 30.3572C91.1733 30.4948 91.1149 30.653 91.0633 30.8319C91.0117 31.0073 90.9704 31.1895 90.9395 31.3787C90.9085 31.5678 90.8913 31.7518 90.8879 31.9307C90.9223 31.9651 90.9721 31.9909 91.0375 32.0081C91.1063 32.0218 91.1682 32.0287 91.2232 32.0287C91.3642 32.0253 91.4811 31.9926 91.574 31.9307C91.6703 31.8653 91.7477 31.7794 91.8061 31.6727C91.868 31.5661 91.9145 31.4475 91.9454 31.3168C91.9798 31.1861 92.0022 31.0554 92.0125 30.9247C92.0262 30.7906 92.0314 30.6651 92.028 30.5481C92.028 30.3314 92.0005 30.1664 91.9454 30.0529C91.8938 29.9394 91.8182 29.8843 91.7184 29.8878ZM93.8579 32.2608C93.7169 32.2608 93.6034 32.2299 93.5174 32.168C93.4349 32.1026 93.373 32.0167 93.3317 31.91C93.2939 31.8 93.275 31.6796 93.275 31.5489C93.275 31.377 93.287 31.2016 93.3111 31.0227C93.3386 30.8405 93.3644 30.6685 93.3884 30.5068C93.416 30.3452 93.4297 30.2111 93.4297 30.1045C93.4297 30.0426 93.4211 29.9927 93.4039 29.9549C93.3902 29.917 93.3592 29.8981 93.3111 29.8981C93.2629 29.8981 93.2096 29.9342 93.1511 30.0064C93.0927 30.0752 93.0376 30.1956 92.9861 30.3676L92.8003 30.3211C92.8107 30.2558 92.833 30.1818 92.8674 30.0993C92.9018 30.0133 92.9465 29.9308 93.0015 29.8517C93.06 29.7691 93.1288 29.7021 93.2079 29.6505C93.2904 29.5955 93.3867 29.5679 93.4968 29.5679C93.6515 29.5679 93.7633 29.6144 93.8321 29.7072C93.9009 29.7966 93.9353 29.9256 93.9353 30.0941C93.9353 30.1939 93.9267 30.3125 93.9095 30.4501C93.8957 30.5877 93.8785 30.7304 93.8579 30.8783C93.8373 31.0227 93.8183 31.1637 93.8012 31.3013C93.7874 31.4354 93.7805 31.5524 93.7805 31.6521C93.7805 31.6934 93.7857 31.7381 93.796 31.7862C93.8063 31.8309 93.8269 31.8688 93.8579 31.8997C93.8889 31.9272 93.9318 31.941 93.9869 31.941C94.0729 31.941 94.1571 31.8997 94.2397 31.8172C94.3222 31.7312 94.3996 31.616 94.4718 31.4715C94.5475 31.3271 94.6145 31.1672 94.673 30.9918C94.7349 30.8164 94.7831 30.6375 94.8174 30.4553C94.8518 30.2695 94.869 30.0941 94.869 29.9291C94.869 29.8809 94.8673 29.8293 94.8639 29.7743C94.8639 29.7193 94.8604 29.6694 94.8536 29.6247H95.3643C95.3712 29.666 95.3746 29.6986 95.3746 29.7227C95.3746 29.7433 95.3746 29.7674 95.3746 29.7949C95.3746 29.8603 95.3712 29.9377 95.3643 30.0271C95.3574 30.1131 95.3471 30.2197 95.3333 30.3469C95.3196 30.4742 95.3007 30.6289 95.2766 30.8112C95.2559 30.9763 95.2387 31.1104 95.225 31.2136C95.2147 31.3168 95.2044 31.401 95.194 31.4664C95.1872 31.5283 95.182 31.5799 95.1786 31.6212C95.1786 31.659 95.1786 31.6951 95.1786 31.7295C95.1786 31.788 95.1872 31.8361 95.2044 31.8739C95.2216 31.9083 95.2508 31.9255 95.2921 31.9255C95.3436 31.9255 95.4004 31.8911 95.4623 31.8223C95.5242 31.7536 95.5792 31.6332 95.6274 31.4612L95.8183 31.5077C95.8045 31.573 95.7821 31.6487 95.7512 31.7346C95.7202 31.8172 95.6772 31.8997 95.6222 31.9823C95.5672 32.0614 95.5001 32.1284 95.421 32.1835C95.3419 32.2351 95.2491 32.2608 95.1424 32.2608C95.0118 32.2608 94.9103 32.2213 94.8381 32.1422C94.7659 32.0631 94.7297 31.9479 94.7297 31.7966C94.7297 31.7071 94.7366 31.616 94.7504 31.5231C94.7676 31.4268 94.7848 31.3271 94.802 31.2239H94.7916C94.685 31.4991 94.5801 31.7123 94.477 31.8636C94.3772 32.0149 94.2758 32.1198 94.1726 32.1783C94.0729 32.2333 93.968 32.2608 93.8579 32.2608ZM96.8435 32.2608C96.699 32.2608 96.5597 32.2385 96.4256 32.1938C96.2949 32.1491 96.1883 32.0837 96.1057 31.9977C96.0266 31.9118 95.9871 31.8103 95.9871 31.6934C95.9871 31.6074 96.0112 31.5386 96.0593 31.487C96.1109 31.432 96.1728 31.4045 96.245 31.4045C96.3207 31.4045 96.3809 31.4303 96.4256 31.4819C96.4703 31.53 96.4927 31.5885 96.4927 31.6573C96.4927 31.6813 96.4892 31.7071 96.4823 31.7346C96.4755 31.7587 96.4651 31.7845 96.4514 31.812C96.4755 31.8739 96.527 31.9238 96.6061 31.9616C96.6853 31.9995 96.7644 32.0184 96.8435 32.0184C97.0189 32.0184 97.1461 31.9788 97.2252 31.8997C97.3078 31.8206 97.349 31.7157 97.349 31.585C97.349 31.5025 97.3181 31.4286 97.2562 31.3632C97.1977 31.2979 97.122 31.236 97.0292 31.1775C96.9363 31.119 96.84 31.0606 96.7403 31.0021C96.6199 30.9299 96.5116 30.8594 96.4153 30.7906C96.319 30.7218 96.2433 30.6461 96.1883 30.5636C96.1333 30.4811 96.1057 30.3865 96.1057 30.2799C96.1057 30.156 96.1436 30.0408 96.2192 29.9342C96.2949 29.8242 96.4015 29.7365 96.5391 29.6711C96.6801 29.6023 96.8435 29.5679 97.0292 29.5679C97.1633 29.5679 97.2906 29.5903 97.4109 29.635C97.5313 29.6763 97.631 29.7365 97.7101 29.8156C97.7892 29.8912 97.8288 29.9841 97.8288 30.0941C97.8288 30.1732 97.8047 30.2386 97.7566 30.2902C97.7084 30.3418 97.6482 30.3676 97.576 30.3676C97.5038 30.3676 97.4453 30.3435 97.4006 30.2953C97.3559 30.2437 97.3335 30.187 97.3335 30.1251C97.3335 30.0976 97.337 30.0718 97.3439 30.0477C97.3507 30.0202 97.3611 29.9927 97.3748 29.9652C97.3542 29.9136 97.3112 29.8723 97.2458 29.8414C97.1839 29.8104 97.1066 29.7949 97.0137 29.7949C96.9449 29.7949 96.8778 29.8104 96.8125 29.8414C96.7472 29.8689 96.6921 29.9101 96.6474 29.9652C96.6027 30.0168 96.5804 30.0804 96.5804 30.156C96.5804 30.2145 96.5976 30.2695 96.6319 30.3211C96.6663 30.3693 96.7162 30.4174 96.7815 30.4656C96.8469 30.5103 96.9277 30.5636 97.024 30.6255C97.1444 30.6943 97.2682 30.7682 97.3955 30.8473C97.5227 30.9264 97.6293 31.0176 97.7153 31.1207C97.8013 31.2239 97.8443 31.3477 97.8443 31.4922C97.8443 31.6401 97.8013 31.7725 97.7153 31.8894C97.6293 32.0063 97.5107 32.0975 97.3593 32.1628C97.2115 32.2282 97.0395 32.2608 96.8435 32.2608ZM98.812 29.5679C98.9668 29.5679 99.0803 29.6195 99.1525 29.7227C99.2247 29.8224 99.2609 29.9566 99.2609 30.1251C99.2609 30.2214 99.2505 30.3383 99.2299 30.4759C99.2127 30.61 99.1903 30.7528 99.1628 30.9041C99.1388 31.0554 99.1181 31.2033 99.1009 31.3477C99.0837 31.4922 99.0751 31.6229 99.0751 31.7398C99.0751 31.8052 99.0854 31.8533 99.1061 31.8843C99.1302 31.9152 99.1628 31.9307 99.2041 31.9307C99.2591 31.9307 99.3159 31.8963 99.3743 31.8275C99.4363 31.7553 99.4913 31.6332 99.5394 31.4612L99.7303 31.5077C99.7165 31.5799 99.6925 31.6607 99.6581 31.7501C99.6237 31.8361 99.5773 31.9186 99.5188 31.9977C99.4638 32.0734 99.3967 32.137 99.3176 32.1886C99.2385 32.2368 99.1474 32.2608 99.0442 32.2608C98.8757 32.2608 98.7536 32.2161 98.6779 32.1267C98.6057 32.0373 98.5696 31.91 98.5696 31.745C98.5696 31.6108 98.5782 31.4733 98.5954 31.3323C98.616 31.1913 98.6384 31.0502 98.6624 30.9092C98.6865 30.7682 98.7089 30.6307 98.7295 30.4965C98.7501 30.359 98.7604 30.2265 98.7604 30.0993C98.7604 30.0511 98.7501 30.0064 98.7295 29.9652C98.7123 29.9205 98.6813 29.8981 98.6366 29.8981C98.585 29.8981 98.5283 29.9342 98.4664 30.0064C98.4045 30.0752 98.3495 30.1956 98.3013 30.3676L98.1104 30.3211C98.1242 30.2558 98.1483 30.1818 98.1827 30.0993C98.217 30.0133 98.2618 29.9308 98.3168 29.8517C98.3753 29.7691 98.444 29.7021 98.5231 29.6505C98.6057 29.5955 98.702 29.5679 98.812 29.5679ZM99.07 28.3917C99.1594 28.3917 99.2333 28.4244 99.2918 28.4897C99.3503 28.5516 99.3778 28.6325 99.3743 28.7322C99.3743 28.8285 99.3434 28.9076 99.2815 28.9695C99.2196 29.0314 99.1439 29.0624 99.0545 29.0624C98.9651 29.0624 98.8911 29.0314 98.8327 28.9695C98.7742 28.9076 98.745 28.8285 98.745 28.7322C98.7484 28.6325 98.7811 28.5516 98.843 28.4897C98.9083 28.4244 98.984 28.3917 99.07 28.3917ZM102.197 32.2608C102.028 32.2608 101.913 32.2161 101.851 32.1267C101.789 32.0339 101.758 31.9032 101.758 31.7346C101.758 31.6383 101.765 31.5249 101.779 31.3942C101.796 31.2635 101.813 31.1276 101.83 30.9866C101.851 30.8422 101.868 30.6994 101.882 30.5584C101.899 30.4174 101.908 30.2885 101.908 30.1715C101.908 30.1268 101.901 30.0838 101.887 30.0426C101.877 29.9978 101.856 29.9617 101.825 29.9342C101.798 29.9033 101.755 29.8878 101.696 29.8878C101.614 29.8878 101.528 29.9308 101.438 30.0168C101.352 30.0993 101.27 30.2128 101.191 30.3572C101.115 30.5017 101.046 30.6616 100.984 30.837C100.922 31.0124 100.872 31.193 100.835 31.3787C100.8 31.561 100.783 31.7346 100.783 31.8997C100.783 31.9479 100.783 31.9995 100.783 32.0545C100.786 32.1095 100.79 32.1594 100.793 32.2041H100.283C100.279 32.1628 100.277 32.1319 100.277 32.1112C100.277 32.0872 100.277 32.0614 100.277 32.0339C100.277 31.9685 100.281 31.8946 100.288 31.812C100.295 31.726 100.305 31.6212 100.319 31.4973C100.336 31.3735 100.355 31.2205 100.375 31.0382C100.393 30.8731 100.406 30.739 100.417 30.6358C100.43 30.5292 100.441 30.4432 100.448 30.3779C100.458 30.3091 100.465 30.2541 100.468 30.2128C100.472 30.1715 100.473 30.1337 100.473 30.0993C100.473 30.0374 100.465 29.9892 100.448 29.9549C100.43 29.917 100.4 29.8981 100.355 29.8981C100.307 29.8981 100.252 29.9342 100.19 30.0064C100.128 30.0752 100.071 30.1956 100.019 30.3676L99.8286 30.3211C99.8424 30.2558 99.8647 30.1818 99.8957 30.0993C99.9301 30.0133 99.9748 29.9308 100.03 29.8517C100.085 29.7691 100.152 29.7021 100.231 29.6505C100.31 29.5955 100.403 29.5679 100.51 29.5679C100.613 29.5679 100.694 29.5937 100.752 29.6453C100.811 29.6969 100.852 29.7674 100.876 29.8568C100.9 29.9463 100.91 30.0494 100.907 30.1664C100.903 30.2523 100.895 30.3314 100.881 30.4037C100.867 30.4759 100.855 30.5447 100.845 30.61H100.855C100.962 30.3349 101.068 30.1217 101.175 29.9703C101.285 29.819 101.395 29.7141 101.505 29.6556C101.615 29.5972 101.724 29.5679 101.83 29.5679C101.971 29.5679 102.083 29.6006 102.166 29.666C102.252 29.7279 102.313 29.8121 102.351 29.9187C102.389 30.0254 102.408 30.1457 102.408 30.2799C102.408 30.4484 102.396 30.6238 102.372 30.8061C102.348 30.9883 102.324 31.1603 102.3 31.3219C102.276 31.4836 102.264 31.6177 102.264 31.7243C102.264 31.7862 102.27 31.8361 102.284 31.8739C102.301 31.9118 102.334 31.9307 102.382 31.9307C102.434 31.9307 102.489 31.8963 102.547 31.8275C102.609 31.7587 102.666 31.6366 102.718 31.4612L102.903 31.5128C102.893 31.5747 102.871 31.6487 102.836 31.7346C102.802 31.8206 102.755 31.9032 102.697 31.9823C102.638 32.0614 102.568 32.1284 102.485 32.1835C102.403 32.2351 102.307 32.2608 102.197 32.2608ZM104.406 29.5679C104.54 29.5679 104.662 29.5886 104.772 29.6298C104.886 29.6677 104.977 29.7313 105.046 29.8207C105.114 29.9101 105.149 30.0305 105.149 30.1818C105.149 30.3228 105.102 30.4449 105.01 30.5481C104.917 30.6479 104.796 30.7304 104.648 30.7957C104.501 30.8611 104.341 30.9144 104.169 30.9557C103.997 30.9935 103.832 31.0227 103.673 31.0434C103.673 31.2497 103.696 31.4182 103.74 31.5489C103.785 31.6796 103.847 31.7759 103.926 31.8378C104.009 31.8997 104.107 31.9307 104.22 31.9307C104.306 31.9307 104.396 31.9118 104.488 31.8739C104.585 31.8361 104.678 31.7759 104.767 31.6934C104.856 31.6074 104.937 31.4922 105.01 31.3477L105.221 31.4612C105.125 31.6538 105.02 31.8103 104.906 31.9307C104.793 32.0476 104.671 32.1319 104.54 32.1835C104.409 32.2351 104.268 32.2608 104.117 32.2608C103.794 32.2608 103.55 32.1628 103.384 31.9668C103.219 31.7673 103.137 31.4922 103.137 31.1414C103.137 30.9557 103.163 30.7699 103.214 30.5842C103.266 30.3951 103.343 30.2248 103.446 30.0735C103.55 29.9187 103.682 29.7966 103.844 29.7072C104.005 29.6144 104.193 29.5679 104.406 29.5679ZM104.339 29.8001C104.194 29.8001 104.076 29.85 103.983 29.9497C103.893 30.046 103.825 30.1715 103.777 30.3263C103.728 30.4811 103.697 30.641 103.684 30.8061C103.866 30.7785 104.031 30.7356 104.179 30.6771C104.327 30.6152 104.444 30.5395 104.53 30.4501C104.619 30.3572 104.662 30.2541 104.659 30.1406C104.659 30.0374 104.629 29.9549 104.571 29.8929C104.516 29.831 104.439 29.8001 104.339 29.8001ZM106.4 32.2608C106.256 32.2608 106.117 32.2385 105.983 32.1938C105.852 32.1491 105.745 32.0837 105.663 31.9977C105.584 31.9118 105.544 31.8103 105.544 31.6934C105.544 31.6074 105.568 31.5386 105.616 31.487C105.668 31.432 105.73 31.4045 105.802 31.4045C105.878 31.4045 105.938 31.4303 105.983 31.4819C106.027 31.53 106.05 31.5885 106.05 31.6573C106.05 31.6813 106.046 31.7071 106.039 31.7346C106.032 31.7587 106.022 31.7845 106.008 31.812C106.032 31.8739 106.084 31.9238 106.163 31.9616C106.242 31.9995 106.321 32.0184 106.4 32.0184C106.576 32.0184 106.703 31.9788 106.782 31.8997C106.865 31.8206 106.906 31.7157 106.906 31.585C106.906 31.5025 106.875 31.4286 106.813 31.3632C106.755 31.2979 106.679 31.236 106.586 31.1775C106.493 31.119 106.397 31.0606 106.297 31.0021C106.177 30.9299 106.069 30.8594 105.972 30.7906C105.876 30.7218 105.8 30.6461 105.745 30.5636C105.69 30.4811 105.663 30.3865 105.663 30.2799C105.663 30.156 105.701 30.0408 105.776 29.9342C105.852 29.8242 105.958 29.7365 106.096 29.6711C106.237 29.6023 106.4 29.5679 106.586 29.5679C106.72 29.5679 106.847 29.5903 106.968 29.635C107.088 29.6763 107.188 29.7365 107.267 29.8156C107.346 29.8912 107.386 29.9841 107.386 30.0941C107.386 30.1732 107.362 30.2386 107.314 30.2902C107.265 30.3418 107.205 30.3676 107.133 30.3676C107.061 30.3676 107.002 30.3435 106.958 30.2953C106.913 30.2437 106.89 30.187 106.89 30.1251C106.89 30.0976 106.894 30.0718 106.901 30.0477C106.908 30.0202 106.918 29.9927 106.932 29.9652C106.911 29.9136 106.868 29.8723 106.803 29.8414C106.741 29.8104 106.663 29.7949 106.571 29.7949C106.502 29.7949 106.435 29.8104 106.369 29.8414C106.304 29.8689 106.249 29.9101 106.204 29.9652C106.16 30.0168 106.137 30.0804 106.137 30.156C106.137 30.2145 106.154 30.2695 106.189 30.3211C106.223 30.3693 106.273 30.4174 106.338 30.4656C106.404 30.5103 106.485 30.5636 106.581 30.6255C106.701 30.6943 106.825 30.7682 106.952 30.8473C107.08 30.9264 107.186 31.0176 107.272 31.1207C107.358 31.2239 107.401 31.3477 107.401 31.4922C107.401 31.6401 107.358 31.7725 107.272 31.8894C107.186 32.0063 107.068 32.0975 106.916 32.1628C106.768 32.2282 106.596 32.2608 106.4 32.2608ZM108.637 32.2608C108.493 32.2608 108.353 32.2385 108.219 32.1938C108.089 32.1491 107.982 32.0837 107.9 31.9977C107.82 31.9118 107.781 31.8103 107.781 31.6934C107.781 31.6074 107.805 31.5386 107.853 31.487C107.905 31.432 107.967 31.4045 108.039 31.4045C108.114 31.4045 108.175 31.4303 108.219 31.4819C108.264 31.53 108.286 31.5885 108.286 31.6573C108.286 31.6813 108.283 31.7071 108.276 31.7346C108.269 31.7587 108.259 31.7845 108.245 31.812C108.269 31.8739 108.321 31.9238 108.4 31.9616C108.479 31.9995 108.558 32.0184 108.637 32.0184C108.813 32.0184 108.94 31.9788 109.019 31.8997C109.102 31.8206 109.143 31.7157 109.143 31.585C109.143 31.5025 109.112 31.4286 109.05 31.3632C108.991 31.2979 108.916 31.236 108.823 31.1775C108.73 31.119 108.634 31.0606 108.534 31.0021C108.414 30.9299 108.305 30.8594 108.209 30.7906C108.113 30.7218 108.037 30.6461 107.982 30.5636C107.927 30.4811 107.9 30.3865 107.9 30.2799C107.9 30.156 107.937 30.0408 108.013 29.9342C108.089 29.8242 108.195 29.7365 108.333 29.6711C108.474 29.6023 108.637 29.5679 108.823 29.5679C108.957 29.5679 109.084 29.5903 109.205 29.635C109.325 29.6763 109.425 29.7365 109.504 29.8156C109.583 29.8912 109.623 29.9841 109.623 30.0941C109.623 30.1732 109.598 30.2386 109.55 30.2902C109.502 30.3418 109.442 30.3676 109.37 30.3676C109.298 30.3676 109.239 30.3435 109.194 30.2953C109.15 30.2437 109.127 30.187 109.127 30.1251C109.127 30.0976 109.131 30.0718 109.138 30.0477C109.145 30.0202 109.155 29.9927 109.169 29.9652C109.148 29.9136 109.105 29.8723 109.04 29.8414C108.978 29.8104 108.9 29.7949 108.807 29.7949C108.739 29.7949 108.672 29.8104 108.606 29.8414C108.541 29.8689 108.486 29.9101 108.441 29.9652C108.396 30.0168 108.374 30.0804 108.374 30.156C108.374 30.2145 108.391 30.2695 108.426 30.3211C108.46 30.3693 108.51 30.4174 108.575 30.4656C108.641 30.5103 108.721 30.5636 108.818 30.6255C108.938 30.6943 109.062 30.7682 109.189 30.8473C109.316 30.9264 109.423 31.0176 109.509 31.1207C109.595 31.2239 109.638 31.3477 109.638 31.4922C109.638 31.6401 109.595 31.7725 109.509 31.8894C109.423 32.0063 109.304 32.0975 109.153 32.1628C109.005 32.2282 108.833 32.2608 108.637 32.2608ZM111.328 29.5679C111.462 29.5679 111.584 29.5886 111.694 29.6298C111.808 29.6677 111.899 29.7313 111.968 29.8207C112.037 29.9101 112.071 30.0305 112.071 30.1818C112.071 30.3228 112.024 30.4449 111.932 30.5481C111.839 30.6479 111.718 30.7304 111.571 30.7957C111.423 30.8611 111.263 30.9144 111.091 30.9557C110.919 30.9935 110.754 31.0227 110.595 31.0434C110.595 31.2497 110.618 31.4182 110.663 31.5489C110.707 31.6796 110.769 31.7759 110.848 31.8378C110.931 31.8997 111.029 31.9307 111.142 31.9307C111.228 31.9307 111.318 31.9118 111.411 31.8739C111.507 31.8361 111.6 31.7759 111.689 31.6934C111.779 31.6074 111.859 31.4922 111.932 31.3477L112.143 31.4612C112.047 31.6538 111.942 31.8103 111.828 31.9307C111.715 32.0476 111.593 32.1319 111.462 32.1835C111.331 32.2351 111.19 32.2608 111.039 32.2608C110.716 32.2608 110.472 32.1628 110.307 31.9668C110.142 31.7673 110.059 31.4922 110.059 31.1414C110.059 30.9557 110.085 30.7699 110.136 30.5842C110.188 30.3951 110.265 30.2248 110.368 30.0735C110.472 29.9187 110.604 29.7966 110.766 29.7072C110.927 29.6144 111.115 29.5679 111.328 29.5679ZM111.261 29.8001C111.117 29.8001 110.998 29.85 110.905 29.9497C110.816 30.046 110.747 30.1715 110.699 30.3263C110.651 30.4811 110.62 30.641 110.606 30.8061C110.788 30.7785 110.953 30.7356 111.101 30.6771C111.249 30.6152 111.366 30.5395 111.452 30.4501C111.541 30.3572 111.584 30.2541 111.581 30.1406C111.581 30.0374 111.552 29.9549 111.493 29.8929C111.438 29.831 111.361 29.8001 111.261 29.8001ZM113.322 32.2608C113.178 32.2608 113.039 32.2385 112.905 32.1938C112.774 32.1491 112.667 32.0837 112.585 31.9977C112.506 31.9118 112.466 31.8103 112.466 31.6934C112.466 31.6074 112.49 31.5386 112.538 31.487C112.59 31.432 112.652 31.4045 112.724 31.4045C112.8 31.4045 112.86 31.4303 112.905 31.4819C112.949 31.53 112.972 31.5885 112.972 31.6573C112.972 31.6813 112.968 31.7071 112.961 31.7346C112.954 31.7587 112.944 31.7845 112.93 31.812C112.954 31.8739 113.006 31.9238 113.085 31.9616C113.164 31.9995 113.243 32.0184 113.322 32.0184C113.498 32.0184 113.625 31.9788 113.704 31.8997C113.787 31.8206 113.828 31.7157 113.828 31.585C113.828 31.5025 113.797 31.4286 113.735 31.3632C113.677 31.2979 113.601 31.236 113.508 31.1775C113.415 31.119 113.319 31.0606 113.219 31.0021C113.099 30.9299 112.991 30.8594 112.894 30.7906C112.798 30.7218 112.722 30.6461 112.667 30.5636C112.612 30.4811 112.585 30.3865 112.585 30.2799C112.585 30.156 112.623 30.0408 112.698 29.9342C112.774 29.8242 112.881 29.7365 113.018 29.6711C113.159 29.6023 113.322 29.5679 113.508 29.5679C113.642 29.5679 113.77 29.5903 113.89 29.635C114.01 29.6763 114.11 29.7365 114.189 29.8156C114.268 29.8912 114.308 29.9841 114.308 30.0941C114.308 30.1732 114.284 30.2386 114.236 30.2902C114.187 30.3418 114.127 30.3676 114.055 30.3676C113.983 30.3676 113.924 30.3435 113.88 30.2953C113.835 30.2437 113.813 30.187 113.813 30.1251C113.813 30.0976 113.816 30.0718 113.823 30.0477C113.83 30.0202 113.84 29.9927 113.854 29.9652C113.833 29.9136 113.79 29.8723 113.725 29.8414C113.663 29.8104 113.586 29.7949 113.493 29.7949C113.424 29.7949 113.357 29.8104 113.292 29.8414C113.226 29.8689 113.171 29.9101 113.126 29.9652C113.082 30.0168 113.059 30.0804 113.059 30.156C113.059 30.2145 113.077 30.2695 113.111 30.3211C113.145 30.3693 113.195 30.4174 113.261 30.4656C113.326 30.5103 113.407 30.5636 113.503 30.6255C113.623 30.6943 113.747 30.7682 113.874 30.8473C114.002 30.9264 114.108 31.0176 114.194 31.1207C114.28 31.2239 114.323 31.3477 114.323 31.4922C114.323 31.6401 114.28 31.7725 114.194 31.8894C114.108 32.0063 113.99 32.0975 113.838 32.1628C113.69 32.2282 113.519 32.2608 113.322 32.2608Z" fill="white"/>
</svg>
