<svg width="116" height="43" viewBox="0 0 116 43" fill="none" xmlns="http://www.w3.org/2000/svg">
<path d="M14.79 21.9468L28.9651 11.2291C29.0524 11.1631 29.1037 11.06 29.1037 10.9506V1.67455C29.1037 1.39133 28.7842 1.22598 28.553 1.38953L14.9375 11.02C14.845 11.0854 14.79 11.1917 14.79 11.305V21.9468ZM14.79 21.9468V32.2457M14.79 21.9468L1.56465 11.5675C1.33556 11.3877 1 11.5509 1 11.8421L1 20.9076C1 21.0129 1.04753 21.1126 1.12935 21.1788L14.79 32.2457M14.79 32.2457L28.5507 22.3447C28.7816 22.1786 29.1037 22.3436 29.1037 22.6281V32.065C29.1037 32.1783 29.0487 32.2846 28.9562 32.35L15.3407 41.9805C15.1095 42.144 14.79 41.9787 14.79 41.6955V32.2457Z" stroke="#3CB446" stroke-width="1.74557"/>
<path d="M36.5773 17.4808L34.9166 12.5129H35.6476L37.1735 17.0976H36.8044L38.3871 12.5129H39.04L40.5872 17.0976H40.2323L41.7795 12.5129H42.4537L40.793 17.4808H40.0478L38.6 13.2297H38.7916L37.3367 17.4808H36.5773ZM43.2226 17.4808V13.7194H43.9039V17.4808H43.2226ZM43.5632 12.9955C43.4307 12.9955 43.3196 12.9529 43.2297 12.8677C43.1445 12.7825 43.1019 12.6785 43.1019 12.5554C43.1019 12.4277 43.1445 12.3212 43.2297 12.2361C43.3196 12.1509 43.4307 12.1083 43.5632 12.1083C43.6957 12.1083 43.8045 12.1509 43.8897 12.2361C43.9796 12.3165 44.0245 12.4182 44.0245 12.5412C44.0245 12.669 43.982 12.7778 43.8968 12.8677C43.8116 12.9529 43.7004 12.9955 43.5632 12.9955ZM46.759 17.5234C46.3947 17.5234 46.0682 17.443 45.7796 17.2821C45.4957 17.1212 45.271 16.8965 45.1054 16.6079C44.9398 16.3193 44.857 15.9833 44.857 15.6001C44.857 15.2169 44.9398 14.8833 45.1054 14.5994C45.271 14.3108 45.4957 14.0861 45.7796 13.9252C46.0682 13.7643 46.3947 13.6839 46.759 13.6839C47.076 13.6839 47.3623 13.7549 47.6178 13.8968C47.8733 14.0387 48.0767 14.2517 48.2281 14.5355C48.3843 14.8194 48.4623 15.1743 48.4623 15.6001C48.4623 16.0259 48.3866 16.3808 48.2352 16.6647C48.0886 16.9486 47.8875 17.1638 47.632 17.3105C47.3765 17.4524 47.0855 17.5234 46.759 17.5234ZM46.8158 16.9273C47.0524 16.9273 47.2653 16.8728 47.4545 16.764C47.6485 16.6552 47.7999 16.5014 47.9088 16.3027C48.0223 16.0993 48.0791 15.8651 48.0791 15.6001C48.0791 15.3304 48.0223 15.0986 47.9088 14.9046C47.7999 14.7059 47.6485 14.5521 47.4545 14.4433C47.2653 14.3344 47.0524 14.28 46.8158 14.28C46.5745 14.28 46.3592 14.3344 46.17 14.4433C45.9807 14.5521 45.8293 14.7059 45.7158 14.9046C45.6022 15.0986 45.5454 15.3304 45.5454 15.6001C45.5454 15.8651 45.6022 16.0993 45.7158 16.3027C45.8293 16.5014 45.9807 16.6552 46.17 16.764C46.3592 16.8728 46.5745 16.9273 46.8158 16.9273ZM48.1004 17.4808V16.4659L48.143 15.593L48.072 14.7201V12.2148H48.7533V17.4808H48.1004ZM51.7174 17.5234C51.3152 17.5234 50.9603 17.4406 50.6528 17.275C50.35 17.1094 50.1134 16.8823 49.9431 16.5937C49.7775 16.3051 49.6947 15.9739 49.6947 15.6001C49.6947 15.2263 49.7751 14.8951 49.936 14.6065C50.1016 14.3179 50.3263 14.0931 50.6102 13.9323C50.8988 13.7667 51.2229 13.6839 51.5825 13.6839C51.9468 13.6839 52.2686 13.7643 52.5477 13.9252C52.8269 14.0861 53.0445 14.3132 53.2007 14.6065C53.3615 14.8951 53.442 15.2334 53.442 15.6214C53.442 15.6498 53.4396 15.6829 53.4349 15.7208C53.4349 15.7586 53.4325 15.7941 53.4278 15.8272H50.227V15.3375H53.0729L52.7961 15.5078C52.8008 15.2665 52.7512 15.0513 52.6471 14.862C52.543 14.6727 52.3987 14.5261 52.2142 14.422C52.0344 14.3132 51.8238 14.2587 51.5825 14.2587C51.3459 14.2587 51.1354 14.3132 50.9509 14.422C50.7663 14.5261 50.622 14.6751 50.5179 14.8691C50.4139 15.0584 50.3618 15.276 50.3618 15.522V15.6356C50.3618 15.8864 50.4186 16.1111 50.5321 16.3098C50.6504 16.5038 50.8137 16.6552 51.0218 16.764C51.23 16.8728 51.469 16.9273 51.7386 16.9273C51.961 16.9273 52.1621 16.8894 52.3419 16.8137C52.5264 16.738 52.6873 16.6245 52.8245 16.473L53.2007 16.9131C53.0303 17.1118 52.8174 17.2632 52.5619 17.3673C52.3111 17.4714 52.0296 17.5234 51.7174 17.5234ZM54.388 17.4808V13.7194H55.041V14.7414L54.9771 14.4859C55.0812 14.2256 55.2562 14.0269 55.5023 13.8897C55.7483 13.7525 56.0511 13.6839 56.4107 13.6839V14.3439C56.3823 14.3392 56.3539 14.3368 56.3255 14.3368C56.3019 14.3368 56.2782 14.3368 56.2546 14.3368C55.8903 14.3368 55.6016 14.4456 55.3887 14.6633C55.1758 14.8809 55.0694 15.1956 55.0694 15.6072V17.4808H54.388ZM59.3043 17.4808V12.5129H59.8862L63.1722 16.5937H62.867V12.5129H63.5767V17.4808H62.9948L59.7088 13.4H60.014V17.4808H59.3043ZM66.6393 17.5234C66.2371 17.5234 65.8823 17.4406 65.5747 17.275C65.2719 17.1094 65.0354 16.8823 64.865 16.5937C64.6994 16.3051 64.6166 15.9739 64.6166 15.6001C64.6166 15.2263 64.6971 14.8951 64.8579 14.6065C65.0235 14.3179 65.2483 14.0931 65.5322 13.9323C65.8208 13.7667 66.1449 13.6839 66.5045 13.6839C66.8688 13.6839 67.1905 13.7643 67.4697 13.9252C67.7488 14.0861 67.9665 14.3132 68.1226 14.6065C68.2835 14.8951 68.3639 15.2334 68.3639 15.6214C68.3639 15.6498 68.3615 15.6829 68.3568 15.7208C68.3568 15.7586 68.3544 15.7941 68.3497 15.8272H65.1489V15.3375H67.9949L67.7181 15.5078C67.7228 15.2665 67.6731 15.0513 67.569 14.862C67.4649 14.6727 67.3206 14.5261 67.1361 14.422C66.9563 14.3132 66.7458 14.2587 66.5045 14.2587C66.2679 14.2587 66.0573 14.3132 65.8728 14.422C65.6883 14.5261 65.544 14.6751 65.4399 14.8691C65.3358 15.0584 65.2838 15.276 65.2838 15.522V15.6356C65.2838 15.8864 65.3405 16.1111 65.4541 16.3098C65.5724 16.5038 65.7356 16.6552 65.9438 16.764C66.152 16.8728 66.3909 16.9273 66.6606 16.9273C66.883 16.9273 67.0841 16.8894 67.2639 16.8137C67.4484 16.738 67.6092 16.6245 67.7465 16.473L68.1226 16.9131C67.9523 17.1118 67.7394 17.2632 67.4839 17.3673C67.2331 17.4714 66.9516 17.5234 66.6393 17.5234ZM70.6017 17.5234C70.2231 17.5234 69.9298 17.4217 69.7216 17.2182C69.5134 17.0148 69.4093 16.7238 69.4093 16.3453V12.8961H70.0907V16.3169C70.0907 16.5204 70.1403 16.6765 70.2397 16.7853C70.3438 16.8941 70.4905 16.9486 70.6797 16.9486C70.8926 16.9486 71.0701 16.8894 71.212 16.7711L71.4249 17.2608C71.3208 17.3507 71.1954 17.417 71.0488 17.4595C70.9068 17.5021 70.7578 17.5234 70.6017 17.5234ZM68.7706 14.28V13.7194H71.1694V14.28H68.7706ZM72.9867 14.862H75.5488V15.4724H72.9867V14.862ZM73.0577 17.4808H72.348V12.5129H75.854V13.1303H73.0577V17.4808ZM78.95 17.4808V16.686L78.9145 16.5369V15.1814C78.9145 14.8928 78.8293 14.6704 78.659 14.5142C78.4934 14.3534 78.2426 14.2729 77.9067 14.2729C77.6843 14.2729 77.4667 14.3108 77.2538 14.3865C77.0408 14.4575 76.861 14.5545 76.7144 14.6775L76.4305 14.1665C76.6245 14.0103 76.8563 13.8921 77.126 13.8116C77.4004 13.7265 77.6867 13.6839 77.9848 13.6839C78.5005 13.6839 78.8979 13.8093 79.1771 14.06C79.4562 14.3108 79.5958 14.694 79.5958 15.2098V17.4808H78.95ZM77.7151 17.5234C77.4359 17.5234 77.1899 17.4761 76.977 17.3815C76.7688 17.2868 76.6079 17.1567 76.4944 16.9911C76.3808 16.8208 76.324 16.6292 76.324 16.4163C76.324 16.2128 76.3713 16.0283 76.466 15.8627C76.5653 15.6971 76.7238 15.5646 76.9415 15.4653C77.1639 15.3659 77.4619 15.3162 77.8357 15.3162H79.028V15.8059H77.8641C77.5234 15.8059 77.294 15.8627 77.1757 15.9762C77.0574 16.0898 76.9983 16.227 76.9983 16.3879C76.9983 16.5724 77.0716 16.7214 77.2183 16.835C77.3649 16.9438 77.5684 16.9982 77.8286 16.9982C78.0841 16.9982 78.3065 16.9415 78.4957 16.8279C78.6897 16.7143 78.8293 16.5487 78.9145 16.3311L79.0493 16.7995C78.9594 17.0219 78.8009 17.1993 78.5738 17.3318C78.3467 17.4595 78.0605 17.5234 77.7151 17.5234ZM80.8566 17.4808V13.7194H81.5096V14.7414L81.4457 14.4859C81.5498 14.2256 81.7249 14.0269 81.9709 13.8897C82.2169 13.7525 82.5197 13.6839 82.8793 13.6839V14.3439C82.8509 14.3392 82.8225 14.3368 82.7942 14.3368C82.7705 14.3368 82.7468 14.3368 82.7232 14.3368C82.3589 14.3368 82.0702 14.4456 81.8573 14.6633C81.6444 14.8809 81.538 15.1956 81.538 15.6072V17.4808H80.8566ZM88.4244 13.6839C88.7272 13.6839 88.9946 13.743 89.2264 13.8613C89.4582 13.9796 89.638 14.1594 89.7658 14.4007C89.8983 14.642 89.9645 14.9472 89.9645 15.3162V17.4808H89.2832V15.3943C89.2832 15.03 89.198 14.7555 89.0277 14.571C88.8574 14.3865 88.6184 14.2942 88.3109 14.2942C88.0838 14.2942 87.8851 14.3415 87.7147 14.4362C87.5444 14.5308 87.4119 14.6704 87.3173 14.8549C87.2274 15.0394 87.1824 15.2689 87.1824 15.5433V17.4808H86.5011V15.3943C86.5011 15.03 86.416 14.7555 86.2456 14.571C86.08 14.3865 85.8411 14.2942 85.5288 14.2942C85.3064 14.2942 85.1101 14.3415 84.9398 14.4362C84.7694 14.5308 84.6369 14.6704 84.5423 14.8549C84.4477 15.0394 84.4004 15.2689 84.4004 15.5433V17.4808H83.7191V13.7194H84.372V14.7201L84.2655 14.4646C84.3838 14.2185 84.566 14.0269 84.812 13.8897C85.058 13.7525 85.3443 13.6839 85.6708 13.6839C86.0303 13.6839 86.3403 13.7738 86.6005 13.9536C86.8607 14.1286 87.031 14.396 87.1115 14.7555L86.8347 14.642C86.9482 14.3534 87.147 14.1215 87.4308 13.9465C87.7147 13.7714 88.0459 13.6839 88.4244 13.6839ZM92.2969 17.5234C91.9846 17.5234 91.6866 17.4808 91.4027 17.3957C91.1235 17.3105 90.9035 17.2064 90.7426 17.0834L91.0265 16.544C91.1874 16.6528 91.3861 16.7451 91.6227 16.8208C91.8593 16.8965 92.1006 16.9344 92.3466 16.9344C92.6636 16.9344 92.8907 16.8894 93.0279 16.7995C93.1698 16.7096 93.2408 16.5842 93.2408 16.4234C93.2408 16.3051 93.1982 16.2128 93.1131 16.1466C93.0279 16.0803 92.9144 16.0307 92.7724 15.9975C92.6352 15.9644 92.4814 15.936 92.3111 15.9124C92.1408 15.884 91.9704 15.8509 91.8001 15.813C91.6298 15.7704 91.4736 15.7137 91.3317 15.6427C91.1898 15.567 91.0762 15.4653 90.991 15.3375C90.9059 15.205 90.8633 15.03 90.8633 14.8123C90.8633 14.5852 90.9272 14.3865 91.0549 14.2162C91.1827 14.0458 91.3625 13.9157 91.5943 13.8258C91.8309 13.7312 92.11 13.6839 92.4318 13.6839C92.6778 13.6839 92.9262 13.7146 93.1769 13.7761C93.4324 13.8329 93.6406 13.9157 93.8015 14.0245L93.5105 14.5639C93.3402 14.4504 93.1628 14.3723 92.9782 14.3297C92.7937 14.2871 92.6092 14.2658 92.4247 14.2658C92.1266 14.2658 91.9042 14.3155 91.7575 14.4149C91.6109 14.5095 91.5375 14.6325 91.5375 14.7839C91.5375 14.9117 91.5801 15.011 91.6653 15.082C91.7552 15.1483 91.8687 15.2003 92.0059 15.2381C92.1479 15.276 92.304 15.3091 92.4743 15.3375C92.6447 15.3612 92.815 15.3943 92.9853 15.4369C93.1557 15.4747 93.3094 15.5291 93.4466 15.6001C93.5886 15.6711 93.7021 15.7704 93.7873 15.8982C93.8772 16.0259 93.9221 16.1963 93.9221 16.4092C93.9221 16.6363 93.8559 16.8326 93.7234 16.9982C93.5909 17.1638 93.4041 17.2939 93.1628 17.3886C92.9215 17.4785 92.6328 17.5234 92.2969 17.5234Z" fill="#222222"/>
<path d="M35.4188 25.0342V20.1724H37.4677C37.9863 20.1724 38.4424 20.2742 38.8359 20.478C39.2342 20.6817 39.5421 20.9665 39.7597 21.3322C39.9819 21.698 40.0931 22.1217 40.0931 22.6033C40.0931 23.0848 39.9819 23.5085 39.7597 23.8743C39.5421 24.2401 39.2342 24.5248 38.8359 24.7286C38.4424 24.9323 37.9863 25.0342 37.4677 25.0342H35.4188ZM36.1133 24.4299H37.426C37.8289 24.4299 38.1761 24.3535 38.4678 24.2007C38.7642 24.0479 38.9934 23.8349 39.1554 23.5617C39.3175 23.2839 39.3985 22.9644 39.3985 22.6033C39.3985 22.2375 39.3175 21.918 39.1554 21.6448C38.9934 21.3716 38.7642 21.1586 38.4678 21.0058C38.1761 20.853 37.8289 20.7766 37.426 20.7766H36.1133V24.4299ZM41.0597 25.0342V21.3531H41.7265V25.0342H41.0597ZM41.3931 20.6446C41.2634 20.6446 41.1546 20.603 41.0666 20.5196C40.9833 20.4363 40.9416 20.3344 40.9416 20.214C40.9416 20.089 40.9833 19.9848 41.0666 19.9015C41.1546 19.8181 41.2634 19.7765 41.3931 19.7765C41.5227 19.7765 41.6292 19.8181 41.7126 19.9015C41.8005 19.9802 41.8445 20.0798 41.8445 20.2001C41.8445 20.3252 41.8029 20.4317 41.7195 20.5196C41.6362 20.603 41.5273 20.6446 41.3931 20.6446ZM44.6109 26.4233C44.2729 26.4233 43.9441 26.3747 43.6246 26.2774C43.3098 26.1848 43.0528 26.0505 42.8537 25.8746L43.1732 25.3606C43.3445 25.5088 43.5552 25.6245 43.8052 25.7079C44.0552 25.7959 44.3169 25.8399 44.59 25.8399C45.0253 25.8399 45.3448 25.738 45.5485 25.5343C45.7523 25.3305 45.8541 25.0203 45.8541 24.6036V23.8257L45.9236 23.0964L45.8888 22.3602V21.3531H46.5209V24.5341C46.5209 25.1823 46.3588 25.6593 46.0347 25.9649C45.7106 26.2705 45.236 26.4233 44.6109 26.4233ZM44.5275 24.8814C44.171 24.8814 43.8515 24.8073 43.5691 24.6591C43.2912 24.5063 43.069 24.2956 42.9023 24.0271C42.7402 23.7585 42.6592 23.4483 42.6592 23.0964C42.6592 22.7399 42.7402 22.4296 42.9023 22.1657C43.069 21.8971 43.2912 21.6888 43.5691 21.5406C43.8515 21.3924 44.171 21.3184 44.5275 21.3184C44.8424 21.3184 45.1295 21.3832 45.3888 21.5128C45.6481 21.6378 45.8541 21.8323 46.0069 22.0962C46.1643 22.3602 46.2431 22.6936 46.2431 23.0964C46.2431 23.4946 46.1643 23.8257 46.0069 24.0896C45.8541 24.3535 45.6481 24.5526 45.3888 24.6869C45.1295 24.8166 44.8424 24.8814 44.5275 24.8814ZM44.6039 24.298C44.8493 24.298 45.067 24.247 45.2568 24.1452C45.4467 24.0433 45.5948 23.9021 45.7013 23.7215C45.8124 23.5409 45.868 23.3325 45.868 23.0964C45.868 22.8603 45.8124 22.6519 45.7013 22.4713C45.5948 22.2907 45.4467 22.1518 45.2568 22.0546C45.067 21.9527 44.8493 21.9018 44.6039 21.9018C44.3585 21.9018 44.1386 21.9527 43.9441 22.0546C43.7543 22.1518 43.6038 22.2907 43.4927 22.4713C43.3862 22.6519 43.3329 22.8603 43.3329 23.0964C43.3329 23.3325 43.3862 23.5409 43.4927 23.7215C43.6038 23.9021 43.7543 24.0433 43.9441 24.1452C44.1386 24.247 44.3585 24.298 44.6039 24.298ZM47.7949 25.0342V21.3531H48.4617V25.0342H47.7949ZM48.1283 20.6446C47.9986 20.6446 47.8898 20.603 47.8018 20.5196C47.7185 20.4363 47.6768 20.3344 47.6768 20.214C47.6768 20.089 47.7185 19.9848 47.8018 19.9015C47.8898 19.8181 47.9986 19.7765 48.1283 19.7765C48.2579 19.7765 48.3644 19.8181 48.4478 19.9015C48.5357 19.9802 48.5797 20.0798 48.5797 20.2001C48.5797 20.3252 48.5381 20.4317 48.4547 20.5196C48.3714 20.603 48.2625 20.6446 48.1283 20.6446ZM50.9988 25.0759C50.6284 25.0759 50.3413 24.9763 50.1376 24.7772C49.9338 24.5781 49.832 24.2933 49.832 23.9229V20.5474H50.4987V23.8951C50.4987 24.0942 50.5474 24.247 50.6446 24.3535C50.7465 24.46 50.89 24.5133 51.0752 24.5133C51.2836 24.5133 51.4572 24.4554 51.5961 24.3396L51.8045 24.8189C51.7026 24.9068 51.5799 24.9717 51.4364 25.0133C51.2975 25.055 51.1516 25.0759 50.9988 25.0759ZM49.2069 21.9018V21.3531H51.5544V21.9018H49.2069ZM54.8956 25.0342V24.2563L54.8609 24.1104V22.7839C54.8609 22.5014 54.7776 22.2838 54.6109 22.131C54.4488 21.9735 54.2034 21.8948 53.8747 21.8948C53.657 21.8948 53.444 21.9319 53.2357 22.006C53.0273 22.0754 52.8514 22.1703 52.7078 22.2907L52.43 21.7906C52.6198 21.6378 52.8467 21.5221 53.1107 21.4434C53.3792 21.36 53.6594 21.3184 53.9511 21.3184C54.4558 21.3184 54.8447 21.4411 55.1179 21.6865C55.3911 21.9319 55.5277 22.3069 55.5277 22.8116V25.0342H54.8956ZM53.6871 25.0759C53.4139 25.0759 53.1732 25.0295 52.9648 24.9369C52.7611 24.8443 52.6036 24.717 52.4925 24.5549C52.3814 24.3883 52.3258 24.2007 52.3258 23.9924C52.3258 23.7933 52.3721 23.6127 52.4647 23.4506C52.562 23.2886 52.7171 23.1589 52.9301 23.0617C53.1477 22.9644 53.4394 22.9158 53.8052 22.9158H54.972V23.3951H53.833C53.4996 23.3951 53.275 23.4506 53.1593 23.5617C53.0435 23.6729 52.9856 23.8071 52.9856 23.9646C52.9856 24.1452 53.0574 24.291 53.201 24.4021C53.3445 24.5086 53.5436 24.5619 53.7983 24.5619C54.0483 24.5619 54.2659 24.5063 54.4511 24.3952C54.641 24.2841 54.7776 24.122 54.8609 23.909L54.9929 24.3674C54.9049 24.585 54.7498 24.7587 54.5275 24.8883C54.3053 25.0133 54.0251 25.0759 53.6871 25.0759ZM56.7616 25.0342V19.8806H57.4284V25.0342H56.7616ZM60.6639 25.0342V20.1724H61.3584V25.0342H60.6639ZM64.6823 21.3184C64.9833 21.3184 65.2472 21.3762 65.4741 21.492C65.7056 21.6078 65.8862 21.7837 66.0159 22.0198C66.1455 22.256 66.2103 22.5546 66.2103 22.9158V25.0342H65.5436V22.9922C65.5436 22.6357 65.4556 22.3671 65.2797 22.1865C65.1083 22.006 64.8652 21.9157 64.5504 21.9157C64.3142 21.9157 64.1082 21.962 63.9322 22.0546C63.7563 22.1472 63.6197 22.2838 63.5225 22.4644C63.4298 22.6449 63.3835 22.8695 63.3835 23.1381V25.0342H62.7168V21.3531H63.3558V22.3463L63.2516 22.0824C63.372 21.8416 63.5572 21.6541 63.8072 21.5198C64.0573 21.3855 64.349 21.3184 64.6823 21.3184ZM69.4099 21.3184C69.7108 21.3184 69.9748 21.3762 70.2016 21.492C70.4332 21.6078 70.6137 21.7837 70.7434 22.0198C70.873 22.256 70.9379 22.5546 70.9379 22.9158V25.0342H70.2711V22.9922C70.2711 22.6357 70.1831 22.3671 70.0072 22.1865C69.8359 22.006 69.5928 21.9157 69.2779 21.9157C69.0418 21.9157 68.8357 21.962 68.6598 22.0546C68.4838 22.1472 68.3472 22.2838 68.25 22.4644C68.1574 22.6449 68.1111 22.8695 68.1111 23.1381V25.0342H67.4443V21.3531H68.0833V22.3463L67.9791 22.0824C68.0995 21.8416 68.2847 21.6541 68.5347 21.5198C68.7848 21.3855 69.0765 21.3184 69.4099 21.3184ZM73.7484 25.0759C73.378 25.0759 73.0493 24.9948 72.7622 24.8328C72.4751 24.6707 72.2482 24.4484 72.0815 24.166C71.9148 23.8789 71.8315 23.5548 71.8315 23.1936C71.8315 22.8278 71.9148 22.5037 72.0815 22.2213C72.2482 21.9388 72.4751 21.7189 72.7622 21.5614C73.0493 21.3994 73.378 21.3184 73.7484 21.3184C74.1142 21.3184 74.4407 21.3994 74.7278 21.5614C75.0195 21.7189 75.2464 21.9388 75.4084 22.2213C75.5751 22.4991 75.6585 22.8232 75.6585 23.1936C75.6585 23.5594 75.5751 23.8835 75.4084 24.166C75.2464 24.4484 75.0195 24.6707 74.7278 24.8328C74.4407 24.9948 74.1142 25.0759 73.7484 25.0759ZM73.7484 24.4924C73.9846 24.4924 74.1953 24.4392 74.3805 24.3327C74.5703 24.2262 74.7185 24.0757 74.825 23.8812C74.9315 23.6821 74.9847 23.4529 74.9847 23.1936C74.9847 22.9297 74.9315 22.7028 74.825 22.513C74.7185 22.3185 74.5703 22.168 74.3805 22.0615C74.1953 21.955 73.9846 21.9018 73.7484 21.9018C73.5123 21.9018 73.3016 21.955 73.1164 22.0615C72.9312 22.168 72.783 22.3185 72.6719 22.513C72.5608 22.7028 72.5052 22.9297 72.5052 23.1936C72.5052 23.4529 72.5608 23.6821 72.6719 23.8812C72.783 24.0757 72.9312 24.2262 73.1164 24.3327C73.3016 24.4392 73.5123 24.4924 73.7484 24.4924ZM77.4442 25.0342L75.8329 21.3531H76.5274L77.9582 24.6869H77.6248L79.0834 21.3531H79.7362L78.1249 25.0342H77.4442ZM82.5283 25.0342V24.2563L82.4935 24.1104V22.7839C82.4935 22.5014 82.4102 22.2838 82.2435 22.131C82.0814 21.9735 81.836 21.8948 81.5073 21.8948C81.2897 21.8948 81.0767 21.9319 80.8683 22.006C80.6599 22.0754 80.484 22.1703 80.3404 22.2907L80.0626 21.7906C80.2525 21.6378 80.4794 21.5221 80.7433 21.4434C81.0118 21.36 81.292 21.3184 81.5837 21.3184C82.0884 21.3184 82.4773 21.4411 82.7505 21.6865C83.0237 21.9319 83.1603 22.3069 83.1603 22.8116V25.0342H82.5283ZM81.3198 25.0759C81.0466 25.0759 80.8058 25.0295 80.5974 24.9369C80.3937 24.8443 80.2363 24.717 80.1251 24.5549C80.014 24.3883 79.9584 24.2007 79.9584 23.9924C79.9584 23.7933 80.0048 23.6127 80.0974 23.4506C80.1946 23.2886 80.3497 23.1589 80.5627 23.0617C80.7803 22.9644 81.072 22.9158 81.4378 22.9158H82.6047V23.3951H81.4656C81.1322 23.3951 80.9077 23.4506 80.7919 23.5617C80.6761 23.6729 80.6183 23.8071 80.6183 23.9646C80.6183 24.1452 80.69 24.291 80.8336 24.4021C80.9771 24.5086 81.1762 24.5619 81.4309 24.5619C81.6809 24.5619 81.8985 24.5063 82.0838 24.3952C82.2736 24.2841 82.4102 24.122 82.4935 23.909L82.6255 24.3674C82.5375 24.585 82.3824 24.7587 82.1602 24.8883C81.9379 25.0133 81.6578 25.0759 81.3198 25.0759ZM85.6583 25.0759C85.2879 25.0759 85.0008 24.9763 84.797 24.7772C84.5933 24.5781 84.4914 24.2933 84.4914 23.9229V20.5474H85.1582V23.8951C85.1582 24.0942 85.2068 24.247 85.3041 24.3535C85.4059 24.46 85.5495 24.5133 85.7347 24.5133C85.943 24.5133 86.1167 24.4554 86.2556 24.3396L86.464 24.8189C86.3621 24.9068 86.2394 24.9717 86.0958 25.0133C85.9569 25.055 85.8111 25.0759 85.6583 25.0759ZM83.8664 21.9018V21.3531H86.2139V21.9018H83.8664ZM87.2701 25.0342V21.3531H87.9368V25.0342H87.2701ZM87.6034 20.6446C87.4738 20.6446 87.365 20.603 87.277 20.5196C87.1937 20.4363 87.152 20.3344 87.152 20.214C87.152 20.089 87.1937 19.9848 87.277 19.9015C87.365 19.8181 87.4738 19.7765 87.6034 19.7765C87.7331 19.7765 87.8396 19.8181 87.9229 19.9015C88.0109 19.9802 88.0549 20.0798 88.0549 20.2001C88.0549 20.3252 88.0132 20.4317 87.9299 20.5196C87.8465 20.603 87.7377 20.6446 87.6034 20.6446ZM90.7865 25.0759C90.4161 25.0759 90.0874 24.9948 89.8003 24.8328C89.5132 24.6707 89.2863 24.4484 89.1196 24.166C88.9529 23.8789 88.8696 23.5548 88.8696 23.1936C88.8696 22.8278 88.9529 22.5037 89.1196 22.2213C89.2863 21.9388 89.5132 21.7189 89.8003 21.5614C90.0874 21.3994 90.4161 21.3184 90.7865 21.3184C91.1523 21.3184 91.4788 21.3994 91.7658 21.5614C92.0575 21.7189 92.2844 21.9388 92.4465 22.2213C92.6132 22.4991 92.6965 22.8232 92.6965 23.1936C92.6965 23.5594 92.6132 23.8835 92.4465 24.166C92.2844 24.4484 92.0575 24.6707 91.7658 24.8328C91.4788 24.9948 91.1523 25.0759 90.7865 25.0759ZM90.7865 24.4924C91.0227 24.4924 91.2334 24.4392 91.4186 24.3327C91.6084 24.2262 91.7566 24.0757 91.8631 23.8812C91.9696 23.6821 92.0228 23.4529 92.0228 23.1936C92.0228 22.9297 91.9696 22.7028 91.8631 22.513C91.7566 22.3185 91.6084 22.168 91.4186 22.0615C91.2334 21.955 91.0227 21.9018 90.7865 21.9018C90.5504 21.9018 90.3397 21.955 90.1545 22.0615C89.9693 22.168 89.8211 22.3185 89.71 22.513C89.5989 22.7028 89.5433 22.9297 89.5433 23.1936C89.5433 23.4529 89.5989 23.6821 89.71 23.8812C89.8211 24.0757 89.9693 24.2262 90.1545 24.3327C90.3397 24.4392 90.5504 24.4924 90.7865 24.4924ZM95.5842 21.3184C95.8852 21.3184 96.1491 21.3762 96.376 21.492C96.6075 21.6078 96.7881 21.7837 96.9177 22.0198C97.0474 22.256 97.1122 22.5546 97.1122 22.9158V25.0342H96.4455V22.9922C96.4455 22.6357 96.3575 22.3671 96.1815 22.1865C96.0102 22.006 95.7671 21.9157 95.4523 21.9157C95.2161 21.9157 95.0101 21.962 94.8341 22.0546C94.6582 22.1472 94.5216 22.2838 94.4243 22.4644C94.3317 22.6449 94.2854 22.8695 94.2854 23.1381V25.0342H93.6187V21.3531H94.2576V22.3463L94.1535 22.0824C94.2738 21.8416 94.4591 21.6541 94.7091 21.5198C94.9591 21.3855 95.2508 21.3184 95.5842 21.3184ZM103.795 20.1724H104.49V25.0342H103.795V20.1724ZM101.003 25.0342H100.309V20.1724H101.003V25.0342ZM103.858 22.8672H100.934V22.2629H103.858V22.8672ZM107.397 25.0759C107.082 25.0759 106.804 25.018 106.563 24.9022C106.327 24.7865 106.142 24.6105 106.008 24.3744C105.878 24.1336 105.813 23.8326 105.813 23.4715V21.3531H106.48V23.3951C106.48 23.7562 106.566 24.0271 106.737 24.2077C106.913 24.3883 107.158 24.4785 107.473 24.4785C107.705 24.4785 107.906 24.4322 108.077 24.3396C108.249 24.2424 108.381 24.1035 108.473 23.9229C108.566 23.7377 108.612 23.5154 108.612 23.2561V21.3531H109.279V25.0342H108.647V24.041L108.751 24.3049C108.631 24.5503 108.45 24.7402 108.209 24.8744C107.969 25.0087 107.698 25.0759 107.397 25.0759ZM112.5 25.0759C112.185 25.0759 111.9 25.0064 111.646 24.8675C111.396 24.7239 111.196 24.5133 111.048 24.2355C110.905 23.9576 110.833 23.6104 110.833 23.1936C110.833 22.7769 110.907 22.4296 111.055 22.1518C111.208 21.874 111.409 21.6656 111.659 21.5267C111.914 21.3878 112.194 21.3184 112.5 21.3184C112.861 21.3184 113.181 21.3971 113.458 21.5545C113.736 21.7119 113.956 21.9319 114.118 22.2143C114.28 22.4921 114.361 22.8186 114.361 23.1936C114.361 23.5687 114.28 23.8974 114.118 24.1799C113.956 24.4623 113.736 24.6823 113.458 24.8397C113.181 24.9971 112.861 25.0759 112.5 25.0759ZM110.548 25.0342V19.8806H111.215V22.3324L111.146 23.1867L111.187 24.041V25.0342H110.548ZM112.444 24.4924C112.68 24.4924 112.891 24.4392 113.076 24.3327C113.266 24.2262 113.414 24.0757 113.521 23.8812C113.632 23.6821 113.688 23.4529 113.688 23.1936C113.688 22.9297 113.632 22.7028 113.521 22.513C113.414 22.3185 113.266 22.168 113.076 22.0615C112.891 21.955 112.68 21.9018 112.444 21.9018C112.213 21.9018 112.002 21.955 111.812 22.0615C111.627 22.168 111.479 22.3185 111.368 22.513C111.261 22.7028 111.208 22.9297 111.208 23.1936C111.208 23.4529 111.261 23.6821 111.368 23.8812C111.479 24.0757 111.627 24.2262 111.812 24.3327C112.002 24.4392 112.213 24.4924 112.444 24.4924Z" fill="#222222"/>
<path d="M62.3777 27.9944C62.3674 28.0872 62.3537 28.187 62.3365 28.2936C62.3193 28.3968 62.3038 28.4982 62.29 28.5979C62.2763 28.6977 62.2643 28.7888 62.2539 28.8714C62.2264 29.0777 62.2006 29.2841 62.1766 29.4904C62.1559 29.6933 62.1353 29.8911 62.1146 30.0837C62.094 30.2728 62.0768 30.4517 62.0631 30.6202C62.0493 30.7853 62.0373 30.9332 62.0269 31.0639C62.0201 31.1946 62.0166 31.3012 62.0166 31.3837C62.0166 31.4491 62.0235 31.5041 62.0373 31.5488C62.051 31.5935 62.0837 31.6159 62.1353 31.6159C62.1869 31.6159 62.2419 31.5815 62.3004 31.5127C62.3623 31.4439 62.419 31.3218 62.4706 31.1464L62.6563 31.198C62.6426 31.2633 62.6185 31.3407 62.5841 31.4301C62.5497 31.5161 62.5033 31.5987 62.4448 31.6778C62.3898 31.7534 62.321 31.8171 62.2385 31.8686C62.1559 31.9202 62.0596 31.946 61.9496 31.946C61.8154 31.946 61.7105 31.9099 61.6349 31.8377C61.5592 31.7655 61.5214 31.6537 61.5214 31.5024C61.5179 31.4026 61.5214 31.2719 61.5317 31.1103C61.542 30.9487 61.5558 30.7698 61.573 30.5738C61.5902 30.3743 61.6091 30.168 61.6297 29.9547C61.6538 29.738 61.6779 29.5265 61.7019 29.3202C61.7295 29.1104 61.7552 28.9144 61.7793 28.7321C61.7931 28.6495 61.8034 28.5842 61.8103 28.536C61.8172 28.4845 61.824 28.4346 61.8309 28.3864C61.7724 28.3899 61.7105 28.3933 61.6452 28.3968C61.5798 28.4002 61.5197 28.4036 61.4646 28.4071L61.4904 28.1388C61.6452 28.1388 61.7673 28.1319 61.8567 28.1182C61.9496 28.101 62.0201 28.0821 62.0682 28.0614C62.1198 28.0408 62.1594 28.0184 62.1869 27.9944H62.3777ZM63.4458 29.2531C63.6006 29.2531 63.7141 29.3047 63.7863 29.4079C63.8585 29.5076 63.8946 29.6418 63.8946 29.8103C63.8946 29.9066 63.8843 30.0235 63.8637 30.1611C63.8465 30.2952 63.8241 30.4379 63.7966 30.5893C63.7726 30.7406 63.7519 30.8885 63.7347 31.0329C63.7175 31.1774 63.7089 31.3081 63.7089 31.425C63.7089 31.4903 63.7192 31.5385 63.7399 31.5694C63.764 31.6004 63.7966 31.6159 63.8379 31.6159C63.8929 31.6159 63.9497 31.5815 64.0081 31.5127C64.07 31.4405 64.1251 31.3184 64.1732 31.1464L64.3641 31.1928C64.3503 31.2651 64.3263 31.3459 64.2919 31.4353C64.2575 31.5213 64.2111 31.6038 64.1526 31.6829C64.0976 31.7586 64.0305 31.8222 63.9514 31.8738C63.8723 31.922 63.7811 31.946 63.678 31.946C63.5095 31.946 63.3874 31.9013 63.3117 31.8119C63.2395 31.7225 63.2034 31.5952 63.2034 31.4301C63.2034 31.296 63.212 31.1584 63.2292 31.0174C63.2498 30.8764 63.2721 30.7354 63.2962 30.5944C63.3203 30.4534 63.3426 30.3158 63.3633 30.1817C63.3839 30.0441 63.3942 29.9117 63.3942 29.7845C63.3942 29.7363 63.3839 29.6916 63.3633 29.6503C63.3461 29.6056 63.3151 29.5833 63.2704 29.5833C63.2188 29.5833 63.1621 29.6194 63.1002 29.6916C63.0383 29.7604 62.9833 29.8808 62.9351 30.0527L62.7442 30.0063C62.758 29.941 62.7821 29.867 62.8164 29.7845C62.8508 29.6985 62.8956 29.616 62.9506 29.5369C63.009 29.4543 63.0778 29.3872 63.1569 29.3357C63.2395 29.2806 63.3358 29.2531 63.4458 29.2531ZM63.7038 28.0769C63.7932 28.0769 63.8671 28.1096 63.9256 28.1749C63.9841 28.2368 64.0116 28.3177 64.0081 28.4174C64.0081 28.5137 63.9772 28.5928 63.9153 28.6547C63.8534 28.7166 63.7777 28.7476 63.6883 28.7476C63.5989 28.7476 63.5249 28.7166 63.4665 28.6547C63.408 28.5928 63.3788 28.5137 63.3788 28.4174C63.3822 28.3177 63.4149 28.2368 63.4768 28.1749C63.5421 28.1096 63.6178 28.0769 63.7038 28.0769ZM66.8303 31.946C66.6618 31.946 66.5466 31.9013 66.4847 31.8119C66.4228 31.719 66.3918 31.5884 66.3918 31.4198C66.3918 31.3235 66.3987 31.21 66.4124 31.0793C66.4296 30.9487 66.4468 30.8128 66.464 30.6718C66.4847 30.5274 66.5019 30.3846 66.5156 30.2436C66.5328 30.1026 66.5414 29.9736 66.5414 29.8567C66.5414 29.812 66.5345 29.769 66.5208 29.7277C66.5105 29.683 66.4898 29.6469 66.4589 29.6194C66.4314 29.5884 66.3884 29.573 66.3299 29.573C66.2474 29.573 66.1614 29.616 66.072 29.7019C65.986 29.7845 65.9034 29.898 65.8243 30.0424C65.7487 30.1869 65.6799 30.3468 65.618 30.5222C65.5561 30.6976 65.5062 30.8782 65.4684 31.0639C65.434 31.2461 65.4168 31.4198 65.4168 31.5849C65.4168 31.6331 65.4168 31.6846 65.4168 31.7397C65.4202 31.7947 65.4237 31.8446 65.4271 31.8893H64.9164C64.9129 31.848 64.9112 31.8171 64.9112 31.7964C64.9112 31.7723 64.9112 31.7466 64.9112 31.719C64.9112 31.6537 64.9147 31.5798 64.9215 31.4972C64.9284 31.4112 64.9387 31.3063 64.9525 31.1825C64.9697 31.0587 64.9886 30.9057 65.0092 30.7234C65.0264 30.5583 65.0402 30.4242 65.0505 30.321C65.0643 30.2144 65.0746 30.1284 65.0815 30.0631C65.0918 29.9943 65.0987 29.9392 65.1021 29.898C65.1055 29.8567 65.1073 29.8189 65.1073 29.7845C65.1073 29.7226 65.0987 29.6744 65.0815 29.64C65.0643 29.6022 65.0333 29.5833 64.9886 29.5833C64.9404 29.5833 64.8854 29.6194 64.8235 29.6916C64.7616 29.7604 64.7049 29.8808 64.6533 30.0527L64.4624 30.0063C64.4762 29.941 64.4985 29.867 64.5295 29.7845C64.5639 29.6985 64.6086 29.616 64.6636 29.5369C64.7186 29.4543 64.7857 29.3872 64.8648 29.3357C64.9439 29.2806 65.0367 29.2531 65.1434 29.2531C65.2465 29.2531 65.3274 29.2789 65.3858 29.3305C65.4443 29.3821 65.4856 29.4526 65.5096 29.542C65.5337 29.6314 65.544 29.7346 65.5406 29.8515C65.5372 29.9375 65.5286 30.0166 65.5148 30.0889C65.501 30.1611 65.489 30.2299 65.4787 30.2952H65.489C65.5956 30.0201 65.7022 29.8068 65.8089 29.6555C65.9189 29.5042 66.029 29.3993 66.139 29.3408C66.2491 29.2824 66.3574 29.2531 66.464 29.2531C66.605 29.2531 66.7168 29.2858 66.7993 29.3511C66.8853 29.413 66.9472 29.4973 66.9851 29.6039C67.0229 29.7105 67.0418 29.8309 67.0418 29.965C67.0418 30.1336 67.0298 30.309 67.0057 30.4912C66.9816 30.6735 66.9576 30.8455 66.9335 31.0071C66.9094 31.1688 66.8974 31.3029 66.8974 31.4095C66.8974 31.4714 66.9042 31.5213 66.918 31.5591C66.9352 31.5969 66.9679 31.6159 67.016 31.6159C67.0676 31.6159 67.1226 31.5815 67.1811 31.5127C67.243 31.4439 67.2998 31.3218 67.3513 31.1464L67.5371 31.198C67.5267 31.2599 67.5044 31.3338 67.47 31.4198C67.4356 31.5058 67.3892 31.5884 67.3307 31.6675C67.2722 31.7466 67.2017 31.8136 67.1192 31.8686C67.0367 31.9202 66.9404 31.946 66.8303 31.946ZM69.5453 31.946C69.4077 31.946 69.2942 31.8944 69.2048 31.7913C69.1154 31.6881 69.0243 31.5161 68.9314 31.2754C68.8764 31.1275 68.8265 31.0174 68.7818 30.9452C68.7405 30.8696 68.6803 30.8266 68.6012 30.8162C68.5806 30.8128 68.56 30.8111 68.5393 30.8111C68.5221 30.8111 68.5032 30.8111 68.4826 30.8111C68.4482 30.9383 68.4224 31.0725 68.4052 31.2135C68.388 31.351 68.3794 31.4766 68.3794 31.5901C68.3794 31.6417 68.3794 31.6932 68.3794 31.7448C68.3828 31.7964 68.3863 31.8446 68.3897 31.8893H67.8842C67.8807 31.848 67.8773 31.8171 67.8738 31.7964C67.8738 31.7723 67.8738 31.7448 67.8738 31.7139C67.8738 31.6382 67.8773 31.5178 67.8842 31.3528C67.8945 31.1842 67.9065 30.9899 67.9203 30.7698C67.9375 30.5463 67.9547 30.3141 67.9719 30.0734C67.9925 29.8292 68.0148 29.5902 68.0389 29.3563C68.0664 29.1224 68.0922 28.9144 68.1163 28.7321C68.1301 28.6495 68.1404 28.5859 68.1473 28.5412C68.1576 28.4931 68.1662 28.4415 68.173 28.3864C68.118 28.3899 68.0561 28.3933 67.9873 28.3968C67.922 28.4002 67.8635 28.4036 67.8119 28.4071L67.8326 28.1388C67.9873 28.1388 68.1094 28.1319 68.1988 28.1182C68.2917 28.101 68.3622 28.0821 68.4104 28.0614C68.4585 28.0408 68.4963 28.0184 68.5238 27.9944H68.7147C68.6975 28.0941 68.6803 28.2024 68.6631 28.3194C68.6494 28.4329 68.6339 28.5464 68.6167 28.6599C68.603 28.7733 68.5892 28.88 68.5754 28.9797C68.5514 29.1895 68.5273 29.3993 68.5032 29.6091C68.4791 29.8189 68.4585 30.0252 68.4413 30.2281H68.4568C68.5496 29.9736 68.6477 29.7759 68.7508 29.6349C68.854 29.4939 68.9606 29.3958 69.0707 29.3408C69.1842 29.2824 69.296 29.2531 69.406 29.2531C69.5264 29.2531 69.6244 29.2789 69.7001 29.3305C69.7757 29.3787 69.8308 29.4457 69.8651 29.5317C69.903 29.6142 69.9219 29.7054 69.9219 29.8051C69.9219 29.922 69.8875 30.0459 69.8187 30.1766C69.7534 30.3038 69.6468 30.4207 69.4989 30.5274C69.3544 30.6305 69.1653 30.7045 68.9314 30.7492V30.7543C69.0621 30.7578 69.1584 30.7887 69.2203 30.8472C69.2856 30.9057 69.3407 30.9899 69.3854 31.1C69.4232 31.1791 69.4576 31.2547 69.4886 31.327C69.5229 31.3992 69.5573 31.4594 69.5917 31.5075C69.6296 31.5522 69.6691 31.578 69.7104 31.5849C69.762 31.5849 69.8067 31.5626 69.8445 31.5178C69.8858 31.4697 69.9219 31.3803 69.9528 31.2496L70.1437 31.296C70.1231 31.4026 70.087 31.5058 70.0354 31.6055C69.9838 31.7053 69.9167 31.7878 69.8342 31.8532C69.7551 31.9151 69.6588 31.946 69.5453 31.946ZM68.5187 30.6047C68.8213 30.6047 69.05 30.5359 69.2048 30.3984C69.3596 30.2608 69.437 30.0682 69.437 29.8206C69.437 29.7759 69.4318 29.7312 69.4215 29.6865C69.4146 29.6383 69.3957 29.5988 69.3647 29.5678C69.3338 29.5369 69.2891 29.5231 69.2306 29.5265C69.1515 29.5334 69.0672 29.585 68.9778 29.6813C68.8884 29.7742 68.8024 29.9014 68.7199 30.0631C68.6408 30.2213 68.5737 30.4018 68.5187 30.6047ZM70.9926 29.2531C71.1474 29.2531 71.2609 29.3047 71.3331 29.4079C71.4053 29.5076 71.4414 29.6418 71.4414 29.8103C71.4414 29.9066 71.4311 30.0235 71.4105 30.1611C71.3933 30.2952 71.3709 30.4379 71.3434 30.5893C71.3194 30.7406 71.2987 30.8885 71.2815 31.0329C71.2643 31.1774 71.2557 31.3081 71.2557 31.425C71.2557 31.4903 71.266 31.5385 71.2867 31.5694C71.3108 31.6004 71.3434 31.6159 71.3847 31.6159C71.4397 31.6159 71.4965 31.5815 71.5549 31.5127C71.6168 31.4405 71.6719 31.3184 71.72 31.1464L71.9109 31.1928C71.8971 31.2651 71.8731 31.3459 71.8387 31.4353C71.8043 31.5213 71.7579 31.6038 71.6994 31.6829C71.6444 31.7586 71.5773 31.8222 71.4982 31.8738C71.4191 31.922 71.328 31.946 71.2248 31.946C71.0563 31.946 70.9342 31.9013 70.8585 31.8119C70.7863 31.7225 70.7502 31.5952 70.7502 31.4301C70.7502 31.296 70.7588 31.1584 70.776 31.0174C70.7966 30.8764 70.819 30.7354 70.843 30.5944C70.8671 30.4534 70.8895 30.3158 70.9101 30.1817C70.9307 30.0441 70.941 29.9117 70.941 29.7845C70.941 29.7363 70.9307 29.6916 70.9101 29.6503C70.8929 29.6056 70.8619 29.5833 70.8172 29.5833C70.7656 29.5833 70.7089 29.6194 70.647 29.6916C70.5851 29.7604 70.5301 29.8808 70.4819 30.0527L70.291 30.0063C70.3048 29.941 70.3289 29.867 70.3633 29.7845C70.3976 29.6985 70.4424 29.616 70.4974 29.5369C70.5559 29.4543 70.6246 29.3872 70.7037 29.3357C70.7863 29.2806 70.8826 29.2531 70.9926 29.2531ZM71.2506 28.0769C71.34 28.0769 71.4139 28.1096 71.4724 28.1749C71.5309 28.2368 71.5584 28.3177 71.5549 28.4174C71.5549 28.5137 71.524 28.5928 71.4621 28.6547C71.4002 28.7166 71.3245 28.7476 71.2351 28.7476C71.1457 28.7476 71.0717 28.7166 71.0133 28.6547C70.9548 28.5928 70.9256 28.5137 70.9256 28.4174C70.929 28.3177 70.9617 28.2368 71.0236 28.1749C71.0889 28.1096 71.1646 28.0769 71.2506 28.0769ZM74.3771 31.946C74.2086 31.946 74.0934 31.9013 74.0315 31.8119C73.9696 31.719 73.9386 31.5884 73.9386 31.4198C73.9386 31.3235 73.9455 31.21 73.9592 31.0793C73.9764 30.9487 73.9936 30.8128 74.0108 30.6718C74.0315 30.5274 74.0487 30.3846 74.0624 30.2436C74.0796 30.1026 74.0882 29.9736 74.0882 29.8567C74.0882 29.812 74.0813 29.769 74.0676 29.7277C74.0573 29.683 74.0366 29.6469 74.0057 29.6194C73.9782 29.5884 73.9352 29.573 73.8767 29.573C73.7942 29.573 73.7082 29.616 73.6188 29.7019C73.5328 29.7845 73.4502 29.898 73.3711 30.0424C73.2955 30.1869 73.2267 30.3468 73.1648 30.5222C73.1029 30.6976 73.053 30.8782 73.0152 31.0639C72.9808 31.2461 72.9636 31.4198 72.9636 31.5849C72.9636 31.6331 72.9636 31.6846 72.9636 31.7397C72.967 31.7947 72.9705 31.8446 72.9739 31.8893H72.4632C72.4597 31.848 72.458 31.8171 72.458 31.7964C72.458 31.7723 72.458 31.7466 72.458 31.719C72.458 31.6537 72.4615 31.5798 72.4683 31.4972C72.4752 31.4112 72.4855 31.3063 72.4993 31.1825C72.5165 31.0587 72.5354 30.9057 72.556 30.7234C72.5732 30.5583 72.587 30.4242 72.5973 30.321C72.6111 30.2144 72.6214 30.1284 72.6283 30.0631C72.6386 29.9943 72.6455 29.9392 72.6489 29.898C72.6523 29.8567 72.6541 29.8189 72.6541 29.7845C72.6541 29.7226 72.6455 29.6744 72.6283 29.64C72.6111 29.6022 72.5801 29.5833 72.5354 29.5833C72.4873 29.5833 72.4322 29.6194 72.3703 29.6916C72.3084 29.7604 72.2517 29.8808 72.2001 30.0527L72.0092 30.0063C72.023 29.941 72.0453 29.867 72.0763 29.7845C72.1107 29.6985 72.1554 29.616 72.2104 29.5369C72.2654 29.4543 72.3325 29.3872 72.4116 29.3357C72.4907 29.2806 72.5836 29.2531 72.6902 29.2531C72.7933 29.2531 72.8742 29.2789 72.9326 29.3305C72.9911 29.3821 73.0324 29.4526 73.0564 29.542C73.0805 29.6314 73.0908 29.7346 73.0874 29.8515C73.084 29.9375 73.0754 30.0166 73.0616 30.0889C73.0478 30.1611 73.0358 30.2299 73.0255 30.2952H73.0358C73.1424 30.0201 73.249 29.8068 73.3557 29.6555C73.4657 29.5042 73.5758 29.3993 73.6858 29.3408C73.7959 29.2824 73.9042 29.2531 74.0108 29.2531C74.1518 29.2531 74.2636 29.2858 74.3462 29.3511C74.4321 29.413 74.494 29.4973 74.5319 29.6039C74.5697 29.7105 74.5886 29.8309 74.5886 29.965C74.5886 30.1336 74.5766 30.309 74.5525 30.4912C74.5284 30.6735 74.5044 30.8455 74.4803 31.0071C74.4562 31.1688 74.4442 31.3029 74.4442 31.4095C74.4442 31.4714 74.451 31.5213 74.4648 31.5591C74.482 31.5969 74.5147 31.6159 74.5628 31.6159C74.6144 31.6159 74.6694 31.5815 74.7279 31.5127C74.7898 31.4439 74.8466 31.3218 74.8981 31.1464L75.0839 31.198C75.0735 31.2599 75.0512 31.3338 75.0168 31.4198C74.9824 31.5058 74.936 31.5884 74.8775 31.6675C74.819 31.7466 74.7485 31.8136 74.666 31.8686C74.5835 31.9202 74.4872 31.946 74.3771 31.946ZM76.0087 33.2873C75.9228 33.2873 75.8351 33.2787 75.7456 33.2615C75.6562 33.2443 75.5702 33.2168 75.4877 33.179C75.4086 33.1446 75.3433 33.0964 75.2917 33.0345C75.2435 32.9761 75.2194 32.9056 75.2194 32.823C75.2194 32.7714 75.2298 32.7233 75.2504 32.6786C75.271 32.6339 75.302 32.596 75.3433 32.5651C75.388 32.5341 75.4378 32.5187 75.4929 32.5187C75.5651 32.5187 75.627 32.541 75.6786 32.5857C75.7302 32.6339 75.756 32.7009 75.756 32.7869C75.756 32.8316 75.7456 32.8781 75.725 32.9262C75.756 32.9709 75.8041 33.0036 75.8695 33.0242C75.9348 33.0449 75.9933 33.0552 76.0449 33.0552C76.2237 33.0552 76.363 33.007 76.4627 32.9107C76.5659 32.8179 76.6433 32.6923 76.6949 32.5341C76.7499 32.3759 76.7895 32.2023 76.8135 32.0131C76.8445 31.8171 76.8686 31.6262 76.8857 31.4405C76.9029 31.2547 76.927 31.0811 76.958 30.9194H76.9425C76.8737 31.1361 76.8015 31.3115 76.7258 31.4456C76.6502 31.5798 76.5728 31.6846 76.4937 31.7603C76.4146 31.8325 76.3338 31.8807 76.2512 31.9048C76.1721 31.9323 76.093 31.946 76.0139 31.946C75.8695 31.946 75.7439 31.9065 75.6373 31.8274C75.5341 31.7448 75.4533 31.6296 75.3948 31.4817C75.3398 31.3338 75.3123 31.1619 75.3123 30.9659C75.3123 30.7389 75.3415 30.5239 75.4 30.321C75.4619 30.1146 75.5531 29.9306 75.6734 29.769C75.7972 29.6074 75.9537 29.4818 76.1429 29.3924C76.332 29.2995 76.5573 29.2531 76.8187 29.2531C76.9287 29.2531 77.0474 29.2617 77.1746 29.2789C77.3019 29.2961 77.4154 29.3185 77.5151 29.346C77.5048 29.5248 77.4928 29.7191 77.479 29.9289C77.4653 30.1353 77.4481 30.3468 77.4274 30.5635C77.4102 30.7801 77.393 30.9916 77.3758 31.198C77.3586 31.4009 77.3432 31.5918 77.3294 31.7706C77.3019 32.1008 77.2348 32.3777 77.1282 32.6012C77.0216 32.8282 76.8754 32.9984 76.6897 33.1119C76.504 33.2289 76.277 33.2873 76.0087 33.2873ZM76.1584 31.6313C76.2478 31.6313 76.3338 31.5866 76.4163 31.4972C76.4988 31.4078 76.5745 31.2891 76.6433 31.1413C76.7121 30.9934 76.774 30.8283 76.829 30.646C76.884 30.4637 76.9287 30.278 76.9631 30.0889C76.9975 29.8963 77.0182 29.7157 77.025 29.5472C76.9906 29.5265 76.9442 29.5128 76.8857 29.5059C76.8307 29.4956 76.7757 29.4904 76.7207 29.4904C76.5556 29.4904 76.4163 29.5317 76.3028 29.6142C76.1893 29.6968 76.0982 29.8068 76.0294 29.9444C75.9606 30.082 75.9107 30.235 75.8798 30.4035C75.8523 30.5721 75.8385 30.7423 75.8385 30.9143C75.8385 31.0518 75.8488 31.1756 75.8695 31.2857C75.8901 31.3923 75.9245 31.4766 75.9726 31.5385C76.0208 31.6004 76.0827 31.6313 76.1584 31.6313ZM80.9986 28.1801L81.9736 31.0742C81.9977 31.1395 82.0235 31.229 82.051 31.3424C82.0785 31.4525 82.0906 31.5471 82.0871 31.6262L82.407 31.6055L82.3967 31.8893H81.1895L81.1998 31.6623C81.3202 31.6589 81.3993 31.6331 81.4371 31.5849C81.4784 31.5333 81.4956 31.4714 81.4887 31.3992C81.4853 31.327 81.4732 31.2547 81.4526 31.1825L81.3236 30.7647L80.0649 30.7956L79.8946 31.2444C79.8671 31.3132 79.8396 31.3786 79.8121 31.4405C79.788 31.5024 79.7588 31.5626 79.7244 31.621L80.1113 31.6004L80.0958 31.8893H79.1002L79.1105 31.6571C79.1999 31.6537 79.2739 31.6262 79.3323 31.5746C79.3942 31.5196 79.4493 31.4456 79.4974 31.3528C79.549 31.2565 79.5989 31.1498 79.647 31.0329L80.8078 28.1801H80.9986ZM80.7665 28.9642C80.7355 29.0468 80.6994 29.1396 80.6581 29.2428C80.6203 29.346 80.579 29.456 80.5343 29.573L80.1681 30.517H81.2463L80.9574 29.6142C80.923 29.5042 80.8886 29.3941 80.8542 29.2841C80.8232 29.174 80.794 29.0674 80.7665 28.9642ZM83.354 33.2873C83.2681 33.2873 83.1804 33.2787 83.0909 33.2615C83.0015 33.2443 82.9155 33.2168 82.833 33.179C82.7539 33.1446 82.6885 33.0964 82.637 33.0345C82.5888 32.9761 82.5647 32.9056 82.5647 32.823C82.5647 32.7714 82.5751 32.7233 82.5957 32.6786C82.6163 32.6339 82.6473 32.596 82.6885 32.5651C82.7333 32.5341 82.7831 32.5187 82.8382 32.5187C82.9104 32.5187 82.9723 32.541 83.0239 32.5857C83.0755 32.6339 83.1013 32.7009 83.1013 32.7869C83.1013 32.8316 83.0909 32.8781 83.0703 32.9262C83.1013 32.9709 83.1494 33.0036 83.2147 33.0242C83.2801 33.0449 83.3386 33.0552 83.3901 33.0552C83.569 33.0552 83.7083 33.007 83.808 32.9107C83.9112 32.8179 83.9886 32.6923 84.0402 32.5341C84.0952 32.3759 84.1347 32.2023 84.1588 32.0131C84.1898 31.8171 84.2138 31.6262 84.231 31.4405C84.2482 31.2547 84.2723 31.0811 84.3033 30.9194H84.2878C84.219 31.1361 84.1468 31.3115 84.0711 31.4456C83.9955 31.5798 83.9181 31.6846 83.839 31.7603C83.7599 31.8325 83.679 31.8807 83.5965 31.9048C83.5174 31.9323 83.4383 31.946 83.3592 31.946C83.2147 31.946 83.0892 31.9065 82.9826 31.8274C82.8794 31.7448 82.7986 31.6296 82.7401 31.4817C82.6851 31.3338 82.6576 31.1619 82.6576 30.9659C82.6576 30.7389 82.6868 30.5239 82.7453 30.321C82.8072 30.1146 82.8983 29.9306 83.0187 29.769C83.1425 29.6074 83.299 29.4818 83.4882 29.3924C83.6773 29.2995 83.9026 29.2531 84.164 29.2531C84.274 29.2531 84.3927 29.2617 84.5199 29.2789C84.6472 29.2961 84.7607 29.3185 84.8604 29.346C84.8501 29.5248 84.8381 29.7191 84.8243 29.9289C84.8105 30.1353 84.7934 30.3468 84.7727 30.5635C84.7555 30.7801 84.7383 30.9916 84.7211 31.198C84.7039 31.4009 84.6885 31.5918 84.6747 31.7706C84.6472 32.1008 84.5801 32.3777 84.4735 32.6012C84.3669 32.8282 84.2207 32.9984 84.035 33.1119C83.8493 33.2289 83.6223 33.2873 83.354 33.2873ZM83.5036 31.6313C83.5931 31.6313 83.679 31.5866 83.7616 31.4972C83.8441 31.4078 83.9198 31.2891 83.9886 31.1413C84.0574 30.9934 84.1193 30.8283 84.1743 30.646C84.2293 30.4637 84.274 30.278 84.3084 30.0889C84.3428 29.8963 84.3634 29.7157 84.3703 29.5472C84.3359 29.5265 84.2895 29.5128 84.231 29.5059C84.176 29.4956 84.121 29.4904 84.066 29.4904C83.9009 29.4904 83.7616 29.5317 83.6481 29.6142C83.5346 29.6968 83.4435 29.8068 83.3747 29.9444C83.3059 30.082 83.256 30.235 83.2251 30.4035C83.1976 30.5721 83.1838 30.7423 83.1838 30.9143C83.1838 31.0518 83.1941 31.1756 83.2147 31.2857C83.2354 31.3923 83.2698 31.4766 83.3179 31.5385C83.3661 31.6004 83.428 31.6313 83.5036 31.6313ZM85.6629 31.8893C85.6595 31.848 85.656 31.8171 85.6526 31.7964C85.6526 31.7723 85.6526 31.7466 85.6526 31.719C85.6526 31.6537 85.6543 31.578 85.6577 31.4921C85.6646 31.4026 85.6749 31.2943 85.6887 31.167C85.7024 31.0398 85.7196 30.885 85.7403 30.7028C85.7609 30.5102 85.7781 30.3588 85.7919 30.2488C85.8056 30.1353 85.8159 30.0459 85.8228 29.9805C85.8331 29.9152 85.8383 29.8653 85.8383 29.8309C85.8383 29.7656 85.8314 29.7088 85.8177 29.6607C85.8073 29.6091 85.7747 29.5833 85.7196 29.5833C85.6715 29.5833 85.6165 29.6194 85.5546 29.6916C85.4927 29.7604 85.4359 29.8808 85.3843 30.0527L85.1934 30.0063C85.2072 29.941 85.2296 29.867 85.2605 29.7845C85.2949 29.6985 85.3396 29.616 85.3946 29.5369C85.4497 29.4543 85.5167 29.3872 85.5958 29.3357C85.6749 29.2806 85.7678 29.2531 85.8744 29.2531C86.012 29.2531 86.1134 29.2995 86.1788 29.3924C86.2441 29.4853 86.2734 29.6211 86.2665 29.8C86.2665 29.8687 86.2596 29.9461 86.2458 30.0321C86.2321 30.1181 86.2166 30.2109 86.1994 30.3107H86.2097C86.3095 30.0252 86.4109 29.8068 86.5141 29.6555C86.6207 29.5042 86.7273 29.3993 86.834 29.3408C86.9406 29.2824 87.0437 29.2531 87.1435 29.2531C87.257 29.2531 87.3498 29.2824 87.4221 29.3408C87.4943 29.3993 87.5304 29.4801 87.5304 29.5833C87.5304 29.6555 87.5046 29.7209 87.453 29.7793C87.4049 29.8378 87.3395 29.867 87.257 29.867C87.1882 29.867 87.1297 29.8464 87.0816 29.8051C87.0334 29.7638 87.0076 29.7054 87.0042 29.6297C86.9182 29.616 86.834 29.6486 86.7514 29.7277C86.6723 29.8068 86.5966 29.9186 86.5244 30.0631C86.4556 30.2075 86.3937 30.3691 86.3387 30.548C86.2837 30.7268 86.2407 30.9091 86.2097 31.0948C86.1788 31.2805 86.1633 31.4542 86.1633 31.6159C86.1633 31.6675 86.1633 31.7156 86.1633 31.7603C86.1667 31.8016 86.1702 31.8446 86.1736 31.8893H85.6629ZM88.9298 29.2531C89.1155 29.2531 89.284 29.2978 89.4354 29.3872C89.5867 29.4732 89.7054 29.6022 89.7913 29.7742C89.8808 29.9427 89.9255 30.1473 89.9255 30.3881C89.9255 30.6632 89.8739 30.9194 89.7707 31.1567C89.671 31.394 89.5265 31.5849 89.3374 31.7294C89.1482 31.8738 88.9195 31.946 88.6512 31.946C88.4242 31.946 88.2351 31.8944 88.0838 31.7913C87.9359 31.6881 87.8258 31.5488 87.7536 31.3734C87.6814 31.1946 87.6453 30.9985 87.6453 30.7853C87.6453 30.5067 87.6968 30.2522 87.8 30.0218C87.9032 29.7879 88.0511 29.6022 88.2437 29.4646C88.4363 29.3236 88.665 29.2531 88.9298 29.2531ZM88.8524 29.4956C88.7149 29.4921 88.5962 29.542 88.4965 29.6452C88.4002 29.7449 88.3245 29.8808 88.2695 30.0527C88.2144 30.2247 88.1852 30.4156 88.1818 30.6254C88.1818 30.7354 88.1887 30.8541 88.2024 30.9813C88.2196 31.1051 88.2471 31.2221 88.285 31.3321C88.3262 31.4387 88.3813 31.5264 88.45 31.5952C88.5188 31.664 88.6065 31.7001 88.7131 31.7036C88.8335 31.7036 88.935 31.6675 89.0175 31.5952C89.1035 31.5196 89.1723 31.4233 89.2239 31.3063C89.2789 31.186 89.3184 31.0587 89.3425 30.9246C89.37 30.7905 89.3855 30.6649 89.3889 30.548C89.3924 30.4345 89.3872 30.3176 89.3735 30.1972C89.3597 30.0768 89.3322 29.9633 89.2909 29.8567C89.2531 29.7501 89.1981 29.6641 89.1258 29.5988C89.0571 29.53 88.9659 29.4956 88.8524 29.4956ZM91.1974 27.9944C91.1836 28.0907 91.1682 28.1973 91.151 28.3142C91.1372 28.4311 91.1252 28.5446 91.1149 28.6547C91.1045 28.7613 91.0942 28.8525 91.0839 28.9281C91.0736 29.0416 91.0615 29.1671 91.0478 29.3047C91.034 29.4388 91.0186 29.5816 91.0014 29.7329C90.9876 29.8842 90.9721 30.0355 90.9549 30.1869H90.9652C91.0306 29.984 91.1011 29.8206 91.1768 29.6968C91.2559 29.573 91.3367 29.4801 91.4192 29.4182C91.5018 29.3529 91.5826 29.3099 91.6617 29.2892C91.7408 29.2652 91.8147 29.2531 91.8835 29.2531C92.0486 29.2531 92.181 29.2995 92.2808 29.3924C92.3805 29.4818 92.451 29.5988 92.4923 29.7432C92.537 29.8877 92.5593 30.0441 92.5593 30.2127C92.5593 30.45 92.5335 30.6735 92.4819 30.8833C92.4304 31.0897 92.3478 31.2737 92.2343 31.4353C92.1208 31.5935 91.9729 31.719 91.7907 31.8119C91.6118 31.9013 91.3952 31.946 91.1406 31.946C91.0856 31.946 91.0151 31.9426 90.9291 31.9357C90.8466 31.9288 90.7589 31.9168 90.666 31.8996C90.5766 31.8824 90.4941 31.8583 90.4184 31.8274C90.4356 31.511 90.4511 31.2255 90.4648 30.971C90.482 30.7165 90.4975 30.474 90.5113 30.2436C90.525 30.0097 90.5405 29.7724 90.5577 29.5317C90.5749 29.2875 90.5955 29.0193 90.6196 28.7269C90.623 28.6478 90.6265 28.5859 90.6299 28.5412C90.6368 28.4931 90.6437 28.4415 90.6506 28.3864C90.5921 28.3899 90.5302 28.3933 90.4648 28.3968C90.3995 28.4002 90.3393 28.4036 90.2843 28.4071L90.3049 28.1388C90.4597 28.1388 90.5835 28.1319 90.6764 28.1182C90.7692 28.101 90.8397 28.0821 90.8879 28.0614C90.9395 28.0408 90.979 28.0184 91.0065 27.9944H91.1974ZM91.7184 29.573C91.6325 29.5764 91.5482 29.6211 91.4657 29.7071C91.3831 29.7896 91.3075 29.9014 91.2387 30.0424C91.1733 30.18 91.1149 30.3382 91.0633 30.517C91.0117 30.6924 90.9704 30.8747 90.9395 31.0639C90.9085 31.253 90.8913 31.437 90.8879 31.6159C90.9223 31.6503 90.9721 31.6761 91.0375 31.6932C91.1063 31.707 91.1682 31.7139 91.2232 31.7139C91.3642 31.7104 91.4811 31.6778 91.574 31.6159C91.6703 31.5505 91.7477 31.4645 91.8061 31.3579C91.868 31.2513 91.9145 31.1327 91.9454 31.002C91.9798 30.8713 92.0022 30.7406 92.0125 30.6099C92.0262 30.4758 92.0314 30.3502 92.028 30.2333C92.028 30.0166 92.0005 29.8515 91.9454 29.738C91.8938 29.6246 91.8182 29.5695 91.7184 29.573ZM93.8579 31.946C93.7169 31.946 93.6034 31.9151 93.5174 31.8532C93.4349 31.7878 93.373 31.7018 93.3317 31.5952C93.2939 31.4852 93.275 31.3648 93.275 31.2341C93.275 31.0621 93.287 30.8867 93.3111 30.7079C93.3386 30.5256 93.3644 30.3537 93.3884 30.192C93.416 30.0304 93.4297 29.8963 93.4297 29.7896C93.4297 29.7277 93.4211 29.6779 93.4039 29.64C93.3902 29.6022 93.3592 29.5833 93.3111 29.5833C93.2629 29.5833 93.2096 29.6194 93.1511 29.6916C93.0927 29.7604 93.0376 29.8808 92.9861 30.0527L92.8003 30.0063C92.8107 29.941 92.833 29.867 92.8674 29.7845C92.9018 29.6985 92.9465 29.616 93.0015 29.5369C93.06 29.4543 93.1288 29.3872 93.2079 29.3357C93.2904 29.2806 93.3867 29.2531 93.4968 29.2531C93.6515 29.2531 93.7633 29.2995 93.8321 29.3924C93.9009 29.4818 93.9353 29.6108 93.9353 29.7793C93.9353 29.8791 93.9267 29.9977 93.9095 30.1353C93.8957 30.2728 93.8785 30.4156 93.8579 30.5635C93.8373 30.7079 93.8183 30.8489 93.8012 30.9865C93.7874 31.1206 93.7805 31.2375 93.7805 31.3373C93.7805 31.3786 93.7857 31.4233 93.796 31.4714C93.8063 31.5161 93.8269 31.554 93.8579 31.5849C93.8889 31.6124 93.9318 31.6262 93.9869 31.6262C94.0729 31.6262 94.1571 31.5849 94.2397 31.5024C94.3222 31.4164 94.3996 31.3012 94.4718 31.1567C94.5475 31.0123 94.6145 30.8524 94.673 30.677C94.7349 30.5016 94.7831 30.3227 94.8174 30.1404C94.8518 29.9547 94.869 29.7793 94.869 29.6142C94.869 29.5661 94.8673 29.5145 94.8639 29.4595C94.8639 29.4044 94.8604 29.3546 94.8536 29.3099H95.3643C95.3712 29.3511 95.3746 29.3838 95.3746 29.4079C95.3746 29.4285 95.3746 29.4526 95.3746 29.4801C95.3746 29.5455 95.3712 29.6228 95.3643 29.7123C95.3574 29.7982 95.3471 29.9049 95.3333 30.0321C95.3196 30.1594 95.3007 30.3141 95.2766 30.4964C95.2559 30.6615 95.2387 30.7956 95.225 30.8988C95.2147 31.002 95.2044 31.0862 95.194 31.1516C95.1872 31.2135 95.182 31.2651 95.1786 31.3063C95.1786 31.3442 95.1786 31.3803 95.1786 31.4147C95.1786 31.4731 95.1872 31.5213 95.2044 31.5591C95.2216 31.5935 95.2508 31.6107 95.2921 31.6107C95.3436 31.6107 95.4004 31.5763 95.4623 31.5075C95.5242 31.4387 95.5792 31.3184 95.6274 31.1464L95.8183 31.1928C95.8045 31.2582 95.7821 31.3338 95.7512 31.4198C95.7202 31.5024 95.6772 31.5849 95.6222 31.6675C95.5672 31.7466 95.5001 31.8136 95.421 31.8686C95.3419 31.9202 95.2491 31.946 95.1424 31.946C95.0118 31.946 94.9103 31.9065 94.8381 31.8274C94.7659 31.7483 94.7297 31.6331 94.7297 31.4817C94.7297 31.3923 94.7366 31.3012 94.7504 31.2083C94.7676 31.112 94.7848 31.0123 94.802 30.9091H94.7916C94.685 31.1842 94.5801 31.3975 94.477 31.5488C94.3772 31.7001 94.2758 31.805 94.1726 31.8635C94.0729 31.9185 93.968 31.946 93.8579 31.946ZM96.8435 31.946C96.699 31.946 96.5597 31.9237 96.4256 31.879C96.2949 31.8343 96.1883 31.7689 96.1057 31.6829C96.0266 31.5969 95.9871 31.4955 95.9871 31.3786C95.9871 31.2926 96.0112 31.2238 96.0593 31.1722C96.1109 31.1172 96.1728 31.0897 96.245 31.0897C96.3207 31.0897 96.3809 31.1155 96.4256 31.167C96.4703 31.2152 96.4927 31.2737 96.4927 31.3424C96.4927 31.3665 96.4892 31.3923 96.4823 31.4198C96.4755 31.4439 96.4651 31.4697 96.4514 31.4972C96.4755 31.5591 96.527 31.609 96.6061 31.6468C96.6853 31.6846 96.7644 31.7036 96.8435 31.7036C97.0189 31.7036 97.1461 31.664 97.2252 31.5849C97.3078 31.5058 97.349 31.4009 97.349 31.2702C97.349 31.1877 97.3181 31.1137 97.2562 31.0484C97.1977 30.983 97.122 30.9211 97.0292 30.8627C96.9363 30.8042 96.84 30.7457 96.7403 30.6873C96.6199 30.6151 96.5116 30.5445 96.4153 30.4758C96.319 30.407 96.2433 30.3313 96.1883 30.2488C96.1333 30.1662 96.1057 30.0717 96.1057 29.965C96.1057 29.8412 96.1436 29.726 96.2192 29.6194C96.2949 29.5093 96.4015 29.4216 96.5391 29.3563C96.6801 29.2875 96.8435 29.2531 97.0292 29.2531C97.1633 29.2531 97.2906 29.2755 97.4109 29.3202C97.5313 29.3615 97.631 29.4216 97.7101 29.5007C97.7892 29.5764 97.8288 29.6693 97.8288 29.7793C97.8288 29.8584 97.8047 29.9238 97.7566 29.9754C97.7084 30.0269 97.6482 30.0527 97.576 30.0527C97.5038 30.0527 97.4453 30.0287 97.4006 29.9805C97.3559 29.9289 97.3335 29.8722 97.3335 29.8103C97.3335 29.7828 97.337 29.757 97.3439 29.7329C97.3507 29.7054 97.3611 29.6779 97.3748 29.6503C97.3542 29.5988 97.3112 29.5575 97.2458 29.5265C97.1839 29.4956 97.1066 29.4801 97.0137 29.4801C96.9449 29.4801 96.8778 29.4956 96.8125 29.5265C96.7472 29.5541 96.6921 29.5953 96.6474 29.6503C96.6027 29.7019 96.5804 29.7656 96.5804 29.8412C96.5804 29.8997 96.5976 29.9547 96.6319 30.0063C96.6663 30.0545 96.7162 30.1026 96.7815 30.1508C96.8469 30.1955 96.9277 30.2488 97.024 30.3107C97.1444 30.3795 97.2682 30.4534 97.3955 30.5325C97.5227 30.6116 97.6293 30.7028 97.7153 30.8059C97.8013 30.9091 97.8443 31.0329 97.8443 31.1774C97.8443 31.3252 97.8013 31.4577 97.7153 31.5746C97.6293 31.6915 97.5107 31.7827 97.3593 31.848C97.2115 31.9134 97.0395 31.946 96.8435 31.946ZM98.812 29.2531C98.9668 29.2531 99.0803 29.3047 99.1525 29.4079C99.2247 29.5076 99.2609 29.6418 99.2609 29.8103C99.2609 29.9066 99.2505 30.0235 99.2299 30.1611C99.2127 30.2952 99.1903 30.4379 99.1628 30.5893C99.1388 30.7406 99.1181 30.8885 99.1009 31.0329C99.0837 31.1774 99.0751 31.3081 99.0751 31.425C99.0751 31.4903 99.0854 31.5385 99.1061 31.5694C99.1302 31.6004 99.1628 31.6159 99.2041 31.6159C99.2591 31.6159 99.3159 31.5815 99.3743 31.5127C99.4363 31.4405 99.4913 31.3184 99.5394 31.1464L99.7303 31.1928C99.7165 31.2651 99.6925 31.3459 99.6581 31.4353C99.6237 31.5213 99.5773 31.6038 99.5188 31.6829C99.4638 31.7586 99.3967 31.8222 99.3176 31.8738C99.2385 31.922 99.1474 31.946 99.0442 31.946C98.8757 31.946 98.7536 31.9013 98.6779 31.8119C98.6057 31.7225 98.5696 31.5952 98.5696 31.4301C98.5696 31.296 98.5782 31.1584 98.5954 31.0174C98.616 30.8764 98.6384 30.7354 98.6624 30.5944C98.6865 30.4534 98.7089 30.3158 98.7295 30.1817C98.7501 30.0441 98.7604 29.9117 98.7604 29.7845C98.7604 29.7363 98.7501 29.6916 98.7295 29.6503C98.7123 29.6056 98.6813 29.5833 98.6366 29.5833C98.585 29.5833 98.5283 29.6194 98.4664 29.6916C98.4045 29.7604 98.3495 29.8808 98.3013 30.0527L98.1104 30.0063C98.1242 29.941 98.1483 29.867 98.1827 29.7845C98.217 29.6985 98.2618 29.616 98.3168 29.5369C98.3753 29.4543 98.444 29.3872 98.5231 29.3357C98.6057 29.2806 98.702 29.2531 98.812 29.2531ZM99.07 28.0769C99.1594 28.0769 99.2333 28.1096 99.2918 28.1749C99.3503 28.2368 99.3778 28.3177 99.3743 28.4174C99.3743 28.5137 99.3434 28.5928 99.2815 28.6547C99.2196 28.7166 99.1439 28.7476 99.0545 28.7476C98.9651 28.7476 98.8911 28.7166 98.8327 28.6547C98.7742 28.5928 98.745 28.5137 98.745 28.4174C98.7484 28.3177 98.7811 28.2368 98.843 28.1749C98.9083 28.1096 98.984 28.0769 99.07 28.0769ZM102.197 31.946C102.028 31.946 101.913 31.9013 101.851 31.8119C101.789 31.719 101.758 31.5884 101.758 31.4198C101.758 31.3235 101.765 31.21 101.779 31.0793C101.796 30.9487 101.813 30.8128 101.83 30.6718C101.851 30.5274 101.868 30.3846 101.882 30.2436C101.899 30.1026 101.908 29.9736 101.908 29.8567C101.908 29.812 101.901 29.769 101.887 29.7277C101.877 29.683 101.856 29.6469 101.825 29.6194C101.798 29.5884 101.755 29.573 101.696 29.573C101.614 29.573 101.528 29.616 101.438 29.7019C101.352 29.7845 101.27 29.898 101.191 30.0424C101.115 30.1869 101.046 30.3468 100.984 30.5222C100.922 30.6976 100.872 30.8782 100.835 31.0639C100.8 31.2461 100.783 31.4198 100.783 31.5849C100.783 31.6331 100.783 31.6846 100.783 31.7397C100.786 31.7947 100.79 31.8446 100.793 31.8893H100.283C100.279 31.848 100.277 31.8171 100.277 31.7964C100.277 31.7723 100.277 31.7466 100.277 31.719C100.277 31.6537 100.281 31.5798 100.288 31.4972C100.295 31.4112 100.305 31.3063 100.319 31.1825C100.336 31.0587 100.355 30.9057 100.375 30.7234C100.393 30.5583 100.406 30.4242 100.417 30.321C100.43 30.2144 100.441 30.1284 100.448 30.0631C100.458 29.9943 100.465 29.9392 100.468 29.898C100.472 29.8567 100.473 29.8189 100.473 29.7845C100.473 29.7226 100.465 29.6744 100.448 29.64C100.43 29.6022 100.4 29.5833 100.355 29.5833C100.307 29.5833 100.252 29.6194 100.19 29.6916C100.128 29.7604 100.071 29.8808 100.019 30.0527L99.8286 30.0063C99.8424 29.941 99.8647 29.867 99.8957 29.7845C99.9301 29.6985 99.9748 29.616 100.03 29.5369C100.085 29.4543 100.152 29.3872 100.231 29.3357C100.31 29.2806 100.403 29.2531 100.51 29.2531C100.613 29.2531 100.694 29.2789 100.752 29.3305C100.811 29.3821 100.852 29.4526 100.876 29.542C100.9 29.6314 100.91 29.7346 100.907 29.8515C100.903 29.9375 100.895 30.0166 100.881 30.0889C100.867 30.1611 100.855 30.2299 100.845 30.2952H100.855C100.962 30.0201 101.068 29.8068 101.175 29.6555C101.285 29.5042 101.395 29.3993 101.505 29.3408C101.615 29.2824 101.724 29.2531 101.83 29.2531C101.971 29.2531 102.083 29.2858 102.166 29.3511C102.252 29.413 102.313 29.4973 102.351 29.6039C102.389 29.7105 102.408 29.8309 102.408 29.965C102.408 30.1336 102.396 30.309 102.372 30.4912C102.348 30.6735 102.324 30.8455 102.3 31.0071C102.276 31.1688 102.264 31.3029 102.264 31.4095C102.264 31.4714 102.27 31.5213 102.284 31.5591C102.301 31.5969 102.334 31.6159 102.382 31.6159C102.434 31.6159 102.489 31.5815 102.547 31.5127C102.609 31.4439 102.666 31.3218 102.718 31.1464L102.903 31.198C102.893 31.2599 102.871 31.3338 102.836 31.4198C102.802 31.5058 102.755 31.5884 102.697 31.6675C102.638 31.7466 102.568 31.8136 102.485 31.8686C102.403 31.9202 102.307 31.946 102.197 31.946ZM104.406 29.2531C104.54 29.2531 104.662 29.2738 104.772 29.315C104.886 29.3529 104.977 29.4165 105.046 29.5059C105.114 29.5953 105.149 29.7157 105.149 29.867C105.149 30.008 105.102 30.1301 105.01 30.2333C104.917 30.333 104.796 30.4156 104.648 30.4809C104.501 30.5463 104.341 30.5996 104.169 30.6408C103.997 30.6787 103.832 30.7079 103.673 30.7285C103.673 30.9349 103.696 31.1034 103.74 31.2341C103.785 31.3648 103.847 31.4611 103.926 31.523C104.009 31.5849 104.107 31.6159 104.22 31.6159C104.306 31.6159 104.396 31.5969 104.488 31.5591C104.585 31.5213 104.678 31.4611 104.767 31.3786C104.856 31.2926 104.937 31.1774 105.01 31.0329L105.221 31.1464C105.125 31.339 105.02 31.4955 104.906 31.6159C104.793 31.7328 104.671 31.8171 104.54 31.8686C104.409 31.9202 104.268 31.946 104.117 31.946C103.794 31.946 103.55 31.848 103.384 31.652C103.219 31.4525 103.137 31.1774 103.137 30.8266C103.137 30.6408 103.163 30.4551 103.214 30.2694C103.266 30.0803 103.343 29.91 103.446 29.7587C103.55 29.6039 103.682 29.4818 103.844 29.3924C104.005 29.2995 104.193 29.2531 104.406 29.2531ZM104.339 29.4853C104.194 29.4853 104.076 29.5351 103.983 29.6349C103.893 29.7312 103.825 29.8567 103.777 30.0115C103.728 30.1662 103.697 30.3262 103.684 30.4912C103.866 30.4637 104.031 30.4207 104.179 30.3623C104.327 30.3004 104.444 30.2247 104.53 30.1353C104.619 30.0424 104.662 29.9392 104.659 29.8257C104.659 29.7226 104.629 29.64 104.571 29.5781C104.516 29.5162 104.439 29.4853 104.339 29.4853ZM106.4 31.946C106.256 31.946 106.117 31.9237 105.983 31.879C105.852 31.8343 105.745 31.7689 105.663 31.6829C105.584 31.5969 105.544 31.4955 105.544 31.3786C105.544 31.2926 105.568 31.2238 105.616 31.1722C105.668 31.1172 105.73 31.0897 105.802 31.0897C105.878 31.0897 105.938 31.1155 105.983 31.167C106.027 31.2152 106.05 31.2737 106.05 31.3424C106.05 31.3665 106.046 31.3923 106.039 31.4198C106.032 31.4439 106.022 31.4697 106.008 31.4972C106.032 31.5591 106.084 31.609 106.163 31.6468C106.242 31.6846 106.321 31.7036 106.4 31.7036C106.576 31.7036 106.703 31.664 106.782 31.5849C106.865 31.5058 106.906 31.4009 106.906 31.2702C106.906 31.1877 106.875 31.1137 106.813 31.0484C106.755 30.983 106.679 30.9211 106.586 30.8627C106.493 30.8042 106.397 30.7457 106.297 30.6873C106.177 30.6151 106.069 30.5445 105.972 30.4758C105.876 30.407 105.8 30.3313 105.745 30.2488C105.69 30.1662 105.663 30.0717 105.663 29.965C105.663 29.8412 105.701 29.726 105.776 29.6194C105.852 29.5093 105.958 29.4216 106.096 29.3563C106.237 29.2875 106.4 29.2531 106.586 29.2531C106.72 29.2531 106.847 29.2755 106.968 29.3202C107.088 29.3615 107.188 29.4216 107.267 29.5007C107.346 29.5764 107.386 29.6693 107.386 29.7793C107.386 29.8584 107.362 29.9238 107.314 29.9754C107.265 30.0269 107.205 30.0527 107.133 30.0527C107.061 30.0527 107.002 30.0287 106.958 29.9805C106.913 29.9289 106.89 29.8722 106.89 29.8103C106.89 29.7828 106.894 29.757 106.901 29.7329C106.908 29.7054 106.918 29.6779 106.932 29.6503C106.911 29.5988 106.868 29.5575 106.803 29.5265C106.741 29.4956 106.663 29.4801 106.571 29.4801C106.502 29.4801 106.435 29.4956 106.369 29.5265C106.304 29.5541 106.249 29.5953 106.204 29.6503C106.16 29.7019 106.137 29.7656 106.137 29.8412C106.137 29.8997 106.154 29.9547 106.189 30.0063C106.223 30.0545 106.273 30.1026 106.338 30.1508C106.404 30.1955 106.485 30.2488 106.581 30.3107C106.701 30.3795 106.825 30.4534 106.952 30.5325C107.08 30.6116 107.186 30.7028 107.272 30.8059C107.358 30.9091 107.401 31.0329 107.401 31.1774C107.401 31.3252 107.358 31.4577 107.272 31.5746C107.186 31.6915 107.068 31.7827 106.916 31.848C106.768 31.9134 106.596 31.946 106.4 31.946ZM108.637 31.946C108.493 31.946 108.353 31.9237 108.219 31.879C108.089 31.8343 107.982 31.7689 107.9 31.6829C107.82 31.5969 107.781 31.4955 107.781 31.3786C107.781 31.2926 107.805 31.2238 107.853 31.1722C107.905 31.1172 107.967 31.0897 108.039 31.0897C108.114 31.0897 108.175 31.1155 108.219 31.167C108.264 31.2152 108.286 31.2737 108.286 31.3424C108.286 31.3665 108.283 31.3923 108.276 31.4198C108.269 31.4439 108.259 31.4697 108.245 31.4972C108.269 31.5591 108.321 31.609 108.4 31.6468C108.479 31.6846 108.558 31.7036 108.637 31.7036C108.813 31.7036 108.94 31.664 109.019 31.5849C109.102 31.5058 109.143 31.4009 109.143 31.2702C109.143 31.1877 109.112 31.1137 109.05 31.0484C108.991 30.983 108.916 30.9211 108.823 30.8627C108.73 30.8042 108.634 30.7457 108.534 30.6873C108.414 30.6151 108.305 30.5445 108.209 30.4758C108.113 30.407 108.037 30.3313 107.982 30.2488C107.927 30.1662 107.9 30.0717 107.9 29.965C107.9 29.8412 107.937 29.726 108.013 29.6194C108.089 29.5093 108.195 29.4216 108.333 29.3563C108.474 29.2875 108.637 29.2531 108.823 29.2531C108.957 29.2531 109.084 29.2755 109.205 29.3202C109.325 29.3615 109.425 29.4216 109.504 29.5007C109.583 29.5764 109.623 29.6693 109.623 29.7793C109.623 29.8584 109.598 29.9238 109.55 29.9754C109.502 30.0269 109.442 30.0527 109.37 30.0527C109.298 30.0527 109.239 30.0287 109.194 29.9805C109.15 29.9289 109.127 29.8722 109.127 29.8103C109.127 29.7828 109.131 29.757 109.138 29.7329C109.145 29.7054 109.155 29.6779 109.169 29.6503C109.148 29.5988 109.105 29.5575 109.04 29.5265C108.978 29.4956 108.9 29.4801 108.807 29.4801C108.739 29.4801 108.672 29.4956 108.606 29.5265C108.541 29.5541 108.486 29.5953 108.441 29.6503C108.396 29.7019 108.374 29.7656 108.374 29.8412C108.374 29.8997 108.391 29.9547 108.426 30.0063C108.46 30.0545 108.51 30.1026 108.575 30.1508C108.641 30.1955 108.721 30.2488 108.818 30.3107C108.938 30.3795 109.062 30.4534 109.189 30.5325C109.316 30.6116 109.423 30.7028 109.509 30.8059C109.595 30.9091 109.638 31.0329 109.638 31.1774C109.638 31.3252 109.595 31.4577 109.509 31.5746C109.423 31.6915 109.304 31.7827 109.153 31.848C109.005 31.9134 108.833 31.946 108.637 31.946ZM111.328 29.2531C111.462 29.2531 111.584 29.2738 111.694 29.315C111.808 29.3529 111.899 29.4165 111.968 29.5059C112.037 29.5953 112.071 29.7157 112.071 29.867C112.071 30.008 112.024 30.1301 111.932 30.2333C111.839 30.333 111.718 30.4156 111.571 30.4809C111.423 30.5463 111.263 30.5996 111.091 30.6408C110.919 30.6787 110.754 30.7079 110.595 30.7285C110.595 30.9349 110.618 31.1034 110.663 31.2341C110.707 31.3648 110.769 31.4611 110.848 31.523C110.931 31.5849 111.029 31.6159 111.142 31.6159C111.228 31.6159 111.318 31.5969 111.411 31.5591C111.507 31.5213 111.6 31.4611 111.689 31.3786C111.779 31.2926 111.859 31.1774 111.932 31.0329L112.143 31.1464C112.047 31.339 111.942 31.4955 111.828 31.6159C111.715 31.7328 111.593 31.8171 111.462 31.8686C111.331 31.9202 111.19 31.946 111.039 31.946C110.716 31.946 110.472 31.848 110.307 31.652C110.142 31.4525 110.059 31.1774 110.059 30.8266C110.059 30.6408 110.085 30.4551 110.136 30.2694C110.188 30.0803 110.265 29.91 110.368 29.7587C110.472 29.6039 110.604 29.4818 110.766 29.3924C110.927 29.2995 111.115 29.2531 111.328 29.2531ZM111.261 29.4853C111.117 29.4853 110.998 29.5351 110.905 29.6349C110.816 29.7312 110.747 29.8567 110.699 30.0115C110.651 30.1662 110.62 30.3262 110.606 30.4912C110.788 30.4637 110.953 30.4207 111.101 30.3623C111.249 30.3004 111.366 30.2247 111.452 30.1353C111.541 30.0424 111.584 29.9392 111.581 29.8257C111.581 29.7226 111.552 29.64 111.493 29.5781C111.438 29.5162 111.361 29.4853 111.261 29.4853ZM113.322 31.946C113.178 31.946 113.039 31.9237 112.905 31.879C112.774 31.8343 112.667 31.7689 112.585 31.6829C112.506 31.5969 112.466 31.4955 112.466 31.3786C112.466 31.2926 112.49 31.2238 112.538 31.1722C112.59 31.1172 112.652 31.0897 112.724 31.0897C112.8 31.0897 112.86 31.1155 112.905 31.167C112.949 31.2152 112.972 31.2737 112.972 31.3424C112.972 31.3665 112.968 31.3923 112.961 31.4198C112.954 31.4439 112.944 31.4697 112.93 31.4972C112.954 31.5591 113.006 31.609 113.085 31.6468C113.164 31.6846 113.243 31.7036 113.322 31.7036C113.498 31.7036 113.625 31.664 113.704 31.5849C113.787 31.5058 113.828 31.4009 113.828 31.2702C113.828 31.1877 113.797 31.1137 113.735 31.0484C113.677 30.983 113.601 30.9211 113.508 30.8627C113.415 30.8042 113.319 30.7457 113.219 30.6873C113.099 30.6151 112.991 30.5445 112.894 30.4758C112.798 30.407 112.722 30.3313 112.667 30.2488C112.612 30.1662 112.585 30.0717 112.585 29.965C112.585 29.8412 112.623 29.726 112.698 29.6194C112.774 29.5093 112.881 29.4216 113.018 29.3563C113.159 29.2875 113.322 29.2531 113.508 29.2531C113.642 29.2531 113.77 29.2755 113.89 29.3202C114.01 29.3615 114.11 29.4216 114.189 29.5007C114.268 29.5764 114.308 29.6693 114.308 29.7793C114.308 29.8584 114.284 29.9238 114.236 29.9754C114.187 30.0269 114.127 30.0527 114.055 30.0527C113.983 30.0527 113.924 30.0287 113.88 29.9805C113.835 29.9289 113.813 29.8722 113.813 29.8103C113.813 29.7828 113.816 29.757 113.823 29.7329C113.83 29.7054 113.84 29.6779 113.854 29.6503C113.833 29.5988 113.79 29.5575 113.725 29.5265C113.663 29.4956 113.586 29.4801 113.493 29.4801C113.424 29.4801 113.357 29.4956 113.292 29.5265C113.226 29.5541 113.171 29.5953 113.126 29.6503C113.082 29.7019 113.059 29.7656 113.059 29.8412C113.059 29.8997 113.077 29.9547 113.111 30.0063C113.145 30.0545 113.195 30.1026 113.261 30.1508C113.326 30.1955 113.407 30.2488 113.503 30.3107C113.623 30.3795 113.747 30.4534 113.874 30.5325C114.002 30.6116 114.108 30.7028 114.194 30.8059C114.28 30.9091 114.323 31.0329 114.323 31.1774C114.323 31.3252 114.28 31.4577 114.194 31.5746C114.108 31.6915 113.99 31.7827 113.838 31.848C113.69 31.9134 113.519 31.946 113.322 31.946Z" fill="#222222"/>
</svg>
