<svg width="65" height="64" viewBox="0 0 65 64" fill="none" xmlns="http://www.w3.org/2000/svg">
<rect x="2" y="2.41" width="60.88" height="59.19" rx="29.595" fill="white"/>
<rect x="2" y="2.41" width="60.88" height="59.19" rx="29.595" stroke="white" stroke-width="4"/>
<path d="M22.8 38.31V35.494H16.736V34.454L22.8 26.39H23.92V34.454H25.376V35.494H23.92V38.31H22.8ZM17.712 34.918L17.568 34.454H22.8V27.494L23.2 27.606L17.712 34.918ZM26.8301 38.31V29.734H28.0301V31.366L27.8381 31.126C28.0728 30.6247 28.4195 30.2353 28.8781 29.958C29.3475 29.6807 29.8595 29.542 30.4141 29.542C31.0755 29.542 31.6728 29.7287 32.2061 30.102C32.7395 30.4753 33.1181 30.9607 33.3421 31.558L33.0061 31.574C33.2195 30.9127 33.5875 30.4113 34.1101 30.07C34.6435 29.718 35.2301 29.542 35.8701 29.542C36.4461 29.542 36.9741 29.6807 37.4541 29.958C37.9448 30.2353 38.3341 30.6193 38.6221 31.11C38.9208 31.59 39.0701 32.134 39.0701 32.742V38.31H37.8701V33.206C37.8701 32.6833 37.7741 32.2407 37.5821 31.878C37.4008 31.5153 37.1501 31.238 36.8301 31.046C36.5101 30.8433 36.1421 30.742 35.7261 30.742C35.3208 30.742 34.9528 30.8433 34.6221 31.046C34.2915 31.238 34.0301 31.5207 33.8381 31.894C33.6461 32.2567 33.5501 32.694 33.5501 33.206V38.31H32.3501V33.206C32.3501 32.6833 32.2541 32.2407 32.0621 31.878C31.8808 31.5153 31.6301 31.238 31.3101 31.046C30.9901 30.8433 30.6221 30.742 30.2061 30.742C29.7901 30.742 29.4168 30.8433 29.0861 31.046C28.7661 31.238 28.5101 31.5207 28.3181 31.894C28.1261 32.2567 28.0301 32.694 28.0301 33.206V38.31H26.8301ZM43.9054 38.31V34.902H40.4974V33.702H43.9054V30.31H45.1054V33.702H48.4974V34.902H45.1054V38.31H43.9054Z" fill="#3D4F60"/>
</svg>
